<svg width="258" height="66" viewBox="0 0 258 66" fill="none" xmlns="http://www.w3.org/2000/svg">
<rect x="12" y="6" width="6" height="6" fill="black"/>
<rect width="6" height="6" transform="matrix(-1 0 0 1 12 48)" fill="black"/>
<rect width="6" height="6" transform="matrix(-1 0 0 1 6 42)" fill="black"/>
<rect width="6" height="6" transform="matrix(-1 0 0 1 6 36)" fill="black"/>
<rect width="6" height="6" transform="matrix(-1 0 0 1 6 30)" fill="black"/>
<rect width="6" height="6" transform="matrix(-1 0 0 1 6 24)" fill="black"/>
<rect width="6" height="6" transform="matrix(-1 0 0 1 6 18)" fill="black"/>
<rect width="6" height="6" transform="matrix(4.37114e-08 -1 -1 -4.37114e-08 24 6)" fill="black"/>
<rect width="6" height="6" transform="matrix(4.37114e-08 -1 -1 -4.37114e-08 24 66)" fill="black"/>
<rect width="6" height="6" transform="matrix(4.37114e-08 -1 -1 -4.37114e-08 30 6)" fill="black"/>
<rect width="6" height="6" transform="matrix(4.37114e-08 -1 -1 -4.37114e-08 30 66)" fill="black"/>
<rect width="6" height="6" transform="matrix(4.37114e-08 -1 -1 -4.37114e-08 36 6)" fill="black"/>
<rect width="6" height="6" transform="matrix(4.37114e-08 -1 -1 -4.37114e-08 36 66)" fill="black"/>
<rect width="6" height="6" transform="matrix(4.37114e-08 -1 -1 -4.37114e-08 42 6)" fill="black"/>
<rect width="6" height="6" transform="matrix(4.37114e-08 -1 -1 -4.37114e-08 42 66)" fill="black"/>
<rect width="6" height="6" transform="matrix(4.37114e-08 -1 -1 -4.37114e-08 48 6)" fill="black"/>
<rect width="6" height="6" transform="matrix(4.37114e-08 -1 -1 -4.37114e-08 48 66)" fill="black"/>
<rect width="6" height="6" transform="matrix(4.37114e-08 -1 -1 -4.37114e-08 54 6)" fill="black"/>
<rect width="6" height="6" transform="matrix(4.37114e-08 -1 -1 -4.37114e-08 54 66)" fill="black"/>
<rect width="6" height="6" transform="matrix(4.37114e-08 -1 -1 -4.37114e-08 84 6)" fill="black"/>
<rect width="6" height="6" transform="matrix(4.37114e-08 -1 -1 -4.37114e-08 84 66)" fill="black"/>
<rect width="6" height="6" transform="matrix(4.37114e-08 -1 -1 -4.37114e-08 144 6)" fill="black"/>
<rect width="6" height="6" transform="matrix(4.37114e-08 -1 -1 -4.37114e-08 144 66)" fill="black"/>
<rect width="6" height="6" transform="matrix(4.37114e-08 -1 -1 -4.37114e-08 114 6)" fill="black"/>
<rect width="6" height="6" transform="matrix(4.37114e-08 -1 -1 -4.37114e-08 114 66)" fill="black"/>
<rect width="6" height="6" transform="matrix(4.37114e-08 -1 -1 -4.37114e-08 174 6)" fill="black"/>
<rect width="6" height="6" transform="matrix(4.37114e-08 -1 -1 -4.37114e-08 174 66)" fill="black"/>
<rect width="6" height="6" transform="matrix(4.37114e-08 -1 -1 -4.37114e-08 60 6)" fill="black"/>
<rect width="6" height="6" transform="matrix(4.37114e-08 -1 -1 -4.37114e-08 60 66)" fill="black"/>
<rect width="6" height="6" transform="matrix(4.37114e-08 -1 -1 -4.37114e-08 90 6)" fill="black"/>
<rect width="6" height="6" transform="matrix(4.37114e-08 -1 -1 -4.37114e-08 90 66)" fill="black"/>
<rect width="6" height="6" transform="matrix(4.37114e-08 -1 -1 -4.37114e-08 150 6)" fill="black"/>
<rect width="6" height="6" transform="matrix(4.37114e-08 -1 -1 -4.37114e-08 150 66)" fill="black"/>
<rect width="6" height="6" transform="matrix(4.37114e-08 -1 -1 -4.37114e-08 120 6)" fill="black"/>
<rect width="6" height="6" transform="matrix(4.37114e-08 -1 -1 -4.37114e-08 120 66)" fill="black"/>
<rect width="6" height="6" transform="matrix(4.37114e-08 -1 -1 -4.37114e-08 180 6)" fill="black"/>
<rect width="6" height="6" transform="matrix(4.37114e-08 -1 -1 -4.37114e-08 180 66)" fill="black"/>
<rect width="6" height="6" transform="matrix(4.37114e-08 -1 -1 -4.37114e-08 204 6)" fill="black"/>
<rect width="6" height="6" transform="matrix(4.37114e-08 -1 -1 -4.37114e-08 204 66)" fill="black"/>
<rect width="6" height="6" transform="matrix(4.37114e-08 -1 -1 -4.37114e-08 66 6)" fill="black"/>
<rect width="6" height="6" transform="matrix(4.37114e-08 -1 -1 -4.37114e-08 66 66)" fill="black"/>
<rect width="6" height="6" transform="matrix(4.37114e-08 -1 -1 -4.37114e-08 96 6)" fill="black"/>
<rect width="6" height="6" transform="matrix(4.37114e-08 -1 -1 -4.37114e-08 96 66)" fill="black"/>
<rect width="6" height="6" transform="matrix(4.37114e-08 -1 -1 -4.37114e-08 156 6)" fill="black"/>
<rect width="6" height="6" transform="matrix(4.37114e-08 -1 -1 -4.37114e-08 156 66)" fill="black"/>
<rect width="6" height="6" transform="matrix(4.37114e-08 -1 -1 -4.37114e-08 126 6)" fill="black"/>
<rect width="6" height="6" transform="matrix(4.37114e-08 -1 -1 -4.37114e-08 126 66)" fill="black"/>
<rect width="6" height="6" transform="matrix(4.37114e-08 -1 -1 -4.37114e-08 186 6)" fill="black"/>
<rect width="6" height="6" transform="matrix(4.37114e-08 -1 -1 -4.37114e-08 186 66)" fill="black"/>
<rect width="6" height="6" transform="matrix(4.37114e-08 -1 -1 -4.37114e-08 210 6)" fill="black"/>
<rect width="6" height="6" transform="matrix(4.37114e-08 -1 -1 -4.37114e-08 228 6)" fill="black"/>
<rect width="6" height="6" transform="matrix(4.37114e-08 -1 -1 -4.37114e-08 210 66)" fill="black"/>
<rect width="6" height="6" transform="matrix(4.37114e-08 -1 -1 -4.37114e-08 228 66)" fill="black"/>
<rect width="6" height="6" transform="matrix(4.37114e-08 -1 -1 -4.37114e-08 72 6)" fill="black"/>
<rect width="6" height="6" transform="matrix(4.37114e-08 -1 -1 -4.37114e-08 72 66)" fill="black"/>
<rect width="6" height="6" transform="matrix(4.37114e-08 -1 -1 -4.37114e-08 102 6)" fill="black"/>
<rect width="6" height="6" transform="matrix(4.37114e-08 -1 -1 -4.37114e-08 102 66)" fill="black"/>
<rect width="6" height="6" transform="matrix(4.37114e-08 -1 -1 -4.37114e-08 162 6)" fill="black"/>
<rect width="6" height="6" transform="matrix(4.37114e-08 -1 -1 -4.37114e-08 162 66)" fill="black"/>
<rect width="6" height="6" transform="matrix(4.37114e-08 -1 -1 -4.37114e-08 132 6)" fill="black"/>
<rect width="6" height="6" transform="matrix(4.37114e-08 -1 -1 -4.37114e-08 132 66)" fill="black"/>
<rect width="6" height="6" transform="matrix(4.37114e-08 -1 -1 -4.37114e-08 192 6)" fill="black"/>
<rect width="6" height="6" transform="matrix(4.37114e-08 -1 -1 -4.37114e-08 192 66)" fill="black"/>
<rect width="6" height="6" transform="matrix(4.37114e-08 -1 -1 -4.37114e-08 216 6)" fill="black"/>
<rect width="6" height="6" transform="matrix(4.37114e-08 -1 -1 -4.37114e-08 234 6)" fill="black"/>
<rect width="6" height="6" transform="matrix(4.37114e-08 -1 -1 -4.37114e-08 216 66)" fill="black"/>
<rect width="6" height="6" transform="matrix(4.37114e-08 -1 -1 -4.37114e-08 234 66)" fill="black"/>
<rect width="6" height="6" transform="matrix(4.37114e-08 -1 -1 -4.37114e-08 78 6)" fill="black"/>
<rect width="6" height="6" transform="matrix(4.37114e-08 -1 -1 -4.37114e-08 78 66)" fill="black"/>
<rect width="6" height="6" transform="matrix(4.37114e-08 -1 -1 -4.37114e-08 108 6)" fill="black"/>
<rect width="6" height="6" transform="matrix(4.37114e-08 -1 -1 -4.37114e-08 108 66)" fill="black"/>
<rect width="6" height="6" transform="matrix(4.37114e-08 -1 -1 -4.37114e-08 168 6)" fill="black"/>
<rect width="6" height="6" transform="matrix(4.37114e-08 -1 -1 -4.37114e-08 168 66)" fill="black"/>
<rect width="6" height="6" transform="matrix(4.37114e-08 -1 -1 -4.37114e-08 138 6)" fill="black"/>
<rect width="6" height="6" transform="matrix(4.37114e-08 -1 -1 -4.37114e-08 138 66)" fill="black"/>
<rect width="6" height="6" transform="matrix(4.37114e-08 -1 -1 -4.37114e-08 198 6)" fill="black"/>
<rect width="6" height="6" transform="matrix(4.37114e-08 -1 -1 -4.37114e-08 198 66)" fill="black"/>
<rect width="6" height="6" transform="matrix(4.37114e-08 -1 -1 -4.37114e-08 222 6)" fill="black"/>
<rect width="6" height="6" transform="matrix(4.37114e-08 -1 -1 -4.37114e-08 240 6)" fill="black"/>
<rect width="6" height="6" transform="matrix(4.37114e-08 -1 -1 -4.37114e-08 222 66)" fill="black"/>
<rect width="6" height="6" transform="matrix(4.37114e-08 -1 -1 -4.37114e-08 240 66)" fill="black"/>
<rect x="6" y="12" width="6" height="6" fill="black"/>
<rect width="6" height="6" transform="matrix(-1 0 0 1 18 54)" fill="black"/>
<rect width="6" height="6" transform="matrix(-1 0 0 1 246 6)" fill="black"/>
<rect x="246" y="48" width="6" height="6" fill="black"/>
<rect x="252" y="42" width="6" height="6" fill="black"/>
<rect x="252" y="36" width="6" height="6" fill="black"/>
<rect x="252" y="30" width="6" height="6" fill="black"/>
<rect x="252" y="24" width="6" height="6" fill="black"/>
<rect x="252" y="18" width="6" height="6" fill="black"/>
<rect width="6" height="6" transform="matrix(-1 0 0 1 252 12)" fill="black"/>
<rect x="240" y="54" width="6" height="6" fill="black"/>
</svg>
