<svg width="129" height="472" viewBox="0 0 129 472" fill="none" xmlns="http://www.w3.org/2000/svg">
<rect x="117.025" y="21.4551" width="13.6529" height="11.7025" transform="rotate(90 117.025 21.4551)" fill="#D9D9D9"/>
<rect width="9.75207" height="11.7025" transform="matrix(6.86377e-08 -1 -1 -2.78373e-08 35.1084 21.4551)" fill="#D9D9D9"/>
<rect width="11.7025" height="11.7025" transform="matrix(6.86377e-08 -1 -1 -2.78373e-08 46.8105 11.7026)" fill="#D9D9D9"/>
<rect width="11.7025" height="11.7025" transform="matrix(6.86377e-08 -1 -1 -2.78373e-08 58.5127 11.7031)" fill="#D9D9D9"/>
<rect width="11.7025" height="11.7025" transform="matrix(6.86377e-08 -1 -1 -2.78373e-08 70.2153 11.7031)" fill="#D9D9D9"/>
<rect width="11.7025" height="11.7025" transform="matrix(6.86377e-08 -1 -1 -2.78373e-08 81.918 11.7026)" fill="#D9D9D9"/>
<rect width="11.7025" height="11.7025" transform="matrix(6.86377e-08 -1 -1 -2.78373e-08 93.6206 11.7031)" fill="#D9D9D9"/>
<rect width="11.7025" height="9.75207" transform="matrix(1 6.86796e-08 1.1542e-07 -1 117.025 44.8594)" fill="#D9D9D9"/>
<rect width="11.7025" height="9.75207" transform="matrix(1 6.86796e-08 1.1542e-07 -1 0.000488281 44.8594)" fill="#D9D9D9"/>
<rect width="11.7025" height="9.75207" transform="matrix(1 6.86796e-08 1.1542e-07 -1 117.025 54.6113)" fill="#D9D9D9"/>
<rect width="11.7025" height="9.75207" transform="matrix(1 6.86796e-08 1.1542e-07 -1 0.000488281 54.6123)" fill="#D9D9D9"/>
<rect width="11.7025" height="11.7025" transform="matrix(1 6.86796e-08 1.1542e-07 -1 117.025 66.3145)" fill="#D9D9D9"/>
<rect width="11.7025" height="11.7025" transform="matrix(1 6.86796e-08 1.1542e-07 -1 0.000488281 66.3145)" fill="#D9D9D9"/>
<rect width="11.7025" height="9.75207" transform="matrix(1 6.86796e-08 1.1542e-07 -1 117.025 76.0664)" fill="#D9D9D9"/>
<rect width="11.7025" height="9.75207" transform="matrix(1 6.86796e-08 1.1542e-07 -1 0.000488281 76.0664)" fill="#D9D9D9"/>
<rect width="11.7025" height="13.6529" transform="matrix(1 6.86796e-08 1.1542e-07 -1 117.025 89.7188)" fill="#D9D9D9"/>
<rect width="11.7025" height="13.6529" transform="matrix(1 6.86796e-08 1.1542e-07 -1 0.000488281 89.7197)" fill="#D9D9D9"/>
<rect width="11.7025" height="9.75207" transform="matrix(1 6.86796e-08 1.1542e-07 -1 117.025 99.4707)" fill="#D9D9D9"/>
<rect width="11.7025" height="9.75207" transform="matrix(1 6.86796e-08 1.1542e-07 -1 0.000488281 99.4717)" fill="#D9D9D9"/>
<rect width="11.7025" height="11.7025" transform="matrix(1 6.86796e-08 1.1542e-07 -1 117.025 154.083)" fill="#D9D9D9"/>
<rect width="11.7025" height="11.7025" transform="matrix(1 6.86796e-08 1.1542e-07 -1 0.000488281 154.083)" fill="#D9D9D9"/>
<rect width="11.7025" height="11.7025" transform="matrix(1 6.86796e-08 1.1542e-07 -1 117.025 263.306)" fill="#D9D9D9"/>
<rect width="11.7025" height="11.7025" transform="matrix(1 6.86796e-08 1.1542e-07 -1 0.000488281 263.306)" fill="#D9D9D9"/>
<rect width="11.7025" height="9.75207" transform="matrix(1 6.86796e-08 1.1542e-07 -1 117.025 208.694)" fill="#D9D9D9"/>
<rect width="11.7025" height="9.75207" transform="matrix(1 6.86796e-08 1.1542e-07 -1 0.000488281 208.694)" fill="#D9D9D9"/>
<rect width="11.7025" height="9.75207" transform="matrix(1 6.86796e-08 1.1542e-07 -1 117.025 317.917)" fill="#D9D9D9"/>
<rect width="11.7025" height="9.75207" transform="matrix(1 6.86796e-08 1.1542e-07 -1 0.000488281 317.918)" fill="#D9D9D9"/>
<rect width="11.7025" height="11.7025" transform="matrix(1 6.86796e-08 1.1542e-07 -1 117.025 111.174)" fill="#D9D9D9"/>
<rect width="11.7025" height="11.7025" transform="matrix(1 6.86796e-08 1.1542e-07 -1 0.000488281 111.174)" fill="#D9D9D9"/>
<rect width="11.7025" height="9.75207" transform="matrix(1 6.86796e-08 1.1542e-07 -1 117.025 163.835)" fill="#D9D9D9"/>
<rect width="11.7025" height="9.75207" transform="matrix(1 6.86796e-08 1.1542e-07 -1 0.000488281 163.835)" fill="#D9D9D9"/>
<rect width="11.7025" height="9.75207" transform="matrix(1 6.86796e-08 1.1542e-07 -1 117.025 273.058)" fill="#D9D9D9"/>
<rect width="11.7025" height="9.75207" transform="matrix(1 6.86796e-08 1.1542e-07 -1 0.000488281 273.059)" fill="#D9D9D9"/>
<rect width="11.7025" height="11.7025" transform="matrix(1 6.86796e-08 1.1542e-07 -1 117.025 220.396)" fill="#D9D9D9"/>
<rect width="11.7025" height="11.7025" transform="matrix(1 6.86796e-08 1.1542e-07 -1 0.000488281 220.396)" fill="#D9D9D9"/>
<rect width="11.7025" height="11.7025" transform="matrix(1 6.86796e-08 1.1542e-07 -1 117.025 329.62)" fill="#D9D9D9"/>
<rect width="11.7025" height="11.7025" transform="matrix(1 6.86796e-08 1.1542e-07 -1 0.000488281 329.62)" fill="#D9D9D9"/>
<rect width="11.7025" height="11.7025" transform="matrix(1 6.86796e-08 1.1542e-07 -1 117.025 372.529)" fill="#D9D9D9"/>
<rect width="11.7025" height="11.7025" transform="matrix(1 6.86796e-08 1.1542e-07 -1 0.000488281 372.529)" fill="#D9D9D9"/>
<rect width="11.7025" height="9.75207" transform="matrix(1 6.86796e-08 1.1542e-07 -1 117.025 120.926)" fill="#D9D9D9"/>
<rect width="11.7025" height="9.75207" transform="matrix(1 6.86796e-08 1.1542e-07 -1 0.000488281 120.926)" fill="#D9D9D9"/>
<rect width="11.7025" height="11.7025" transform="matrix(1 6.86796e-08 1.1542e-07 -1 117.025 175.537)" fill="#D9D9D9"/>
<rect width="11.7025" height="11.7025" transform="matrix(1 6.86796e-08 1.1542e-07 -1 0.000488281 175.537)" fill="#D9D9D9"/>
<rect width="11.7025" height="11.7025" transform="matrix(1 6.86796e-08 1.1542e-07 -1 117.025 284.761)" fill="#D9D9D9"/>
<rect width="11.7025" height="11.7025" transform="matrix(1 6.86796e-08 1.1542e-07 -1 0.000488281 284.761)" fill="#D9D9D9"/>
<rect width="11.7025" height="11.7025" transform="matrix(1 6.86796e-08 1.1542e-07 -1 117.025 232.1)" fill="#D9D9D9"/>
<rect width="11.7025" height="11.7025" transform="matrix(1 6.86796e-08 1.1542e-07 -1 0.000976562 232.1)" fill="#D9D9D9"/>
<rect width="11.7025" height="9.75207" transform="matrix(1 6.86796e-08 1.1542e-07 -1 117.025 339.372)" fill="#D9D9D9"/>
<rect width="11.7025" height="9.75207" transform="matrix(1 6.86796e-08 1.1542e-07 -1 0.000488281 339.372)" fill="#D9D9D9"/>
<rect width="11.7025" height="9.75207" transform="matrix(1 6.86796e-08 1.1542e-07 -1 117.025 382.281)" fill="#D9D9D9"/>
<rect width="11.7025" height="11.7025" transform="matrix(1 6.86796e-08 1.1542e-07 -1 117.025 417.389)" fill="#D9D9D9"/>
<rect width="11.7025" height="9.75207" transform="matrix(1 6.86796e-08 1.1542e-07 -1 0.000488281 382.281)" fill="#D9D9D9"/>
<rect width="11.7025" height="11.7025" transform="matrix(1 6.86796e-08 1.1542e-07 -1 0.000488281 417.389)" fill="#D9D9D9"/>
<rect width="11.7025" height="11.7025" transform="matrix(1 6.86796e-08 1.1542e-07 -1 117.025 132.628)" fill="#D9D9D9"/>
<rect width="11.7025" height="11.7025" transform="matrix(1 6.86796e-08 1.1542e-07 -1 0.000488281 132.628)" fill="#D9D9D9"/>
<rect width="11.7025" height="11.7025" transform="matrix(1 6.86796e-08 1.1542e-07 -1 117.025 187.24)" fill="#D9D9D9"/>
<rect width="11.7025" height="11.7025" transform="matrix(1 6.86796e-08 1.1542e-07 -1 0.000976562 187.24)" fill="#D9D9D9"/>
<rect width="11.7025" height="11.7025" transform="matrix(1 6.86796e-08 1.1542e-07 -1 117.025 296.463)" fill="#D9D9D9"/>
<rect width="11.7025" height="11.7025" transform="matrix(1 6.86796e-08 1.1542e-07 -1 0.000976562 296.463)" fill="#D9D9D9"/>
<rect width="11.7025" height="7.80165" transform="matrix(1 6.86796e-08 1.1542e-07 -1 117.025 239.901)" fill="#D9D9D9"/>
<rect width="11.7025" height="7.80165" transform="matrix(1 6.86796e-08 1.1542e-07 -1 0.000976562 239.901)" fill="#D9D9D9"/>
<rect width="11.7025" height="11.7025" transform="matrix(1 6.86796e-08 1.1542e-07 -1 117.025 351.074)" fill="#D9D9D9"/>
<rect width="11.7025" height="11.7025" transform="matrix(1 6.86796e-08 1.1542e-07 -1 0.000488281 351.074)" fill="#D9D9D9"/>
<rect width="11.7025" height="13.6529" transform="matrix(1 6.86796e-08 1.1542e-07 -1 117.025 395.934)" fill="#D9D9D9"/>
<rect width="11.7025" height="9.75207" transform="matrix(1 6.86796e-08 1.1542e-07 -1 117.025 427.141)" fill="#D9D9D9"/>
<rect width="11.7025" height="13.6529" transform="matrix(1 6.86796e-08 1.1542e-07 -1 0.000488281 395.935)" fill="#D9D9D9"/>
<rect width="11.7025" height="9.75207" transform="matrix(1 6.86796e-08 1.1542e-07 -1 0.000488281 427.141)" fill="#D9D9D9"/>
<rect width="11.7025" height="9.75207" transform="matrix(1 6.86796e-08 1.1542e-07 -1 117.025 142.38)" fill="#D9D9D9"/>
<rect width="11.7025" height="9.75207" transform="matrix(1 6.86796e-08 1.1542e-07 -1 0.000488281 142.381)" fill="#D9D9D9"/>
<rect width="11.7025" height="11.7025" transform="matrix(1 6.86796e-08 1.1542e-07 -1 117.025 198.942)" fill="#D9D9D9"/>
<rect width="11.7025" height="11.7025" transform="matrix(1 6.86796e-08 1.1542e-07 -1 0.000488281 198.942)" fill="#D9D9D9"/>
<rect width="11.7025" height="11.7025" transform="matrix(1 6.86796e-08 1.1542e-07 -1 117.025 308.165)" fill="#D9D9D9"/>
<rect width="11.7025" height="11.7025" transform="matrix(1 6.86796e-08 1.1542e-07 -1 0.000488281 308.166)" fill="#D9D9D9"/>
<rect width="11.7025" height="11.7025" transform="matrix(1 6.86796e-08 1.1542e-07 -1 117.025 251.604)" fill="#D9D9D9"/>
<rect width="11.7025" height="11.7025" transform="matrix(1 6.86796e-08 1.1542e-07 -1 0.000488281 251.604)" fill="#D9D9D9"/>
<rect width="11.7025" height="9.75207" transform="matrix(1 6.86796e-08 1.1542e-07 -1 117.025 360.826)" fill="#D9D9D9"/>
<rect width="11.7025" height="9.75207" transform="matrix(1 6.86796e-08 1.1542e-07 -1 0.000488281 360.827)" fill="#D9D9D9"/>
<rect width="11.7025" height="9.75207" transform="matrix(1 6.86796e-08 1.1542e-07 -1 117.025 405.686)" fill="#D9D9D9"/>
<rect width="11.7025" height="9.75207" transform="matrix(1 6.86796e-08 1.1542e-07 -1 117.025 436.893)" fill="#D9D9D9"/>
<rect width="11.7025" height="9.75207" transform="matrix(1 6.86796e-08 1.1542e-07 -1 0.000488281 405.687)" fill="#D9D9D9"/>
<rect width="11.7025" height="9.75207" transform="matrix(1 6.86796e-08 1.1542e-07 -1 0.000976562 436.893)" fill="#D9D9D9"/>
<rect x="105.323" y="11.7031" width="9.75207" height="11.7025" transform="rotate(90 105.323 11.7031)" fill="#D9D9D9"/>
<rect width="13.6529" height="11.7025" transform="matrix(6.86377e-08 -1 -1 -2.78373e-08 23.4058 35.1074)" fill="#D9D9D9"/>
<rect width="13.6529" height="11.7025" transform="matrix(6.86377e-08 -1 -1 -2.78373e-08 117.025 450.546)" fill="#D9D9D9"/>
<rect x="35.1084" y="450.546" width="9.75207" height="11.7025" transform="rotate(90 35.1084 450.546)" fill="#D9D9D9"/>
<rect x="46.8105" y="460.298" width="11.7025" height="11.7025" transform="rotate(90 46.8105 460.298)" fill="#D9D9D9"/>
<rect x="58.5132" y="460.298" width="11.7025" height="11.7025" transform="rotate(90 58.5132 460.298)" fill="#D9D9D9"/>
<rect x="70.2153" y="460.298" width="11.7025" height="11.7025" transform="rotate(90 70.2153 460.298)" fill="#D9D9D9"/>
<rect x="81.918" y="460.298" width="11.7025" height="11.7025" transform="rotate(90 81.918 460.298)" fill="#D9D9D9"/>
<rect x="93.6206" y="460.298" width="11.7025" height="11.7025" transform="rotate(90 93.6206 460.298)" fill="#D9D9D9"/>
<rect width="9.75207" height="11.7025" transform="matrix(6.86377e-08 -1 -1 -2.78373e-08 105.323 460.298)" fill="#D9D9D9"/>
<rect x="23.4058" y="436.893" width="13.6529" height="11.7025" transform="rotate(90 23.4058 436.893)" fill="#D9D9D9"/>
</svg>
