<svg width="116" height="116" viewBox="0 0 116 116" fill="none" xmlns="http://www.w3.org/2000/svg">
<rect x="38.6665" y="7.7334" width="7.73333" height="7.73333" fill="#D9D9D9"/>
<rect width="7.73333" height="7.73333" transform="matrix(1 0 0 -1 38.6665 108.267)" fill="#D9D9D9"/>
<rect x="30.9331" y="15.4668" width="7.73333" height="7.73333" fill="#D9D9D9"/>
<rect width="7.73333" height="7.73333" transform="matrix(1 0 0 -1 30.9331 100.533)" fill="#D9D9D9"/>
<rect x="23.2002" y="23.2002" width="7.73333" height="7.73333" fill="#D9D9D9"/>
<rect width="7.73333" height="7.73333" transform="matrix(1 0 0 -1 23.2002 92.7998)" fill="#D9D9D9"/>
<rect x="100.533" y="30.9336" width="7.73333" height="7.73333" fill="#D9D9D9"/>
<rect width="7.73333" height="7.73333" transform="matrix(1 0 0 -1 100.533 85.0664)" fill="#8F8F8F"/>
<rect x="85.0669" y="15.4668" width="7.73333" height="7.73333" fill="#D9D9D9"/>
<rect width="7.73333" height="7.73333" transform="matrix(1 0 0 -1 85.0669 100.533)" fill="#D9D9D9"/>
<rect x="7.7334" y="30.9336" width="7.73333" height="7.73333" fill="#D9D9D9"/>
<rect width="7.73333" height="7.73333" transform="matrix(1 0 0 -1 7.7334 85.0664)" fill="#D9D9D9"/>
<rect x="7.7334" y="38.667" width="7.73333" height="7.73333" fill="#D9D9D9"/>
<rect x="7.7334" y="46.4004" width="7.73333" height="7.73333" fill="#D9D9D9"/>
<rect x="7.7334" y="61.8662" width="7.73333" height="7.73333" fill="#D9D9D9"/>
<rect x="7.7334" y="54.1338" width="7.73333" height="7.73333" fill="#D9D9D9"/>
<rect x="7.7334" y="69.5996" width="7.73333" height="7.73333" fill="#D9D9D9"/>
<rect x="100.533" y="38.667" width="7.73333" height="7.73333" fill="#D9D9D9"/>
<rect x="100.533" y="46.4004" width="7.73333" height="7.73333" fill="#D9D9D9"/>
<rect x="100.533" y="61.8662" width="7.73333" height="7.73333" fill="#D9D9D9"/>
<rect x="100.533" y="54.1338" width="7.73333" height="7.73333" fill="#D9D9D9"/>
<rect x="100.533" y="69.5996" width="7.73333" height="7.73333" fill="#D9D9D9"/>
<rect x="85.0669" y="23.2002" width="7.73333" height="7.73333" fill="#D9D9D9"/>
<rect width="7.73333" height="7.73333" transform="matrix(1 0 0 -1 85.0669 92.7998)" fill="#D9D9D9"/>
<rect x="69.6001" y="15.4668" width="7.73333" height="7.73333" fill="#FF8C53"/>
<rect width="7.73333" height="7.73333" transform="matrix(1 0 0 -1 69.6001 100.533)" fill="#D9D9D9"/>
<rect x="77.3335" y="7.7334" width="7.73333" height="7.73333" fill="#D9D9D9"/>
<rect width="7.73333" height="7.73333" transform="matrix(1 0 0 -1 77.3335 108.267)" fill="#8F8F8F"/>
<rect x="46.3999" y="7.7334" width="7.73333" height="7.73333" fill="#D9D9D9"/>
<rect x="46.3999" y="15.4668" width="7.73333" height="7.73333" fill="#FF8C53"/>
<rect x="46.3999" y="23.2002" width="7.73333" height="7.73333" fill="#E6E7E9"/>
<rect x="46.3999" y="92.7998" width="7.73333" height="7.73333" fill="#FF4E00"/>
<rect x="46.3999" y="69.5996" width="7.73333" height="7.73333" fill="#FC1817"/>
<rect x="69.6001" y="69.5996" width="7.73333" height="7.73333" fill="#FC1817"/>
<rect x="23.2002" y="69.5996" width="7.73333" height="7.73333" fill="#FC1817"/>
<rect x="15.4668" y="69.5996" width="7.73333" height="7.73333" fill="#FC1817"/>
<rect x="92.7998" y="69.5996" width="7.73333" height="7.73333" fill="#FF4E00"/>
<rect x="46.3999" y="46.4004" width="7.73333" height="7.73333" fill="#FC1817"/>
<rect x="69.6001" y="46.4004" width="7.73333" height="7.73333" fill="#FC1817"/>
<rect x="23.2002" y="46.4004" width="7.73333" height="7.73333" fill="#FC1817"/>
<rect x="15.4668" y="46.4004" width="7.73333" height="7.73333" fill="#FF8C53"/>
<rect x="92.7998" y="46.4004" width="7.73333" height="7.73333" fill="#FC1817"/>
<rect x="46.3999" y="85.0664" width="7.73333" height="7.73333" fill="#FC1817"/>
<rect x="46.3999" y="61.8662" width="7.73333" height="7.73333" fill="#FC1817"/>
<rect x="69.6001" y="61.8662" width="7.73333" height="7.73333" fill="#FC1817"/>
<rect x="23.2002" y="61.8662" width="7.73333" height="7.73333" fill="#FC1817"/>
<rect x="15.4668" y="61.8662" width="7.73333" height="7.73333" fill="#FC1817"/>
<rect x="92.7998" y="61.8662" width="7.73333" height="7.73333" fill="#FF4E00"/>
<rect x="46.3999" y="38.667" width="7.73333" height="7.73333" fill="#FC1817"/>
<rect x="69.6001" y="38.667" width="7.73333" height="7.73333" fill="#FC1817"/>
<rect x="69.6001" y="30.9336" width="7.73333" height="7.73333" fill="#FC1817"/>
<rect x="30.9331" y="30.9336" width="7.73333" height="7.73333" fill="#E6E7E9"/>
<rect x="69.6001" y="23.2002" width="7.73333" height="7.73333" fill="#FF8C53"/>
<rect x="30.9331" y="23.2002" width="7.73333" height="7.73333" fill="#FF8C53"/>
<rect x="23.2002" y="38.667" width="7.73333" height="7.73333" fill="#FF8C53"/>
<rect x="23.2002" y="30.9336" width="7.73333" height="7.73333" fill="#FF8C53"/>
<rect x="15.4668" y="38.667" width="7.73333" height="7.73333" fill="#FF8C53"/>
<rect x="92.7998" y="38.667" width="7.73333" height="7.73333" fill="#FC1817"/>
<rect x="46.3999" y="77.333" width="7.73333" height="7.73333" fill="#FC1817"/>
<rect x="46.3999" y="54.1338" width="7.73333" height="7.73333" fill="#FC1817"/>
<rect x="69.6001" y="54.1338" width="7.73333" height="7.73333" fill="#FC1817"/>
<rect x="23.2002" y="54.1338" width="7.73333" height="7.73333" fill="#FC1817"/>
<rect x="15.4668" y="54.1338" width="7.73333" height="7.73333" fill="#FF8C53"/>
<rect x="92.7998" y="54.1338" width="7.73333" height="7.73333" fill="#FC1817"/>
<rect x="46.3999" y="30.9336" width="7.73333" height="7.73333" fill="#FC1817"/>
<rect width="7.73333" height="7.73333" transform="matrix(1 0 0 -1 46.3999 108.267)" fill="#D9D9D9"/>
<rect x="38.6665" y="15.4668" width="7.73333" height="7.73333" fill="#FF8C53"/>
<rect width="7.73333" height="7.73333" transform="matrix(1 0 0 -1 38.6665 100.533)" fill="#D9D9D9"/>
<rect x="30.9331" y="7.7334" width="7.73333" height="7.73333" fill="#D9D9D9"/>
<rect width="7.73333" height="7.73333" transform="matrix(1 0 0 -1 30.9331 108.267)" fill="#D9D9D9"/>
<rect x="23.2002" y="15.4668" width="7.73333" height="7.73333" fill="#D9D9D9"/>
<rect width="7.73333" height="7.73333" transform="matrix(1 0 0 -1 23.2002 100.533)" fill="#D9D9D9"/>
<rect x="15.4668" y="23.2002" width="7.73333" height="7.73333" fill="#D9D9D9"/>
<rect width="7.73333" height="7.73333" transform="matrix(1 0 0 -1 15.4668 92.7998)" fill="#D9D9D9"/>
<rect x="15.4668" y="30.9336" width="7.73333" height="7.73333" fill="#D9D9D9"/>
<rect width="7.73333" height="7.73333" transform="matrix(1 0 0 -1 15.4668 85.0664)" fill="#D9D9D9"/>
<rect x="92.7998" y="23.2002" width="7.73333" height="7.73333" fill="#D9D9D9"/>
<rect width="7.73333" height="7.73333" transform="matrix(1 0 0 -1 92.7998 92.7998)" fill="#D9D9D9"/>
<rect x="92.7998" y="30.9336" width="7.73333" height="7.73333" fill="#D9D9D9"/>
<rect width="7.73333" height="7.73333" transform="matrix(1 0 0 -1 92.7998 85.0664)" fill="#D9D9D9"/>
<rect x="77.3335" y="15.4668" width="7.73333" height="7.73333" fill="#D9D9D9"/>
<rect width="7.73333" height="7.73333" transform="matrix(1 0 0 -1 77.3335 100.533)" fill="#D9D9D9"/>
<rect x="61.8667" y="7.7334" width="7.73333" height="7.73333" fill="#D9D9D9"/>
<rect x="61.8667" y="15.4668" width="7.73333" height="7.73333" fill="#FF8C53"/>
<rect x="61.8667" y="23.2002" width="7.73333" height="7.73333" fill="#FC1817"/>
<rect x="61.8667" y="92.7998" width="7.73333" height="7.73333" fill="#FF4E00"/>
<rect x="61.8667" y="69.5996" width="7.73333" height="7.73333" fill="#FC1817"/>
<rect x="85.0669" y="69.5996" width="7.73333" height="7.73333" fill="#FC1817"/>
<rect x="85.0669" y="77.333" width="7.73333" height="7.73333" fill="#FF4E00"/>
<rect x="23.2002" y="77.333" width="7.73333" height="7.73333" fill="#FF4E00"/>
<rect x="38.6665" y="69.5996" width="7.73333" height="7.73333" fill="#FC1817"/>
<rect x="38.6665" y="85.0664" width="7.73333" height="7.73333" fill="#FF4E00"/>
<rect x="61.8667" y="46.4004" width="7.73333" height="7.73333" fill="#FC1817"/>
<rect x="85.0669" y="46.4004" width="7.73333" height="7.73333" fill="#FC1817"/>
<rect x="38.6665" y="46.4004" width="7.73333" height="7.73333" fill="#FC1817"/>
<rect x="61.8667" y="85.0664" width="7.73333" height="7.73333" fill="#FC1817"/>
<rect x="77.3335" y="85.0664" width="7.73333" height="7.73333" fill="#FF4E00"/>
<rect x="61.8667" y="61.8662" width="7.73333" height="7.73333" fill="#FC1817"/>
<rect x="85.0669" y="61.8662" width="7.73333" height="7.73333" fill="#FC1817"/>
<rect x="38.6665" y="61.8662" width="7.73333" height="7.73333" fill="#FC1817"/>
<rect x="38.6665" y="77.333" width="7.73333" height="7.73333" fill="#FC1817"/>
<rect x="61.8667" y="38.667" width="7.73333" height="7.73333" fill="#FC1817"/>
<rect x="85.0669" y="38.667" width="7.73333" height="7.73333" fill="#FC1817"/>
<rect x="38.6665" y="38.667" width="7.73333" height="7.73333" fill="#FC1817"/>
<rect x="61.8667" y="77.333" width="7.73333" height="7.73333" fill="#FC1817"/>
<rect x="77.3335" y="77.333" width="7.73333" height="7.73333" fill="#FC1817"/>
<rect x="61.8667" y="54.1338" width="7.73333" height="7.73333" fill="#FC1817"/>
<rect x="85.0669" y="54.1338" width="7.73333" height="7.73333" fill="#FC1817"/>
<rect x="38.6665" y="54.1338" width="7.73333" height="7.73333" fill="#FC1817"/>
<rect x="61.8667" y="30.9336" width="7.73333" height="7.73333" fill="#FC1817"/>
<rect width="7.73333" height="7.73333" transform="matrix(1 0 0 -1 61.8667 108.267)" fill="#D9D9D9"/>
<rect x="54.1333" y="7.7334" width="7.73333" height="7.73333" fill="#D9D9D9"/>
<rect x="54.1333" y="15.4668" width="7.73333" height="7.73333" fill="#FF8C53"/>
<rect x="54.1333" y="23.2002" width="7.73333" height="7.73333" fill="#FC1817"/>
<rect x="54.1333" y="92.7998" width="7.73333" height="7.73333" fill="#FF4E00"/>
<rect x="54.1333" y="69.5996" width="7.73333" height="7.73333" fill="#FC1817"/>
<rect x="77.3335" y="69.5996" width="7.73333" height="7.73333" fill="#FC1817"/>
<rect x="30.9331" y="69.5996" width="7.73333" height="7.73333" fill="#FC1817"/>
<rect x="30.9331" y="85.0664" width="7.73333" height="7.73333" fill="#FF4E00"/>
<rect x="54.1333" y="46.4004" width="7.73333" height="7.73333" fill="#FC1817"/>
<rect x="77.3335" y="46.4004" width="7.73333" height="7.73333" fill="#FC1817"/>
<rect x="30.9331" y="46.4004" width="7.73333" height="7.73333" fill="#FC1817"/>
<rect x="54.1333" y="85.0664" width="7.73333" height="7.73333" fill="#FC1817"/>
<rect x="69.6001" y="85.0664" width="7.73333" height="7.73333" fill="#FF4E00"/>
<rect x="54.1333" y="61.8662" width="7.73333" height="7.73333" fill="#FC1817"/>
<rect x="77.3335" y="61.8662" width="7.73333" height="7.73333" fill="#FC1817"/>
<rect x="30.9331" y="61.8662" width="7.73333" height="7.73333" fill="#FC1817"/>
<rect x="30.9331" y="77.333" width="7.73333" height="7.73333" fill="#FC1817"/>
<rect x="54.1333" y="38.667" width="7.73333" height="7.73333" fill="#FC1817"/>
<rect x="77.3335" y="38.667" width="7.73333" height="7.73333" fill="#FC1817"/>
<rect x="77.3335" y="30.9336" width="7.73333" height="7.73333" fill="#FC1817"/>
<rect x="85.0669" y="30.9336" width="7.73333" height="7.73333" fill="#FF8C53"/>
<rect x="38.6665" y="30.9336" width="7.73333" height="7.73333" fill="#FC1817"/>
<rect x="77.3335" y="23.2002" width="7.73333" height="7.73333" fill="#FF8C53"/>
<rect x="38.6665" y="23.2002" width="7.73333" height="7.73333" fill="#E6E7E9"/>
<rect x="30.9331" y="38.667" width="7.73333" height="7.73333" fill="#FC1817"/>
<rect x="54.1333" y="77.333" width="7.73333" height="7.73333" fill="#FC1817"/>
<rect x="69.6001" y="77.333" width="7.73333" height="7.73333" fill="#FC1817"/>
<rect x="54.1333" y="54.1338" width="7.73333" height="7.73333" fill="#FC1817"/>
<rect x="77.3335" y="54.1338" width="7.73333" height="7.73333" fill="#FC1817"/>
<rect x="30.9331" y="54.1338" width="7.73333" height="7.73333" fill="#FC1817"/>
<rect x="54.1333" y="30.9336" width="7.73333" height="7.73333" fill="#FC1817"/>
<rect width="7.73333" height="7.73333" transform="matrix(1 0 0 -1 54.1333 108.267)" fill="#D9D9D9"/>
<rect x="69.6001" y="7.7334" width="7.73333" height="7.73333" fill="#D9D9D9"/>
<rect width="7.73333" height="7.73333" transform="matrix(1 0 0 -1 69.6001 108.267)" fill="#D9D9D9"/>
</svg>
