<svg width="267" height="66" viewBox="0 0 267 66" fill="none" xmlns="http://www.w3.org/2000/svg">
<g clip-path="url(#clip0_268_588)">
<path d="M78.833 65.8604L78.833 59.873L83.8224 59.873L83.8224 65.8604L78.833 65.8604Z" fill="#471617"/>
<path d="M111.964 65.8604L111.964 59.873L116.954 59.873L116.954 65.8604L111.964 65.8604Z" fill="#471617"/>
<path d="M78.8325 5.98733L78.8325 0L83.822 7.93975e-07L83.822 5.98733L78.8325 5.98733Z" fill="#471617"/>
<path d="M111.964 5.98733L111.964 0L116.953 7.93975e-07L116.953 5.98733L111.964 5.98733Z" fill="#471617"/>
<path d="M89.7905 65.8604L89.7905 59.873L95.7779 59.873L95.7779 65.8604L89.7905 65.8604Z" fill="#471617"/>
<path d="M122.922 65.8604L122.922 59.873L128.909 59.873L128.909 65.8604L122.922 65.8604Z" fill="#471617"/>
<path d="M89.7905 5.98733L89.7905 0L95.7779 9.52771e-07L95.7779 5.98733L89.7905 5.98733Z" fill="#471617"/>
<path d="M122.922 5.98733L122.922 0L128.909 9.52771e-07L128.909 5.98733L122.922 5.98733Z" fill="#471617"/>
<path d="M72.8457 65.8604L72.8457 59.873L78.833 59.873L78.833 65.8604L72.8457 65.8604Z" fill="#471617"/>
<path d="M105.977 65.8604L105.977 59.873L111.964 59.873L111.964 65.8604L105.977 65.8604Z" fill="#471617"/>
<path d="M72.8457 5.98733L72.8457 0L78.833 9.52771e-07L78.833 5.98733L72.8457 5.98733Z" fill="#471617"/>
<path d="M105.977 5.98733L105.977 0L111.964 9.52771e-07L111.964 5.98733L105.977 5.98733Z" fill="#471617"/>
<path d="M50.8926 65.8604L50.8926 59.873L56.8799 59.873L56.8799 65.8604L50.8926 65.8604Z" fill="#471617"/>
<path d="M50.8926 5.98733L50.8926 0L56.8799 9.52771e-07L56.8799 5.98733L50.8926 5.98733Z" fill="#471617"/>
<path d="M67.8564 65.8604L67.8564 59.873L72.8459 59.873L72.8459 65.8604L67.8564 65.8604Z" fill="#471617"/>
<path d="M100.988 65.8604L100.988 59.873L105.977 59.873L105.977 65.8604L100.988 65.8604Z" fill="#471617"/>
<path d="M67.8564 5.98733L67.8564 0L72.8459 7.93975e-07L72.8459 5.98733L67.8564 5.98733Z" fill="#471617"/>
<path d="M100.988 5.98733L100.988 0L105.977 7.93975e-07L105.977 5.98733L100.988 5.98733Z" fill="#471617"/>
<path d="M45.9028 65.8604L45.9028 59.873L50.8923 59.873L50.8923 65.8604L45.9028 65.8604Z" fill="#471617"/>
<path d="M27.9404 65.8604L27.9404 59.873L33.9278 59.873L33.9278 65.8604L27.9404 65.8604Z" fill="#471617"/>
<path d="M45.9028 5.98733L45.9028 0L50.8923 7.93975e-07L50.8923 5.98733L45.9028 5.98733Z" fill="#471617"/>
<path d="M27.9404 5.98733L27.9404 0L33.9278 9.52771e-07L33.9278 5.98733L27.9404 5.98733Z" fill="#471617"/>
<path d="M61.8687 65.8604L61.8687 59.873L67.856 59.873L67.856 65.8604L61.8687 65.8604Z" fill="#471617"/>
<path d="M95 65.8604L95 59.873L100.987 59.873L100.987 65.8604L95 65.8604Z" fill="#471617"/>
<path d="M61.8691 5.98733L61.8691 0L67.8565 9.52771e-07L67.8565 5.98733L61.8691 5.98733Z" fill="#471617"/>
<path d="M95.0005 5.98733L95.0005 0L100.988 9.52771e-07L100.988 5.98733L95.0005 5.98733Z" fill="#471617"/>
<path d="M38.9175 65.8604L38.9175 59.873L45.9027 59.873L45.9027 65.8604L38.9175 65.8604Z" fill="#471617"/>
<path d="M22.9512 65.8604L22.9512 59.873L27.9406 59.873L27.9406 65.8604L22.9512 65.8604Z" fill="#471617"/>
<path d="M38.917 5.98733L38.917 0L45.9022 1.11157e-06L45.9022 5.98733L38.917 5.98733Z" fill="#471617"/>
<path d="M18 60L18 6L249 6.00004L249 60L18 60Z" fill="#FF4E00"/>
<path d="M256 54L256 12L249 12L249 54L256 54Z" fill="#FF4E00"/>
<path d="M261 48L261 18L254 18L254 48L261 48Z" fill="#FF4E00"/>
<path d="M11 54L11 12L18 12L18 54L11 54Z" fill="#FF4E00"/>
<path d="M6 48L6 18L13 18L13 48L6 48Z" fill="#FF4E00"/>
<path d="M22.9512 5.98733L22.9512 0L27.9406 7.93975e-07L27.9406 5.98733L22.9512 5.98733Z" fill="#471617"/>
<path d="M83.8223 65.8604L83.8223 59.873L89.8096 59.873L89.8096 65.8604L83.8223 65.8604Z" fill="#471617"/>
<path d="M116.954 65.8604L116.954 59.873L122.941 59.873L122.941 65.8604L116.954 65.8604Z" fill="#471617"/>
<path d="M83.8218 5.98733L83.8218 0L89.8091 9.52771e-07L89.8091 5.98733L83.8218 5.98733Z" fill="#471617"/>
<path d="M116.953 5.98733L116.953 0L122.94 9.52771e-07L122.94 5.98733L116.953 5.98733Z" fill="#471617"/>
<path d="M56.8794 65.8604L56.8794 59.873L61.8688 59.873L61.8688 65.8604L56.8794 65.8604Z" fill="#471617"/>
<path d="M56.8789 5.98733L56.8789 0L61.8683 7.93975e-07L61.8683 5.98733L56.8789 5.98733Z" fill="#471617"/>
<path d="M33.9277 65.8604L33.9277 59.873L38.9172 59.873L38.9172 65.8604L33.9277 65.8604Z" fill="#471617"/>
<path d="M17.9619 65.8604L17.9619 59.873L22.9513 59.873L22.9513 65.8604L17.9619 65.8604Z" fill="#471617"/>
<path d="M33.9272 5.98733L33.9272 0L38.9167 7.93975e-07L38.9167 5.98733L33.9272 5.98733Z" fill="#471617"/>
<path d="M17.9619 5.98733L17.9619 0L22.9513 7.93975e-07L22.9513 5.98733L17.9619 5.98733Z" fill="#471617"/>
<path d="M17.9613 59.873L10.9761 59.873L10.9761 53.8857L17.9613 53.8857L17.9613 59.873Z" fill="#471617"/>
<path d="M5.98664 17.9619L10.9761 17.9619L10.9761 11.9746L5.98664 11.9746L5.98664 17.9619Z" fill="#471617"/>
<path d="M-2.0504e-05 23.9492L5.9873 23.9492L5.9873 17.9619L-2.02423e-05 17.9619L-2.0504e-05 23.9492Z" fill="#471617"/>
<path d="M-2.0504e-05 29.9375L5.9873 29.9375L5.9873 23.9502L-2.02423e-05 23.9502L-2.0504e-05 29.9375Z" fill="#471617"/>
<path d="M-2.0504e-05 35.9238L5.9873 35.9238L5.9873 29.9365L-2.02423e-05 29.9365L-2.0504e-05 35.9238Z" fill="#471617"/>
<path d="M-2.0504e-05 41.9111L5.9873 41.9111L5.9873 35.9238L-2.02423e-05 35.9238L-2.0504e-05 41.9111Z" fill="#471617"/>
<path d="M-2.0504e-05 47.8994L5.9873 47.8994L5.9873 41.9121L-2.02423e-05 41.9121L-2.0504e-05 47.8994Z" fill="#471617"/>
<path d="M10.9767 53.8867L5.9873 53.8867L5.98731 47.8994L10.9767 47.8994L10.9767 53.8867Z" fill="#471617"/>
<path d="M10.9767 11.9756L17.9619 11.9756L17.9619 5.98827L10.9767 5.98827L10.9767 11.9756Z" fill="#471617"/>
<path d="M187.989 65.8604L187.989 59.873L183 59.873L183 65.8604L187.989 65.8604Z" fill="#471617"/>
<path d="M187.99 5.98733L187.99 0L183 7.93975e-07L183 5.98733L187.99 5.98733Z" fill="#471617"/>
<path d="M158.987 65.8604L158.987 59.873L153 59.873L153 65.8604L158.987 65.8604Z" fill="#471617"/>
<path d="M177.019 65.8604L177.019 59.873L171.032 59.873L171.032 65.8604L177.019 65.8604Z" fill="#471617"/>
<path d="M146.987 65.8604L146.987 59.873L141 59.873L141 65.8604L146.987 65.8604Z" fill="#471617"/>
<path d="M134.987 65.8604L134.987 59.873L129 59.873L129 65.8604L134.987 65.8604Z" fill="#471617"/>
<path d="M158.987 5.98733L158.987 0L153 9.52771e-07L153 5.98733L158.987 5.98733Z" fill="#471617"/>
<path d="M177.019 5.98733L177.019 0L171.032 9.52771e-07L171.032 5.98733L177.019 5.98733Z" fill="#471617"/>
<path d="M146.987 5.98733L146.987 0L141 9.52771e-07L141 5.98733L146.987 5.98733Z" fill="#471617"/>
<path d="M134.987 5.98733L134.987 0L129 9.52771e-07L129 5.98733L134.987 5.98733Z" fill="#471617"/>
<path d="M193.977 65.8604L193.977 59.873L187.989 59.873L187.989 65.8604L193.977 65.8604Z" fill="#471617"/>
<path d="M193.977 5.98733L193.977 0L187.989 9.52771e-07L187.989 5.98733L193.977 5.98733Z" fill="#471617"/>
<path d="M215.93 65.8604L215.93 59.873L209.942 59.873L209.942 65.8604L215.93 65.8604Z" fill="#471617"/>
<path d="M215.93 5.98733L215.93 0L209.942 9.52771e-07L209.942 5.98733L215.93 5.98733Z" fill="#471617"/>
<path d="M198.966 65.8604L198.966 59.873L193.976 59.873L193.976 65.8604L198.966 65.8604Z" fill="#471617"/>
<path d="M198.966 5.98733L198.966 0L193.976 7.93975e-07L193.976 5.98733L198.966 5.98733Z" fill="#471617"/>
<path d="M220.919 65.8604L220.919 59.873L215.93 59.873L215.93 65.8604L220.919 65.8604Z" fill="#471617"/>
<path d="M238.882 65.8604L238.882 59.873L232.895 59.873L232.895 65.8604L238.882 65.8604Z" fill="#471617"/>
<path d="M220.919 5.98733L220.919 0L215.93 7.93975e-07L215.93 5.98733L220.919 5.98733Z" fill="#471617"/>
<path d="M238.882 5.98733L238.882 0L232.895 9.52771e-07L232.895 5.98733L238.882 5.98733Z" fill="#471617"/>
<path d="M204.954 65.8604L204.954 59.873L198.966 59.873L198.966 65.8604L204.954 65.8604Z" fill="#471617"/>
<path d="M204.953 5.98733L204.953 0L198.966 9.52771e-07L198.966 5.98733L204.953 5.98733Z" fill="#471617"/>
<path d="M227.905 65.8604L227.905 59.873L220.92 59.873L220.92 65.8604L227.905 65.8604Z" fill="#471617"/>
<path d="M243.871 65.8604L243.871 59.873L238.882 59.873L238.882 65.8604L243.871 65.8604Z" fill="#471617"/>
<path d="M227.905 5.98733L227.905 0L220.92 1.11157e-06L220.92 5.98733L227.905 5.98733Z" fill="#471617"/>
<path d="M243.871 5.98733L243.871 0L238.882 7.93975e-07L238.882 5.98733L243.871 5.98733Z" fill="#471617"/>
<path d="M164.956 65.8604L164.956 59.873L158.968 59.873L158.968 65.8604L164.956 65.8604Z" fill="#471617"/>
<path d="M182.987 65.8604L182.987 59.873L177 59.873L177 65.8604L182.987 65.8604Z" fill="#471617"/>
<path d="M152.956 65.8604L152.956 59.873L146.968 59.873L146.968 65.8604L152.956 65.8604Z" fill="#471617"/>
<path d="M170.987 65.8604L170.987 59.873L165 59.873L165 65.8604L170.987 65.8604Z" fill="#471617"/>
<path d="M140.956 65.8604L140.956 59.873L134.968 59.873L134.968 65.8604L140.956 65.8604Z" fill="#471617"/>
<path d="M164.956 5.98733L164.956 0L158.969 9.52771e-07L158.969 5.98733L164.956 5.98733Z" fill="#471617"/>
<path d="M182.988 5.98733L182.988 0L177 9.52771e-07L177 5.98733L182.988 5.98733Z" fill="#471617"/>
<path d="M152.956 5.98733L152.956 0L146.969 9.52771e-07L146.969 5.98733L152.956 5.98733Z" fill="#471617"/>
<path d="M170.988 5.98733L170.988 0L165 9.52771e-07L165 5.98733L170.988 5.98733Z" fill="#471617"/>
<path d="M140.956 5.98733L140.956 0L134.969 9.52771e-07L134.969 5.98733L140.956 5.98733Z" fill="#471617"/>
<path d="M209.943 65.8604L209.943 59.873L204.953 59.873L204.953 65.8604L209.943 65.8604Z" fill="#471617"/>
<path d="M209.943 5.98733L209.943 0L204.954 7.93975e-07L204.954 5.98733L209.943 5.98733Z" fill="#471617"/>
<path d="M232.895 65.8604L232.895 59.873L227.905 59.873L227.905 65.8604L232.895 65.8604Z" fill="#471617"/>
<path d="M248.86 65.8604L248.86 59.873L243.871 59.873L243.871 65.8604L248.86 65.8604Z" fill="#471617"/>
<path d="M232.895 5.98733L232.895 0L227.906 7.93975e-07L227.906 5.98733L232.895 5.98733Z" fill="#471617"/>
<path d="M248.86 5.98733L248.86 0L243.871 7.93975e-07L243.871 5.98733L248.86 5.98733Z" fill="#471617"/>
<path d="M248.861 59.873L255.846 59.873L255.846 53.8857L248.861 53.8857L248.861 59.873Z" fill="#471617"/>
<path d="M260.836 17.9619L255.846 17.9619L255.846 11.9746L260.836 11.9746L260.836 17.9619Z" fill="#471617"/>
<path d="M266.822 23.9492L260.835 23.9492L260.835 17.9619L266.822 17.9619L266.822 23.9492Z" fill="#471617"/>
<path d="M266.822 29.9375L260.835 29.9375L260.835 23.9502L266.822 23.9502L266.822 29.9375Z" fill="#471617"/>
<path d="M266.822 35.9238L260.835 35.9238L260.835 29.9365L266.822 29.9365L266.822 35.9238Z" fill="#471617"/>
<path d="M266.822 41.9111L260.835 41.9111L260.835 35.9238L266.822 35.9238L266.822 41.9111Z" fill="#471617"/>
<path d="M266.822 47.8994L260.835 47.8994L260.835 41.9121L266.822 41.9121L266.822 47.8994Z" fill="#471617"/>
<path d="M255.846 53.8867L260.835 53.8867L260.835 47.8994L255.846 47.8994L255.846 53.8867Z" fill="#471617"/>
<path d="M255.846 11.9756L248.86 11.9756L248.86 5.98827L255.846 5.98827L255.846 11.9756Z" fill="#471617"/>
<path d="M25.6852 22.8611H27.0278V24.2037H25.6852V22.8611ZM25.6852 24.2037H27.0278V25.5463H25.6852V24.2037ZM25.6852 25.5463H27.0278V26.8889H25.6852V25.5463ZM25.6852 26.8889H27.0278V28.2315H25.6852V26.8889ZM25.6852 28.2315H27.0278V29.5741H25.6852V28.2315ZM25.6852 29.5741H27.0278V30.9166H25.6852V29.5741ZM25.6852 30.9166H27.0278V32.2592H25.6852V30.9166ZM25.6852 32.2592H27.0278V33.6018H25.6852V32.2592ZM25.6852 33.6018H27.0278V34.9444H25.6852V33.6018ZM25.6852 34.9444H27.0278V36.287H25.6852V34.9444ZM25.6852 36.287H27.0278V37.6296H25.6852V36.287ZM25.6852 37.6296H27.0278V38.9722H25.6852V37.6296ZM25.6852 38.9722H27.0278V40.3148H25.6852V38.9722ZM25.6852 40.3148H27.0278V41.6574H25.6852V40.3148ZM25.6852 41.6574H27.0278V43H25.6852V41.6574ZM24.3426 41.6574H25.6852V43H24.3426V41.6574ZM24.3426 40.3148H25.6852V41.6574H24.3426V40.3148ZM24.3426 38.9722H25.6852V40.3148H24.3426V38.9722ZM24.3426 24.2037H25.6852V25.5463H24.3426V24.2037ZM24.3426 22.8611H25.6852V24.2037H24.3426V22.8611ZM24.3426 25.5463H25.6852V26.8889H24.3426V25.5463ZM24.3426 26.8889H25.6852V28.2315H24.3426V26.8889ZM24.3426 28.2315H25.6852V29.5741H24.3426V28.2315ZM24.3426 29.5741H25.6852V30.9166H24.3426V29.5741ZM24.3426 30.9166H25.6852V32.2592H24.3426V30.9166ZM24.3426 32.2592H25.6852V33.6018H24.3426V32.2592ZM24.3426 33.6018H25.6852V34.9444H24.3426V33.6018ZM24.3426 34.9444H25.6852V36.287H24.3426V34.9444ZM24.3426 36.287H25.6852V37.6296H24.3426V36.287ZM24.3426 37.6296H25.6852V38.9722H24.3426V37.6296ZM27.0278 41.6574H28.3704V43H27.0278V41.6574ZM27.0278 40.3148H28.3704V41.6574H27.0278V40.3148ZM27.0278 38.9722H28.3704V40.3148H27.0278V38.9722ZM27.0278 37.6296H28.3704V38.9722H27.0278V37.6296ZM27.0278 34.9444H28.3704V36.287H27.0278V34.9444ZM27.0278 33.6018H28.3704V34.9444H27.0278V33.6018ZM27.0278 32.2592H28.3704V33.6018H27.0278V32.2592ZM27.0278 30.9166H28.3704V32.2592H27.0278V30.9166ZM27.0278 29.5741H28.3704V30.9166H27.0278V29.5741ZM27.0278 28.2315H28.3704V29.5741H27.0278V28.2315ZM27.0278 22.8611H28.3704V24.2037H27.0278V22.8611ZM27.0278 24.2037H28.3704V25.5463H27.0278V24.2037ZM27.0278 25.5463H28.3704V26.8889H27.0278V25.5463ZM27.0278 26.8889H28.3704V28.2315H27.0278V26.8889ZM27.0278 36.287H28.3704V37.6296H27.0278V36.287ZM28.3704 41.6574H29.713V43H28.3704V41.6574ZM29.713 41.6574H31.0556V43H29.713V41.6574ZM31.0556 41.6574H32.3982V43H31.0556V41.6574ZM31.0556 40.3148H32.3982V41.6574H31.0556V40.3148ZM31.0556 38.9722H32.3982V40.3148H31.0556V38.9722ZM29.713 38.9722H31.0556V40.3148H29.713V38.9722ZM29.713 40.3148H31.0556V41.6574H29.713V40.3148ZM28.3704 40.3148H29.713V41.6574H28.3704V40.3148ZM28.3704 38.9722H29.713V40.3148H28.3704V38.9722ZM32.3982 38.9722H33.7408V40.3148H32.3982V38.9722ZM32.3982 40.3148H33.7408V41.6574H32.3982V40.3148ZM32.3982 41.6574H33.7408V43H32.3982V41.6574ZM33.7408 41.6574H35.0834V43H33.7408V41.6574ZM33.7408 40.3148H35.0834V41.6574H33.7408V40.3148ZM33.7408 38.9722H35.0834V40.3148H33.7408V38.9722ZM35.0834 38.9722H36.4259V40.3148H35.0834V38.9722ZM35.0834 40.3148H36.4259V41.6574H35.0834V40.3148ZM35.0834 41.6574H36.4259V43H35.0834V41.6574ZM28.3704 22.8611H29.713V24.2037H28.3704V22.8611ZM29.713 22.8611H31.0556V24.2037H29.713V22.8611ZM31.0556 22.8611H32.3982V24.2037H31.0556V22.8611ZM32.3982 22.8611H33.7408V24.2037H32.3982V22.8611ZM33.7408 22.8611H35.0834V24.2037H33.7408V22.8611ZM35.0834 22.8611H36.4259V24.2037H35.0834V22.8611ZM35.0834 24.2037H36.4259V25.5463H35.0834V24.2037ZM35.0834 25.5463H36.4259V26.8889H35.0834V25.5463ZM33.7408 25.5463H35.0834V26.8889H33.7408V25.5463ZM32.3982 25.5463H33.7408V26.8889H32.3982V25.5463ZM31.0556 25.5463H32.3982V26.8889H31.0556V25.5463ZM29.713 25.5463H31.0556V26.8889H29.713V25.5463ZM29.713 24.2037H31.0556V25.5463H29.713V24.2037ZM28.3704 24.2037H29.713V25.5463H28.3704V24.2037ZM28.3704 25.5463H29.713V26.8889H28.3704V25.5463ZM31.0556 24.2037H32.3982V25.5463H31.0556V24.2037ZM32.3982 24.2037H33.7408V25.5463H32.3982V24.2037ZM33.7408 24.2037H35.0834V25.5463H33.7408V24.2037ZM28.3704 30.9166H29.713V32.2592H28.3704V30.9166ZM28.3704 32.2592H29.713V33.6018H28.3704V32.2592ZM28.3704 33.6018H29.713V34.9444H28.3704V33.6018ZM29.713 33.6018H31.0556V34.9444H29.713V33.6018ZM29.713 32.2592H31.0556V33.6018H29.713V32.2592ZM29.713 30.9166H31.0556V32.2592H29.713V30.9166ZM31.0556 30.9166H32.3982V32.2592H31.0556V30.9166ZM31.0556 32.2592H32.3982V33.6018H31.0556V32.2592ZM32.3982 32.2592H33.7408V33.6018H32.3982V32.2592ZM32.3982 30.9166H33.7408V32.2592H32.3982V30.9166ZM32.3982 33.6018H33.7408V34.9444H32.3982V33.6018ZM31.0556 33.6018H32.3982V34.9444H31.0556V33.6018ZM33.7408 30.9166H35.0834V32.2592H33.7408V30.9166ZM33.7408 32.2592H35.0834V33.6018H33.7408V32.2592ZM33.7408 33.6018H35.0834V34.9444H33.7408V33.6018ZM32.3982 16.1481V17.4907H31.0556V16.1481H32.3982ZM31.0556 17.4907V18.8333H29.713V17.4907H31.0556ZM32.3982 17.4907V18.8333H31.0556V17.4907H32.3982ZM29.713 18.8333V20.1759H28.3704V18.8333H29.713ZM31.0556 18.8333V20.1759H29.713V18.8333H31.0556ZM33.7408 16.1481V17.4907H32.3982V16.1481H33.7408ZM29.713 20.1759H31.0556V21.5185H29.713V20.1759ZM28.3704 20.1759H29.713V21.5185H28.3704V20.1759ZM31.0556 18.8333H32.3982V20.1759H31.0556V18.8333ZM32.3982 17.4907H33.7408V18.8333H32.3982V17.4907ZM52.5305 28.2315V29.5741H51.1879V28.2315H52.5305ZM52.5305 29.5741V30.9166H51.1879V29.5741H52.5305ZM52.5305 40.3148V41.6574H51.1879V40.3148H52.5305ZM52.5305 41.6574V43H51.1879V41.6574H52.5305ZM51.1879 41.6574V43H49.8453V41.6574H51.1879ZM51.1879 28.2315V29.5741H49.8453V28.2315H51.1879ZM47.1601 28.2315V29.5741H45.8176V28.2315H47.1601ZM45.8176 28.2315V29.5741H44.475V28.2315H45.8176ZM44.475 28.2315V29.5741H43.1324V28.2315H44.475ZM43.1324 28.2315V29.5741H41.7898V28.2315H43.1324ZM41.7898 29.5741V30.9166H40.4472V29.5741H41.7898ZM43.1324 29.5741V30.9166H41.7898V29.5741H43.1324ZM44.475 29.5741V30.9166H43.1324V29.5741H44.475ZM45.8176 29.5741V30.9166H44.475V29.5741H45.8176ZM47.1601 29.5741V30.9166H45.8176V29.5741H47.1601ZM48.5027 29.5741V30.9166H47.1601V29.5741H48.5027ZM51.1879 29.5741V30.9166H49.8453V29.5741H51.1879ZM49.8453 37.6296V38.9722H48.5027V37.6296H49.8453ZM48.5027 40.3148V41.6574H47.1601V40.3148H48.5027ZM48.5027 38.9722V40.3148H47.1601V38.9722H48.5027ZM47.1601 41.6574V43H45.8176V41.6574H47.1601ZM45.8176 41.6574V43H44.475V41.6574H45.8176ZM44.475 41.6574V43H43.1324V41.6574H44.475ZM43.1324 41.6574V43H41.7898V41.6574H43.1324ZM44.475 40.3148V41.6574H43.1324V40.3148H44.475ZM45.8176 40.3148V41.6574H44.475V40.3148H45.8176ZM47.1601 40.3148V41.6574H45.8176V40.3148H47.1601ZM43.1324 40.3148V41.6574H41.7898V40.3148H43.1324ZM41.7898 40.3148V41.6574H40.4472V40.3148H41.7898ZM43.1324 38.9722V40.3148H41.7898V38.9722H43.1324ZM44.475 38.9722V40.3148H43.1324V38.9722H44.475ZM41.7898 38.9722V40.3148H40.4472V38.9722H41.7898ZM40.4472 38.9722V40.3148H39.1046V38.9722H40.4472ZM40.4472 37.6296V38.9722H39.1046V37.6296H40.4472ZM41.7898 36.287V37.6296H40.4472V36.287H41.7898ZM41.7898 37.6296V38.9722H40.4472V37.6296H41.7898ZM43.1324 37.6296V38.9722H41.7898V37.6296H43.1324ZM40.4472 36.287V37.6296H39.1046V36.287H40.4472ZM40.4472 34.9444V36.287H39.1046V34.9444H40.4472ZM41.7898 34.9444V36.287H40.4472V34.9444H41.7898ZM41.7898 33.6018V34.9444H40.4472V33.6018H41.7898ZM41.7898 32.2592V33.6018H40.4472V32.2592H41.7898ZM40.4472 32.2592V33.6018H39.1046V32.2592H40.4472ZM40.4472 30.9166V32.2592H39.1046V30.9166H40.4472ZM40.4472 33.6018V34.9444H39.1046V33.6018H40.4472ZM43.1324 34.9444V36.287H41.7898V34.9444H43.1324ZM43.1324 36.287V37.6296H41.7898V36.287H43.1324ZM43.1324 33.6018V34.9444H41.7898V33.6018H43.1324ZM43.1324 32.2592V33.6018H41.7898V32.2592H43.1324ZM43.1324 30.9166V32.2592H41.7898V30.9166H43.1324ZM44.475 30.9166V32.2592H43.1324V30.9166H44.475ZM41.7898 30.9166V32.2592H40.4472V30.9166H41.7898ZM48.5027 30.9166V32.2592H47.1601V30.9166H48.5027ZM47.1601 30.9166V32.2592H45.8176V30.9166H47.1601ZM45.8176 30.9166V32.2592H44.475V30.9166H45.8176ZM47.1601 38.9722V40.3148H45.8176V38.9722H47.1601ZM45.8176 38.9722V40.3148H44.475V38.9722H45.8176ZM49.8453 41.6574V43H48.5027V41.6574H49.8453ZM49.8453 40.3148V41.6574H48.5027V40.3148H49.8453ZM49.8453 38.9722V40.3148H48.5027V38.9722H49.8453ZM51.1879 38.9722V40.3148H49.8453V38.9722H51.1879ZM51.1879 40.3148V41.6574H49.8453V40.3148H51.1879ZM51.1879 37.6296V38.9722H49.8453V37.6296H51.1879ZM49.8453 36.287V37.6296H48.5027V36.287H49.8453ZM49.8453 34.9444V36.287H48.5027V34.9444H49.8453ZM49.8453 33.6018V34.9444H48.5027V33.6018H49.8453ZM49.8453 32.2592V33.6018H48.5027V32.2592H49.8453ZM49.8453 30.9166V32.2592H48.5027V30.9166H49.8453ZM49.8453 29.5741V30.9166H48.5027V29.5741H49.8453ZM49.8453 28.2315V29.5741H48.5027V28.2315H49.8453ZM51.1879 30.9166V32.2592H49.8453V30.9166H51.1879ZM51.1879 32.2592V33.6018H49.8453V32.2592H51.1879ZM51.1879 33.6018V34.9444H49.8453V33.6018H51.1879ZM51.1879 34.9444V36.287H49.8453V34.9444H51.1879ZM51.1879 36.287V37.6296H49.8453V36.287H51.1879ZM52.5305 37.6296V38.9722H51.1879V37.6296H52.5305ZM52.5305 38.9722V40.3148H51.1879V38.9722H52.5305ZM52.5305 36.287V37.6296H51.1879V36.287H52.5305ZM52.5305 34.9444V36.287H51.1879V34.9444H52.5305ZM52.5305 33.6018V34.9444H51.1879V33.6018H52.5305ZM52.5305 32.2592V33.6018H51.1879V32.2592H52.5305ZM52.5305 30.9166V32.2592H51.1879V30.9166H52.5305ZM47.1601 37.6296H48.5027V38.9722H47.1601V37.6296ZM47.1601 28.2315H48.5027V29.5741H47.1601V28.2315ZM48.5027 43H49.8453V44.3426H48.5027V43ZM48.5027 44.3426H49.8453V45.6852H48.5027V44.3426ZM48.5027 45.6852H49.8453V47.0278H48.5027V45.6852ZM49.8453 45.6852H51.1879V47.0278H49.8453V45.6852ZM51.1879 45.6852H52.5305V47.0278H51.1879V45.6852ZM51.1879 44.3426H52.5305V45.6852H51.1879V44.3426ZM51.1879 43H52.5305V44.3426H51.1879V43ZM49.8453 43H51.1879V44.3426H49.8453V43ZM49.8453 44.3426H51.1879V45.6852H49.8453V44.3426ZM48.5027 47.0278H49.8453V48.3704H48.5027V47.0278ZM49.8453 47.0278H51.1879V48.3704H49.8453V47.0278ZM51.1879 47.0278H52.5305V48.3704H51.1879V47.0278ZM55.2118 28.2315H56.5544V29.5741H55.2118V28.2315ZM56.5544 28.2315H57.897V29.5741H56.5544V28.2315ZM57.897 28.2315H59.2396V29.5741H57.897V28.2315ZM57.897 29.5741H59.2396V30.9166H57.897V29.5741ZM57.897 30.9166H59.2396V32.2592H57.897V30.9166ZM57.897 32.2592H59.2396V33.6018H57.897V32.2592ZM57.897 33.6018H59.2396V34.9444H57.897V33.6018ZM57.897 34.9444H59.2396V36.287H57.897V34.9444ZM56.5544 34.9444H57.897V36.287H56.5544V34.9444ZM56.5544 33.6018H57.897V34.9444H56.5544V33.6018ZM56.5544 32.2592H57.897V33.6018H56.5544V32.2592ZM55.2118 30.9166H56.5544V32.2592H55.2118V30.9166ZM55.2118 29.5741H56.5544V30.9166H55.2118V29.5741ZM56.5544 30.9166H57.897V32.2592H56.5544V30.9166ZM56.5544 29.5741H57.897V30.9166H56.5544V29.5741ZM55.2118 32.2592H56.5544V33.6018H55.2118V32.2592ZM55.2118 33.6018H56.5544V34.9444H55.2118V33.6018ZM55.2118 34.9444H56.5544V36.287H55.2118V34.9444ZM55.2118 36.287H56.5544V37.6296H55.2118V36.287ZM56.5544 36.287H57.897V37.6296H56.5544V36.287ZM57.897 36.287H59.2396V37.6296H57.897V36.287ZM57.897 37.6296H59.2396V38.9722H57.897V37.6296ZM57.897 38.9722H59.2396V40.3148H57.897V38.9722ZM56.5544 38.9722H57.897V40.3148H56.5544V38.9722ZM56.5544 37.6296H57.897V38.9722H56.5544V37.6296ZM55.2118 37.6296H56.5544V38.9722H55.2118V37.6296ZM55.2118 38.9722H56.5544V40.3148H55.2118V38.9722ZM56.5544 40.3148H57.897V41.6574H56.5544V40.3148ZM57.897 40.3148H59.2396V41.6574H57.897V40.3148ZM59.2396 40.3148H60.5822V41.6574H59.2396V40.3148ZM59.2396 38.9722H60.5822V40.3148H59.2396V38.9722ZM57.897 41.6574H59.2396V43H57.897V41.6574ZM59.2396 41.6574H60.5822V43H59.2396V41.6574ZM60.5822 41.6574H61.9248V43H60.5822V41.6574ZM60.5822 40.3148H61.9248V41.6574H60.5822V40.3148ZM60.5822 38.9722H61.9248V40.3148H60.5822V38.9722ZM61.9248 40.3148H63.2673V41.6574H61.9248V40.3148ZM61.9248 41.6574H63.2673V43H61.9248V41.6574ZM67.2951 28.2315H68.6377V29.5741H67.2951V28.2315ZM67.2951 29.5741H68.6377V30.9166H67.2951V29.5741ZM67.2951 30.9166H68.6377V32.2592H67.2951V30.9166ZM67.2951 32.2592H68.6377V33.6018H67.2951V32.2592ZM67.2951 33.6018H68.6377V34.9444H67.2951V33.6018ZM67.2951 34.9444H68.6377V36.287H67.2951V34.9444ZM67.2951 36.287H68.6377V37.6296H67.2951V36.287ZM67.2951 37.6296H68.6377V38.9722H67.2951V37.6296ZM67.2951 38.9722H68.6377V40.3148H67.2951V38.9722ZM65.9525 38.9722H67.2951V40.3148H65.9525V38.9722ZM64.6099 38.9722H65.9525V40.3148H64.6099V38.9722ZM64.6099 40.3148H65.9525V41.6574H64.6099V40.3148ZM63.2673 40.3148H64.6099V41.6574H63.2673V40.3148ZM65.9525 40.3148H67.2951V41.6574H65.9525V40.3148ZM67.2951 40.3148H68.6377V41.6574H67.2951V40.3148ZM63.2673 38.9722H64.6099V40.3148H63.2673V38.9722ZM61.9248 38.9722H63.2673V40.3148H61.9248V38.9722ZM63.2673 37.6296H64.6099V38.9722H63.2673V37.6296ZM64.6099 37.6296H65.9525V38.9722H64.6099V37.6296ZM65.9525 37.6296H67.2951V38.9722H65.9525V37.6296ZM65.9525 36.287H67.2951V37.6296H65.9525V36.287ZM65.9525 34.9444H67.2951V36.287H65.9525V34.9444ZM65.9525 33.6018H67.2951V34.9444H65.9525V33.6018ZM65.9525 32.2592H67.2951V33.6018H65.9525V32.2592ZM65.9525 30.9166H67.2951V32.2592H65.9525V30.9166ZM65.9525 29.5741H67.2951V30.9166H65.9525V29.5741ZM65.9525 28.2315H67.2951V29.5741H65.9525V28.2315ZM64.6099 29.5741H65.9525V30.9166H64.6099V29.5741ZM64.6099 30.9166H65.9525V32.2592H64.6099V30.9166ZM64.6099 32.2592H65.9525V33.6018H64.6099V32.2592ZM64.6099 33.6018H65.9525V34.9444H64.6099V33.6018ZM64.6099 34.9444H65.9525V36.287H64.6099V34.9444ZM64.6099 36.287H65.9525V37.6296H64.6099V36.287ZM64.6099 28.2315H65.9525V29.5741H64.6099V28.2315ZM67.2951 41.6574H68.6377V43H67.2951V41.6574ZM65.9525 41.6574H67.2951V43H65.9525V41.6574ZM64.6099 41.6574H65.9525V43H64.6099V41.6574ZM71.319 22.8611H72.6616V24.2037H71.319V22.8611ZM71.319 24.2037H72.6616V25.5463H71.319V24.2037ZM71.319 25.5463H72.6616V26.8889H71.319V25.5463ZM71.319 29.5741H72.6616V30.9166H71.319V29.5741ZM71.319 30.9166H72.6616V32.2592H71.319V30.9166ZM71.319 32.2592H72.6616V33.6018H71.319V32.2592ZM71.319 33.6018H72.6616V34.9444H71.319V33.6018ZM71.319 34.9444H72.6616V36.287H71.319V34.9444ZM71.319 36.287H72.6616V37.6296H71.319V36.287ZM71.319 37.6296H72.6616V38.9722H71.319V37.6296ZM71.319 38.9722H72.6616V40.3148H71.319V38.9722ZM71.319 40.3148H72.6616V41.6574H71.319V40.3148ZM71.319 41.6574H72.6616V43H71.319V41.6574ZM72.6616 41.6574H74.0042V43H72.6616V41.6574ZM74.0042 41.6574H75.3468V43H74.0042V41.6574ZM74.0042 40.3148H75.3468V41.6574H74.0042V40.3148ZM74.0042 38.9722H75.3468V40.3148H74.0042V38.9722ZM74.0042 37.6296H75.3468V38.9722H74.0042V37.6296ZM74.0042 36.287H75.3468V37.6296H74.0042V36.287ZM74.0042 34.9444H75.3468V36.287H74.0042V34.9444ZM74.0042 33.6018H75.3468V34.9444H74.0042V33.6018ZM74.0042 32.2592H75.3468V33.6018H74.0042V32.2592ZM74.0042 30.9166H75.3468V32.2592H74.0042V30.9166ZM74.0042 22.8611H75.3468V24.2037H74.0042V22.8611ZM72.6616 22.8611H74.0042V24.2037H72.6616V22.8611ZM72.6616 24.2037H74.0042V25.5463H72.6616V24.2037ZM74.0042 24.2037H75.3468V25.5463H74.0042V24.2037ZM74.0042 25.5463H75.3468V26.8889H74.0042V25.5463ZM74.0042 29.5741H75.3468V30.9166H74.0042V29.5741ZM72.6616 25.5463H74.0042V26.8889H72.6616V25.5463ZM72.6616 29.5741H74.0042V30.9166H72.6616V29.5741ZM72.6616 30.9166H74.0042V32.2592H72.6616V30.9166ZM72.6616 40.3148H74.0042V41.6574H72.6616V40.3148ZM72.6616 38.9722H74.0042V40.3148H72.6616V38.9722ZM72.6616 37.6296H74.0042V38.9722H72.6616V37.6296ZM72.6616 36.287H74.0042V37.6296H72.6616V36.287ZM72.6616 34.9444H74.0042V36.287H72.6616V34.9444ZM72.6616 33.6018H74.0042V34.9444H72.6616V33.6018ZM72.6616 32.2592H74.0042V33.6018H72.6616V32.2592ZM78.0451 28.2315H79.3877V29.5741H78.0451V28.2315ZM78.0451 29.5741H79.3877V30.9166H78.0451V29.5741ZM78.0451 40.3148H79.3877V41.6574H78.0451V40.3148ZM78.0451 41.6574H79.3877V43H78.0451V41.6574ZM79.3877 41.6574H80.7303V43H79.3877V41.6574ZM79.3877 28.2315H80.7303V29.5741H79.3877V28.2315ZM83.4154 28.2315H84.758V29.5741H83.4154V28.2315ZM84.758 28.2315H86.1006V29.5741H84.758V28.2315ZM86.1006 28.2315H87.4432V29.5741H86.1006V28.2315ZM87.4432 28.2315H88.7858V29.5741H87.4432V28.2315ZM88.7858 29.5741H90.1284V30.9166H88.7858V29.5741ZM87.4432 29.5741H88.7858V30.9166H87.4432V29.5741ZM86.1006 29.5741H87.4432V30.9166H86.1006V29.5741ZM84.758 29.5741H86.1006V30.9166H84.758V29.5741ZM83.4154 29.5741H84.758V30.9166H83.4154V29.5741ZM82.0728 29.5741H83.4154V30.9166H82.0728V29.5741ZM79.3877 29.5741H80.7303V30.9166H79.3877V29.5741ZM80.7303 37.6296H82.0728V38.9722H80.7303V37.6296ZM82.0728 40.3148H83.4154V41.6574H82.0728V40.3148ZM82.0728 38.9722H83.4154V40.3148H82.0728V38.9722ZM82.0728 41.6574H83.4154V43H82.0728V41.6574ZM83.4154 41.6574H84.758V43H83.4154V41.6574ZM84.758 41.6574H86.1006V43H84.758V41.6574ZM86.1006 41.6574H87.4432V43H86.1006V41.6574ZM87.4432 41.6574H88.7858V43H87.4432V41.6574ZM86.1006 40.3148H87.4432V41.6574H86.1006V40.3148ZM84.758 40.3148H86.1006V41.6574H84.758V40.3148ZM83.4154 40.3148H84.758V41.6574H83.4154V40.3148ZM87.4432 40.3148H88.7858V41.6574H87.4432V40.3148ZM88.7858 40.3148H90.1284V41.6574H88.7858V40.3148ZM87.4432 38.9722H88.7858V40.3148H87.4432V38.9722ZM86.1006 38.9722H87.4432V40.3148H86.1006V38.9722ZM88.7858 38.9722H90.1284V40.3148H88.7858V38.9722ZM90.1284 38.9722H91.471V40.3148H90.1284V38.9722ZM90.1284 37.6296H91.471V38.9722H90.1284V37.6296ZM88.7858 36.287H90.1284V37.6296H88.7858V36.287ZM88.7858 37.6296H90.1284V38.9722H88.7858V37.6296ZM87.4432 37.6296H88.7858V38.9722H87.4432V37.6296ZM90.1284 36.287H91.471V37.6296H90.1284V36.287ZM90.1284 34.9444H91.471V36.287H90.1284V34.9444ZM88.7858 34.9444H90.1284V36.287H88.7858V34.9444ZM88.7858 33.6018H90.1284V34.9444H88.7858V33.6018ZM88.7858 32.2592H90.1284V33.6018H88.7858V32.2592ZM90.1284 32.2592H91.471V33.6018H90.1284V32.2592ZM90.1284 30.9166H91.471V32.2592H90.1284V30.9166ZM90.1284 33.6018H91.471V34.9444H90.1284V33.6018ZM87.4432 34.9444H88.7858V36.287H87.4432V34.9444ZM87.4432 36.287H88.7858V37.6296H87.4432V36.287ZM87.4432 33.6018H88.7858V34.9444H87.4432V33.6018ZM87.4432 32.2592H88.7858V33.6018H87.4432V32.2592ZM87.4432 30.9166H88.7858V32.2592H87.4432V30.9166ZM86.1006 30.9166H87.4432V32.2592H86.1006V30.9166ZM88.7858 30.9166H90.1284V32.2592H88.7858V30.9166ZM82.0728 30.9166H83.4154V32.2592H82.0728V30.9166ZM83.4154 30.9166H84.758V32.2592H83.4154V30.9166ZM84.758 30.9166H86.1006V32.2592H84.758V30.9166ZM83.4154 38.9722H84.758V40.3148H83.4154V38.9722ZM84.758 38.9722H86.1006V40.3148H84.758V38.9722ZM80.7303 41.6574H82.0728V43H80.7303V41.6574ZM80.7303 40.3148H82.0728V41.6574H80.7303V40.3148ZM80.7303 38.9722H82.0728V40.3148H80.7303V38.9722ZM79.3877 38.9722H80.7303V40.3148H79.3877V38.9722ZM79.3877 40.3148H80.7303V41.6574H79.3877V40.3148ZM79.3877 37.6296H80.7303V38.9722H79.3877V37.6296ZM80.7303 36.287H82.0728V37.6296H80.7303V36.287ZM80.7303 34.9444H82.0728V36.287H80.7303V34.9444ZM80.7303 33.6018H82.0728V34.9444H80.7303V33.6018ZM80.7303 32.2592H82.0728V33.6018H80.7303V32.2592ZM80.7303 30.9166H82.0728V32.2592H80.7303V30.9166ZM80.7303 29.5741H82.0728V30.9166H80.7303V29.5741ZM80.7303 28.2315H82.0728V29.5741H80.7303V28.2315ZM79.3877 30.9166H80.7303V32.2592H79.3877V30.9166ZM79.3877 32.2592H80.7303V33.6018H79.3877V32.2592ZM79.3877 33.6018H80.7303V34.9444H79.3877V33.6018ZM79.3877 34.9444H80.7303V36.287H79.3877V34.9444ZM79.3877 36.287H80.7303V37.6296H79.3877V36.287ZM78.0451 37.6296H79.3877V38.9722H78.0451V37.6296ZM78.0451 38.9722H79.3877V40.3148H78.0451V38.9722ZM78.0451 36.287H79.3877V37.6296H78.0451V36.287ZM78.0451 34.9444H79.3877V36.287H78.0451V34.9444ZM78.0451 33.6018H79.3877V34.9444H78.0451V33.6018ZM78.0451 32.2592H79.3877V33.6018H78.0451V32.2592ZM78.0451 30.9166H79.3877V32.2592H78.0451V30.9166ZM82.0728 32.2592H83.4154V33.6018H82.0728V32.2592ZM78.0451 43H79.3877V44.3426H78.0451V43ZM79.3877 43H80.7303V44.3426H79.3877V43ZM80.7303 43H82.0728V44.3426H80.7303V43ZM80.7303 44.3426H82.0728V45.6852H80.7303V44.3426ZM80.7303 45.6852H82.0728V47.0278H80.7303V45.6852ZM79.3877 45.6852H80.7303V47.0278H79.3877V45.6852ZM78.0451 45.6852H79.3877V47.0278H78.0451V45.6852ZM79.3877 44.3426H80.7303V45.6852H79.3877V44.3426ZM78.0451 44.3426H79.3877V45.6852H78.0451V44.3426ZM78.0451 47.0278H79.3877V48.3704H78.0451V47.0278ZM79.3877 47.0278H80.7303V48.3704H79.3877V47.0278ZM80.7303 47.0278H82.0728V48.3704H80.7303V47.0278ZM96.8375 28.2315H98.18V29.5741H96.8375V28.2315ZM98.18 28.2315H99.5226V29.5741H98.18V28.2315ZM99.5226 28.2315H100.865V29.5741H99.5226V28.2315ZM100.865 28.2315H102.208V29.5741H100.865V28.2315ZM102.208 28.2315H103.55V29.5741H102.208V28.2315ZM103.55 28.2315H104.893V29.5741H103.55V28.2315ZM104.893 29.5741H106.236V30.9166H104.893V29.5741ZM103.55 29.5741H104.893V30.9166H103.55V29.5741ZM102.208 29.5741H103.55V30.9166H102.208V29.5741ZM100.865 29.5741H102.208V30.9166H100.865V29.5741ZM99.5226 29.5741H100.865V30.9166H99.5226V29.5741ZM98.18 29.5741H99.5226V30.9166H98.18V29.5741ZM96.8375 29.5741H98.18V30.9166H96.8375V29.5741ZM95.4949 29.5741H96.8375V30.9166H95.4949V29.5741ZM95.4949 30.9166H96.8375V32.2592H95.4949V30.9166ZM96.8375 30.9166H98.18V32.2592H96.8375V30.9166ZM94.1523 30.9166H95.4949V32.2592H94.1523V30.9166ZM94.1523 32.2592H95.4949V33.6018H94.1523V32.2592ZM94.1523 33.6018H95.4949V34.9444H94.1523V33.6018ZM95.4949 33.6018H96.8375V34.9444H95.4949V33.6018ZM96.8375 33.6018H98.18V34.9444H96.8375V33.6018ZM96.8375 32.2592H98.18V33.6018H96.8375V32.2592ZM95.4949 32.2592H96.8375V33.6018H95.4949V32.2592ZM95.4949 34.9444H96.8375V36.287H95.4949V34.9444ZM95.4949 36.287H96.8375V37.6296H95.4949V36.287ZM95.4949 37.6296H96.8375V38.9722H95.4949V37.6296ZM94.1523 37.6296H95.4949V38.9722H94.1523V37.6296ZM94.1523 38.9722H95.4949V40.3148H94.1523V38.9722ZM94.1523 36.287H95.4949V37.6296H94.1523V36.287ZM94.1523 34.9444H95.4949V36.287H94.1523V34.9444ZM96.8375 34.9444H98.18V36.287H96.8375V34.9444ZM96.8375 36.287H98.18V37.6296H96.8375V36.287ZM96.8375 37.6296H98.18V38.9722H96.8375V37.6296ZM96.8375 38.9722H98.18V40.3148H96.8375V38.9722ZM95.4949 38.9722H96.8375V40.3148H95.4949V38.9722ZM95.4949 40.3148H96.8375V41.6574H95.4949V40.3148ZM96.8375 40.3148H98.18V41.6574H96.8375V40.3148ZM98.18 40.3148H99.5226V41.6574H98.18V40.3148ZM98.18 38.9722H99.5226V40.3148H98.18V38.9722ZM96.8375 41.6574H98.18V43H96.8375V41.6574ZM98.18 41.6574H99.5226V43H98.18V41.6574ZM99.5226 41.6574H100.865V43H99.5226V41.6574ZM100.865 41.6574H102.208V43H100.865V41.6574ZM102.208 41.6574H103.55V43H102.208V41.6574ZM103.55 41.6574H104.893V43H103.55V41.6574ZM102.208 40.3148H103.55V41.6574H102.208V40.3148ZM100.865 40.3148H102.208V41.6574H100.865V40.3148ZM99.5226 40.3148H100.865V41.6574H99.5226V40.3148ZM103.55 40.3148H104.893V41.6574H103.55V40.3148ZM104.893 40.3148H106.236V41.6574H104.893V40.3148ZM103.55 38.9722H104.893V40.3148H103.55V38.9722ZM102.208 38.9722H103.55V40.3148H102.208V38.9722ZM104.893 38.9722H106.236V40.3148H104.893V38.9722ZM106.236 38.9722H107.578V40.3148H106.236V38.9722ZM104.893 32.2592H106.236V33.6018H104.893V32.2592ZM106.236 32.2592H107.578V33.6018H106.236V32.2592ZM106.236 30.9166H107.578V32.2592H106.236V30.9166ZM103.55 32.2592H104.893V33.6018H103.55V32.2592ZM103.55 30.9166H104.893V32.2592H103.55V30.9166ZM104.893 30.9166H106.236V32.2592H104.893V30.9166ZM99.5226 38.9722H100.865V40.3148H99.5226V38.9722ZM100.865 38.9722H102.208V40.3148H100.865V38.9722ZM106.236 33.6018H107.578V34.9444H106.236V33.6018ZM104.893 33.6018H106.236V34.9444H104.893V33.6018ZM103.55 33.6018H104.893V34.9444H103.55V33.6018ZM99.5226 34.9444H100.865V36.287H99.5226V34.9444ZM100.865 34.9444H102.208V36.287H100.865V34.9444ZM102.208 34.9444H103.55V36.287H102.208V34.9444ZM103.55 34.9444H104.893V36.287H103.55V34.9444ZM104.893 34.9444H106.236V36.287H104.893V34.9444ZM106.236 34.9444H107.578V36.287H106.236V34.9444ZM98.18 34.9444H99.5226V36.287H98.18V34.9444ZM98.18 30.9166H99.5226V32.2592H98.18V30.9166ZM99.5226 30.9166H100.865V32.2592H99.5226V30.9166ZM100.865 30.9166H102.208V32.2592H100.865V30.9166ZM102.208 30.9166H103.55V32.2592H102.208V30.9166ZM106.236 36.287H107.578V37.6296H106.236V36.287ZM104.893 36.287H106.236V37.6296H104.893V36.287ZM102.208 36.287H103.55V37.6296H102.208V36.287ZM100.865 36.287H102.208V37.6296H100.865V36.287ZM99.5226 36.287H100.865V37.6296H99.5226V36.287ZM98.18 36.287H99.5226V37.6296H98.18V36.287ZM103.55 36.287H104.893V37.6296H103.55V36.287ZM129.072 30.9166H130.414V32.2592H129.072V30.9166ZM129.072 29.5741H130.414V30.9166H129.072V29.5741ZM127.729 30.9166H129.072V32.2592H127.729V30.9166ZM126.386 30.9166H127.729V32.2592H126.386V30.9166ZM126.386 29.5741H127.729V30.9166H126.386V29.5741ZM127.729 29.5741H129.072V30.9166H127.729V29.5741ZM127.729 28.2315H129.072V29.5741H127.729V28.2315ZM126.386 28.2315H127.729V29.5741H126.386V28.2315ZM125.044 28.2315H126.386V29.5741H125.044V28.2315ZM123.701 28.2315H125.044V29.5741H123.701V28.2315ZM122.359 28.2315H123.701V29.5741H122.359V28.2315ZM121.016 28.2315H122.359V29.5741H121.016V28.2315ZM121.016 29.5741H122.359V30.9166H121.016V29.5741ZM122.359 29.5741H123.701V30.9166H122.359V29.5741ZM123.701 29.5741H125.044V30.9166H123.701V29.5741ZM125.044 29.5741H126.386V30.9166H125.044V29.5741ZM119.673 29.5741H121.016V30.9166H119.673V29.5741ZM119.673 30.9166H121.016V32.2592H119.673V30.9166ZM119.673 32.2592H121.016V33.6018H119.673V32.2592ZM121.016 32.2592H122.359V33.6018H121.016V32.2592ZM121.016 30.9166H122.359V32.2592H121.016V30.9166ZM118.331 32.2592H119.673V33.6018H118.331V32.2592ZM118.331 30.9166H119.673V32.2592H118.331V30.9166ZM121.016 33.6018H122.359V34.9444H121.016V33.6018ZM119.673 33.6018H121.016V34.9444H119.673V33.6018ZM121.016 34.9444H122.359V36.287H121.016V34.9444ZM122.359 34.9444H123.701V36.287H122.359V34.9444ZM123.701 34.9444H125.044V36.287H123.701V34.9444ZM123.701 33.6018H125.044V34.9444H123.701V33.6018ZM125.044 33.6018H126.386V34.9444H125.044V33.6018ZM125.044 34.9444H126.386V36.287H125.044V34.9444ZM126.386 34.9444H127.729V36.287H126.386V34.9444ZM127.729 34.9444H129.072V36.287H127.729V34.9444ZM127.729 33.6018H129.072V34.9444H127.729V33.6018ZM126.386 33.6018H127.729V34.9444H126.386V33.6018ZM122.359 33.6018H123.701V34.9444H122.359V33.6018ZM118.331 37.6296H119.673V38.9722H118.331V37.6296ZM118.331 38.9722H119.673V40.3148H118.331V38.9722ZM119.673 37.6296H121.016V38.9722H119.673V37.6296ZM121.016 37.6296H122.359V38.9722H121.016V37.6296ZM121.016 38.9722H122.359V40.3148H121.016V38.9722ZM119.673 38.9722H121.016V40.3148H119.673V38.9722ZM119.673 40.3148H121.016V41.6574H119.673V40.3148ZM121.016 40.3148H122.359V41.6574H121.016V40.3148ZM122.359 40.3148H123.701V41.6574H122.359V40.3148ZM122.359 38.9722H123.701V40.3148H122.359V38.9722ZM121.016 41.6574H122.359V43H121.016V41.6574ZM122.359 41.6574H123.701V43H122.359V41.6574ZM123.701 41.6574H125.044V43H123.701V41.6574ZM125.044 41.6574H126.386V43H125.044V41.6574ZM126.386 41.6574H127.729V43H126.386V41.6574ZM125.044 40.3148H126.386V41.6574H125.044V40.3148ZM123.701 40.3148H125.044V41.6574H123.701V40.3148ZM126.386 40.3148H127.729V41.6574H126.386V40.3148ZM127.729 40.3148H129.072V41.6574H127.729V40.3148ZM127.729 41.6574H129.072V43H127.729V41.6574ZM129.072 40.3148H130.414V41.6574H129.072V40.3148ZM127.729 38.9722H129.072V40.3148H127.729V38.9722ZM126.386 38.9722H127.729V40.3148H126.386V38.9722ZM129.072 38.9722H130.414V40.3148H129.072V38.9722ZM130.414 38.9722H131.757V40.3148H130.414V38.9722ZM130.414 37.6296H131.757V38.9722H130.414V37.6296ZM130.414 36.287H131.757V37.6296H130.414V36.287ZM129.072 36.287H130.414V37.6296H129.072V36.287ZM129.072 34.9444H130.414V36.287H129.072V34.9444ZM127.729 36.287H129.072V37.6296H127.729V36.287ZM126.386 36.287H127.729V37.6296H126.386V36.287ZM127.729 37.6296H129.072V38.9722H127.729V37.6296ZM129.072 37.6296H130.414V38.9722H129.072V37.6296ZM122.359 30.9166H123.701V32.2592H122.359V30.9166ZM145.179 43H143.836V41.6574H145.179V43ZM142.494 43H141.151V41.6574H142.494V43ZM141.151 43H139.808V41.6574H141.151V43ZM139.808 43H138.466V41.6574H139.808V43ZM138.466 43H137.123V41.6574H138.466V43ZM137.123 41.6574H135.781V40.3148H137.123V41.6574ZM138.466 41.6574H137.123V40.3148H138.466V41.6574ZM139.808 41.6574H138.466V40.3148H139.808V41.6574ZM141.151 41.6574H139.808V40.3148H141.151V41.6574ZM142.494 41.6574H141.151V40.3148H142.494V41.6574ZM143.836 41.6574H142.494V40.3148H143.836V41.6574ZM145.179 41.6574H143.836V40.3148H145.179V41.6574ZM146.521 41.6574H145.179V40.3148H146.521V41.6574ZM146.521 40.3148H145.179V38.9722H146.521V40.3148ZM145.179 40.3148H143.836V38.9722H145.179V40.3148ZM147.864 40.3148H146.521V38.9722H147.864V40.3148ZM147.864 38.9722H146.521V37.6296H147.864V38.9722ZM147.864 37.6296H146.521V36.287H147.864V37.6296ZM146.521 37.6296H145.179V36.287H146.521V37.6296ZM145.179 37.6296H143.836V36.287H145.179V37.6296ZM145.179 38.9722H143.836V37.6296H145.179V38.9722ZM146.521 38.9722H145.179V37.6296H146.521V38.9722ZM146.521 36.287H145.179V34.9444H146.521V36.287ZM146.521 34.9444H145.179V33.6018H146.521V34.9444ZM146.521 33.6018H145.179V32.2592H146.521V33.6018ZM147.864 33.6018H146.521V32.2592H147.864V33.6018ZM147.864 32.2592H146.521V30.9166H147.864V32.2592ZM147.864 34.9444H146.521V33.6018H147.864V34.9444ZM147.864 36.287H146.521V34.9444H147.864V36.287ZM145.179 36.287H143.836V34.9444H145.179V36.287ZM145.179 34.9444H143.836V33.6018H145.179V34.9444ZM145.179 33.6018H143.836V32.2592H145.179V33.6018ZM145.179 32.2592H143.836V30.9166H145.179V32.2592ZM146.521 32.2592H145.179V30.9166H146.521V32.2592ZM146.521 30.9166H145.179V29.5741H146.521V30.9166ZM145.179 30.9166H143.836V29.5741H145.179V30.9166ZM143.836 30.9166H142.494V29.5741H143.836V30.9166ZM143.836 32.2592H142.494V30.9166H143.836V32.2592ZM145.179 29.5741H143.836V28.2315H145.179V29.5741ZM143.836 29.5741H142.494V28.2315H143.836V29.5741ZM142.494 29.5741H141.151V28.2315H142.494V29.5741ZM141.151 29.5741H139.808V28.2315H141.151V29.5741ZM139.808 29.5741H138.466V28.2315H139.808V29.5741ZM138.466 29.5741H137.123V28.2315H138.466V29.5741ZM139.808 30.9166H138.466V29.5741H139.808V30.9166ZM141.151 30.9166H139.808V29.5741H141.151V30.9166ZM142.494 30.9166H141.151V29.5741H142.494V30.9166ZM138.466 30.9166H137.123V29.5741H138.466V30.9166ZM137.123 30.9166H135.781V29.5741H137.123V30.9166ZM138.466 32.2592H137.123V30.9166H138.466V32.2592ZM139.808 32.2592H138.466V30.9166H139.808V32.2592ZM137.123 32.2592H135.781V30.9166H137.123V32.2592ZM135.781 32.2592H134.438V30.9166H135.781V32.2592ZM137.123 38.9722H135.781V37.6296H137.123V38.9722ZM135.781 38.9722H134.438V37.6296H135.781V38.9722ZM135.781 40.3148H134.438V38.9722H135.781V40.3148ZM138.466 38.9722H137.123V37.6296H138.466V38.9722ZM138.466 40.3148H137.123V38.9722H138.466V40.3148ZM137.123 40.3148H135.781V38.9722H137.123V40.3148ZM142.494 32.2592H141.151V30.9166H142.494V32.2592ZM141.151 32.2592H139.808V30.9166H141.151V32.2592ZM137.123 37.6296H135.781V36.287H137.123V37.6296ZM138.466 37.6296H137.123V36.287H138.466V37.6296ZM142.494 36.287H141.151V34.9444H142.494V36.287ZM141.151 36.287H139.808V34.9444H141.151V36.287ZM139.808 36.287H138.466V34.9444H139.808V36.287ZM138.466 36.287H137.123V34.9444H138.466V36.287ZM143.836 36.287H142.494V34.9444H143.836V36.287ZM146.521 40.3148H147.864V41.6574H146.521V40.3148ZM146.521 41.6574H147.864V43H146.521V41.6574ZM145.179 41.6574H146.521V43H145.179V41.6574ZM142.494 33.6018H143.836V34.9444H142.494V33.6018ZM141.151 33.6018H142.494V34.9444H141.151V33.6018ZM139.808 33.6018H141.151V34.9444H139.808V33.6018ZM138.466 33.6018H139.808V34.9444H138.466V33.6018ZM137.123 33.6018H138.466V34.9444H137.123V33.6018ZM135.781 34.9444H137.123V36.287H135.781V34.9444ZM134.438 36.287H135.781V37.6296H134.438V36.287ZM138.466 38.9722H139.808V40.3148H138.466V38.9722ZM139.808 38.9722H141.151V40.3148H139.808V38.9722ZM141.151 38.9722H142.494V40.3148H141.151V38.9722ZM142.494 38.9722H143.836V40.3148H142.494V38.9722ZM150.545 22.8611H151.888V24.2037H150.545V22.8611ZM150.545 24.2037H151.888V25.5463H150.545V24.2037ZM150.545 25.5463H151.888V26.8889H150.545V25.5463ZM150.545 26.8889H151.888V28.2315H150.545V26.8889ZM150.545 28.2315H151.888V29.5741H150.545V28.2315ZM150.545 29.5741H151.888V30.9166H150.545V29.5741ZM150.545 40.3148H151.888V41.6574H150.545V40.3148ZM150.545 41.6574H151.888V43H150.545V41.6574ZM151.888 41.6574H153.23V43H151.888V41.6574ZM153.23 22.8611H154.573V24.2037H153.23V22.8611ZM151.888 22.8611H153.23V24.2037H151.888V22.8611ZM151.888 24.2037H153.23V25.5463H151.888V24.2037ZM153.23 24.2037H154.573V25.5463H153.23V24.2037ZM153.23 25.5463H154.573V26.8889H153.23V25.5463ZM153.23 26.8889H154.573V28.2315H153.23V26.8889ZM151.888 28.2315H153.23V29.5741H151.888V28.2315ZM151.888 26.8889H153.23V28.2315H151.888V26.8889ZM151.888 25.5463H153.23V26.8889H151.888V25.5463ZM155.916 28.2315H157.258V29.5741H155.916V28.2315ZM157.258 28.2315H158.601V29.5741H157.258V28.2315ZM158.601 28.2315H159.943V29.5741H158.601V28.2315ZM159.943 28.2315H161.286V29.5741H159.943V28.2315ZM161.286 29.5741H162.629V30.9166H161.286V29.5741ZM159.943 29.5741H161.286V30.9166H159.943V29.5741ZM158.601 29.5741H159.943V30.9166H158.601V29.5741ZM157.258 29.5741H158.601V30.9166H157.258V29.5741ZM155.916 29.5741H157.258V30.9166H155.916V29.5741ZM154.573 29.5741H155.916V30.9166H154.573V29.5741ZM151.888 29.5741H153.23V30.9166H151.888V29.5741ZM153.23 37.6296H154.573V38.9722H153.23V37.6296ZM154.573 40.3148H155.916V41.6574H154.573V40.3148ZM154.573 38.9722H155.916V40.3148H154.573V38.9722ZM154.573 41.6574H155.916V43H154.573V41.6574ZM155.916 41.6574H157.258V43H155.916V41.6574ZM157.258 41.6574H158.601V43H157.258V41.6574ZM158.601 41.6574H159.943V43H158.601V41.6574ZM159.943 41.6574H161.286V43H159.943V41.6574ZM158.601 40.3148H159.943V41.6574H158.601V40.3148ZM157.258 40.3148H158.601V41.6574H157.258V40.3148ZM155.916 40.3148H157.258V41.6574H155.916V40.3148ZM159.943 40.3148H161.286V41.6574H159.943V40.3148ZM161.286 40.3148H162.629V41.6574H161.286V40.3148ZM159.943 38.9722H161.286V40.3148H159.943V38.9722ZM158.601 38.9722H159.943V40.3148H158.601V38.9722ZM161.286 38.9722H162.629V40.3148H161.286V38.9722ZM162.629 38.9722H163.971V40.3148H162.629V38.9722ZM162.629 37.6296H163.971V38.9722H162.629V37.6296ZM161.286 36.287H162.629V37.6296H161.286V36.287ZM161.286 37.6296H162.629V38.9722H161.286V37.6296ZM159.943 37.6296H161.286V38.9722H159.943V37.6296ZM162.629 36.287H163.971V37.6296H162.629V36.287ZM162.629 34.9444H163.971V36.287H162.629V34.9444ZM161.286 34.9444H162.629V36.287H161.286V34.9444ZM161.286 33.6018H162.629V34.9444H161.286V33.6018ZM161.286 32.2592H162.629V33.6018H161.286V32.2592ZM162.629 32.2592H163.971V33.6018H162.629V32.2592ZM162.629 30.9166H163.971V32.2592H162.629V30.9166ZM162.629 33.6018H163.971V34.9444H162.629V33.6018ZM159.943 34.9444H161.286V36.287H159.943V34.9444ZM159.943 36.287H161.286V37.6296H159.943V36.287ZM159.943 33.6018H161.286V34.9444H159.943V33.6018ZM159.943 32.2592H161.286V33.6018H159.943V32.2592ZM159.943 30.9166H161.286V32.2592H159.943V30.9166ZM158.601 30.9166H159.943V32.2592H158.601V30.9166ZM161.286 30.9166H162.629V32.2592H161.286V30.9166ZM154.573 30.9166H155.916V32.2592H154.573V30.9166ZM155.916 30.9166H157.258V32.2592H155.916V30.9166ZM157.258 30.9166H158.601V32.2592H157.258V30.9166ZM155.916 38.9722H157.258V40.3148H155.916V38.9722ZM157.258 38.9722H158.601V40.3148H157.258V38.9722ZM153.23 41.6574H154.573V43H153.23V41.6574ZM153.23 40.3148H154.573V41.6574H153.23V40.3148ZM153.23 38.9722H154.573V40.3148H153.23V38.9722ZM151.888 38.9722H153.23V40.3148H151.888V38.9722ZM151.888 40.3148H153.23V41.6574H151.888V40.3148ZM151.888 37.6296H153.23V38.9722H151.888V37.6296ZM153.23 36.287H154.573V37.6296H153.23V36.287ZM153.23 34.9444H154.573V36.287H153.23V34.9444ZM153.23 33.6018H154.573V34.9444H153.23V33.6018ZM153.23 32.2592H154.573V33.6018H153.23V32.2592ZM153.23 30.9166H154.573V32.2592H153.23V30.9166ZM153.23 29.5741H154.573V30.9166H153.23V29.5741ZM153.23 28.2315H154.573V29.5741H153.23V28.2315ZM151.888 30.9166H153.23V32.2592H151.888V30.9166ZM151.888 32.2592H153.23V33.6018H151.888V32.2592ZM151.888 33.6018H153.23V34.9444H151.888V33.6018ZM151.888 34.9444H153.23V36.287H151.888V34.9444ZM151.888 36.287H153.23V37.6296H151.888V36.287ZM150.545 37.6296H151.888V38.9722H150.545V37.6296ZM150.545 38.9722H151.888V40.3148H150.545V38.9722ZM150.545 36.287H151.888V37.6296H150.545V36.287ZM150.545 34.9444H151.888V36.287H150.545V34.9444ZM150.545 33.6018H151.888V34.9444H150.545V33.6018ZM150.545 32.2592H151.888V33.6018H150.545V32.2592ZM150.545 30.9166H151.888V32.2592H150.545V30.9166ZM154.573 32.2592H155.916V33.6018H154.573V32.2592ZM169.338 28.2315H170.68V29.5741H169.338V28.2315ZM170.68 28.2315H172.023V29.5741H170.68V28.2315ZM172.023 28.2315H173.365V29.5741H172.023V28.2315ZM173.365 28.2315H174.708V29.5741H173.365V28.2315ZM174.708 28.2315H176.051V29.5741H174.708V28.2315ZM176.051 28.2315H177.393V29.5741H176.051V28.2315ZM177.393 29.5741H178.736V30.9166H177.393V29.5741ZM176.051 29.5741H177.393V30.9166H176.051V29.5741ZM174.708 29.5741H176.051V30.9166H174.708V29.5741ZM173.365 29.5741H174.708V30.9166H173.365V29.5741ZM172.023 29.5741H173.365V30.9166H172.023V29.5741ZM170.68 29.5741H172.023V30.9166H170.68V29.5741ZM169.338 29.5741H170.68V30.9166H169.338V29.5741ZM167.995 29.5741H169.338V30.9166H167.995V29.5741ZM167.995 30.9166H169.338V32.2592H167.995V30.9166ZM169.338 30.9166H170.68V32.2592H169.338V30.9166ZM166.652 30.9166H167.995V32.2592H166.652V30.9166ZM166.652 32.2592H167.995V33.6018H166.652V32.2592ZM166.652 33.6018H167.995V34.9444H166.652V33.6018ZM167.995 33.6018H169.338V34.9444H167.995V33.6018ZM169.338 33.6018H170.68V34.9444H169.338V33.6018ZM169.338 32.2592H170.68V33.6018H169.338V32.2592ZM167.995 32.2592H169.338V33.6018H167.995V32.2592ZM167.995 34.9444H169.338V36.287H167.995V34.9444ZM167.995 36.287H169.338V37.6296H167.995V36.287ZM167.995 37.6296H169.338V38.9722H167.995V37.6296ZM166.652 37.6296H167.995V38.9722H166.652V37.6296ZM166.652 38.9722H167.995V40.3148H166.652V38.9722ZM166.652 36.287H167.995V37.6296H166.652V36.287ZM166.652 34.9444H167.995V36.287H166.652V34.9444ZM169.338 34.9444H170.68V36.287H169.338V34.9444ZM169.338 36.287H170.68V37.6296H169.338V36.287ZM169.338 37.6296H170.68V38.9722H169.338V37.6296ZM169.338 38.9722H170.68V40.3148H169.338V38.9722ZM167.995 38.9722H169.338V40.3148H167.995V38.9722ZM167.995 40.3148H169.338V41.6574H167.995V40.3148ZM169.338 40.3148H170.68V41.6574H169.338V40.3148ZM170.68 40.3148H172.023V41.6574H170.68V40.3148ZM170.68 38.9722H172.023V40.3148H170.68V38.9722ZM169.338 41.6574H170.68V43H169.338V41.6574ZM170.68 41.6574H172.023V43H170.68V41.6574ZM172.023 41.6574H173.365V43H172.023V41.6574ZM173.365 41.6574H174.708V43H173.365V41.6574ZM174.708 41.6574H176.051V43H174.708V41.6574ZM176.051 41.6574H177.393V43H176.051V41.6574ZM174.708 40.3148H176.051V41.6574H174.708V40.3148ZM173.365 40.3148H174.708V41.6574H173.365V40.3148ZM172.023 40.3148H173.365V41.6574H172.023V40.3148ZM176.051 40.3148H177.393V41.6574H176.051V40.3148ZM177.393 40.3148H178.736V41.6574H177.393V40.3148ZM176.051 38.9722H177.393V40.3148H176.051V38.9722ZM174.708 38.9722H176.051V40.3148H174.708V38.9722ZM177.393 38.9722H178.736V40.3148H177.393V38.9722ZM178.736 38.9722H180.078V40.3148H178.736V38.9722ZM178.736 37.6296H180.078V38.9722H178.736V37.6296ZM177.393 36.287H178.736V37.6296H177.393V36.287ZM177.393 37.6296H178.736V38.9722H177.393V37.6296ZM176.051 37.6296H177.393V38.9722H176.051V37.6296ZM178.736 36.287H180.078V37.6296H178.736V36.287ZM178.736 34.9444H180.078V36.287H178.736V34.9444ZM177.393 34.9444H178.736V36.287H177.393V34.9444ZM177.393 33.6018H178.736V34.9444H177.393V33.6018ZM177.393 32.2592H178.736V33.6018H177.393V32.2592ZM178.736 32.2592H180.078V33.6018H178.736V32.2592ZM178.736 30.9166H180.078V32.2592H178.736V30.9166ZM178.736 33.6018H180.078V34.9444H178.736V33.6018ZM176.051 34.9444H177.393V36.287H176.051V34.9444ZM176.051 36.287H177.393V37.6296H176.051V36.287ZM176.051 33.6018H177.393V34.9444H176.051V33.6018ZM176.051 32.2592H177.393V33.6018H176.051V32.2592ZM176.051 30.9166H177.393V32.2592H176.051V30.9166ZM174.708 30.9166H176.051V32.2592H174.708V30.9166ZM177.393 30.9166H178.736V32.2592H177.393V30.9166ZM170.68 30.9166H172.023V32.2592H170.68V30.9166ZM172.023 30.9166H173.365V32.2592H172.023V30.9166ZM173.365 30.9166H174.708V32.2592H173.365V30.9166ZM172.023 38.9722H173.365V40.3148H172.023V38.9722ZM173.365 38.9722H174.708V40.3148H173.365V38.9722ZM188.13 24.2037H189.473V25.5463H188.13V24.2037ZM188.13 25.5463H189.473V26.8889H188.13V25.5463ZM186.787 25.5463H188.13V26.8889H186.787V25.5463ZM188.13 26.8889H189.473V28.2315H188.13V26.8889ZM186.787 26.8889H188.13V28.2315H186.787V26.8889ZM185.445 26.8889H186.787V28.2315H185.445V26.8889ZM185.445 28.2315H186.787V29.5741H185.445V28.2315ZM186.787 28.2315H188.13V29.5741H186.787V28.2315ZM188.13 28.2315H189.473V29.5741H188.13V28.2315ZM188.13 29.5741H189.473V30.9166H188.13V29.5741ZM186.787 29.5741H188.13V30.9166H186.787V29.5741ZM185.445 29.5741H186.787V30.9166H185.445V29.5741ZM184.102 29.5741H185.445V30.9166H184.102V29.5741ZM182.76 29.5741H184.102V30.9166H182.76V29.5741ZM182.76 30.9166H184.102V32.2592H182.76V30.9166ZM184.102 30.9166H185.445V32.2592H184.102V30.9166ZM185.445 30.9166H186.787V32.2592H185.445V30.9166ZM186.787 30.9166H188.13V32.2592H186.787V30.9166ZM188.13 30.9166H189.473V32.2592H188.13V30.9166ZM189.473 30.9166H190.815V32.2592H189.473V30.9166ZM190.815 30.9166H192.158V32.2592H190.815V30.9166ZM192.158 30.9166H193.5V32.2592H192.158V30.9166ZM192.158 29.5741H193.5V30.9166H192.158V29.5741ZM190.815 29.5741H192.158V30.9166H190.815V29.5741ZM189.473 29.5741H190.815V30.9166H189.473V29.5741ZM185.445 32.2592H186.787V33.6018H185.445V32.2592ZM186.787 32.2592H188.13V33.6018H186.787V32.2592ZM188.13 32.2592H189.473V33.6018H188.13V32.2592ZM188.13 33.6018H189.473V34.9444H188.13V33.6018ZM188.13 34.9444H189.473V36.287H188.13V34.9444ZM188.13 36.287H189.473V37.6296H188.13V36.287ZM188.13 37.6296H189.473V38.9722H188.13V37.6296ZM186.787 37.6296H188.13V38.9722H186.787V37.6296ZM186.787 36.287H188.13V37.6296H186.787V36.287ZM186.787 34.9444H188.13V36.287H186.787V34.9444ZM186.787 33.6018H188.13V34.9444H186.787V33.6018ZM185.445 33.6018H186.787V34.9444H185.445V33.6018ZM185.445 34.9444H186.787V36.287H185.445V34.9444ZM185.445 36.287H186.787V37.6296H185.445V36.287ZM185.445 37.6296H186.787V38.9722H185.445V37.6296ZM185.445 38.9722H186.787V40.3148H185.445V38.9722ZM186.787 38.9722H188.13V40.3148H186.787V38.9722ZM188.13 38.9722H189.473V40.3148H188.13V38.9722ZM189.473 38.9722H190.815V40.3148H189.473V38.9722ZM189.473 40.3148H190.815V41.6574H189.473V40.3148ZM188.13 40.3148H189.473V41.6574H188.13V40.3148ZM186.787 40.3148H188.13V41.6574H186.787V40.3148ZM190.815 40.3148H192.158V41.6574H190.815V40.3148ZM192.158 40.3148H193.5V41.6574H192.158V40.3148ZM192.158 41.6574H193.5V43H192.158V41.6574ZM190.815 41.6574H192.158V43H190.815V41.6574ZM189.473 41.6574H190.815V43H189.473V41.6574ZM188.13 41.6574H189.473V43H188.13V41.6574ZM206.917 43H205.574V41.6574H206.917V43ZM204.232 43H202.889V41.6574H204.232V43ZM202.889 43H201.547V41.6574H202.889V43ZM201.547 43H200.204V41.6574H201.547V43ZM200.204 43H198.862V41.6574H200.204V43ZM198.862 41.6574H197.519V40.3148H198.862V41.6574ZM200.204 41.6574H198.862V40.3148H200.204V41.6574ZM201.547 41.6574H200.204V40.3148H201.547V41.6574ZM202.889 41.6574H201.547V40.3148H202.889V41.6574ZM204.232 41.6574H202.889V40.3148H204.232V41.6574ZM205.574 41.6574H204.232V40.3148H205.574V41.6574ZM206.917 41.6574H205.574V40.3148H206.917V41.6574ZM208.26 41.6574H206.917V40.3148H208.26V41.6574ZM208.26 40.3148H206.917V38.9722H208.26V40.3148ZM206.917 40.3148H205.574V38.9722H206.917V40.3148ZM209.602 40.3148H208.26V38.9722H209.602V40.3148ZM209.602 38.9722H208.26V37.6296H209.602V38.9722ZM209.602 37.6296H208.26V36.287H209.602V37.6296ZM208.26 37.6296H206.917V36.287H208.26V37.6296ZM206.917 37.6296H205.574V36.287H206.917V37.6296ZM206.917 38.9722H205.574V37.6296H206.917V38.9722ZM208.26 38.9722H206.917V37.6296H208.26V38.9722ZM208.26 36.287H206.917V34.9444H208.26V36.287ZM208.26 34.9444H206.917V33.6018H208.26V34.9444ZM208.26 33.6018H206.917V32.2592H208.26V33.6018ZM209.602 33.6018H208.26V32.2592H209.602V33.6018ZM209.602 32.2592H208.26V30.9166H209.602V32.2592ZM209.602 34.9444H208.26V33.6018H209.602V34.9444ZM209.602 36.287H208.26V34.9444H209.602V36.287ZM206.917 36.287H205.574V34.9444H206.917V36.287ZM206.917 34.9444H205.574V33.6018H206.917V34.9444ZM206.917 33.6018H205.574V32.2592H206.917V33.6018ZM206.917 32.2592H205.574V30.9166H206.917V32.2592ZM208.26 32.2592H206.917V30.9166H208.26V32.2592ZM208.26 30.9166H206.917V29.5741H208.26V30.9166ZM206.917 30.9166H205.574V29.5741H206.917V30.9166ZM205.574 30.9166H204.232V29.5741H205.574V30.9166ZM205.574 32.2592H204.232V30.9166H205.574V32.2592ZM206.917 29.5741H205.574V28.2315H206.917V29.5741ZM205.574 29.5741H204.232V28.2315H205.574V29.5741ZM204.232 29.5741H202.889V28.2315H204.232V29.5741ZM202.889 29.5741H201.547V28.2315H202.889V29.5741ZM201.547 29.5741H200.204V28.2315H201.547V29.5741ZM200.204 29.5741H198.862V28.2315H200.204V29.5741ZM201.547 30.9166H200.204V29.5741H201.547V30.9166ZM202.889 30.9166H201.547V29.5741H202.889V30.9166ZM204.232 30.9166H202.889V29.5741H204.232V30.9166ZM200.204 30.9166H198.862V29.5741H200.204V30.9166ZM198.862 30.9166H197.519V29.5741H198.862V30.9166ZM200.204 32.2592H198.862V30.9166H200.204V32.2592ZM201.547 32.2592H200.204V30.9166H201.547V32.2592ZM198.862 32.2592H197.519V30.9166H198.862V32.2592ZM197.519 32.2592H196.176V30.9166H197.519V32.2592ZM198.862 38.9722H197.519V37.6296H198.862V38.9722ZM197.519 38.9722H196.176V37.6296H197.519V38.9722ZM197.519 40.3148H196.176V38.9722H197.519V40.3148ZM200.204 38.9722H198.862V37.6296H200.204V38.9722ZM200.204 40.3148H198.862V38.9722H200.204V40.3148ZM198.862 40.3148H197.519V38.9722H198.862V40.3148ZM204.232 32.2592H202.889V30.9166H204.232V32.2592ZM202.889 32.2592H201.547V30.9166H202.889V32.2592ZM198.862 37.6296H197.519V36.287H198.862V37.6296ZM200.204 37.6296H198.862V36.287H200.204V37.6296ZM204.232 36.287H202.889V34.9444H204.232V36.287ZM202.889 36.287H201.547V34.9444H202.889V36.287ZM201.547 36.287H200.204V34.9444H201.547V36.287ZM200.204 36.287H198.862V34.9444H200.204V36.287ZM205.574 36.287H204.232V34.9444H205.574V36.287ZM208.26 40.3148H209.602V41.6574H208.26V40.3148ZM208.26 41.6574H209.602V43H208.26V41.6574ZM206.917 41.6574H208.26V43H206.917V41.6574ZM204.232 33.6018H205.574V34.9444H204.232V33.6018ZM202.889 33.6018H204.232V34.9444H202.889V33.6018ZM201.547 33.6018H202.889V34.9444H201.547V33.6018ZM200.204 33.6018H201.547V34.9444H200.204V33.6018ZM198.862 33.6018H200.204V34.9444H198.862V33.6018ZM197.519 34.9444H198.862V36.287H197.519V34.9444ZM196.176 36.287H197.519V37.6296H196.176V36.287ZM200.204 38.9722H201.547V40.3148H200.204V38.9722ZM201.547 38.9722H202.889V40.3148H201.547V38.9722ZM202.889 38.9722H204.232V40.3148H202.889V38.9722ZM204.232 38.9722H205.574V40.3148H204.232V38.9722ZM224.367 28.2315H225.709V29.5741H224.367V28.2315ZM223.024 28.2315H224.367V29.5741H223.024V28.2315ZM220.339 28.2315H221.682V29.5741H220.339V28.2315ZM218.997 28.2315H220.339V29.5741H218.997V28.2315ZM217.654 28.2315H218.997V29.5741H217.654V28.2315ZM216.311 28.2315H217.654V29.5741H216.311V28.2315ZM214.969 28.2315H216.311V29.5741H214.969V28.2315ZM214.969 29.5741H216.311V30.9166H214.969V29.5741ZM216.311 29.5741H217.654V30.9166H216.311V29.5741ZM221.682 29.5741H223.024V30.9166H221.682V29.5741ZM221.682 28.2315H223.024V29.5741H221.682V28.2315ZM218.997 29.5741H220.339V30.9166H218.997V29.5741ZM217.654 29.5741H218.997V30.9166H217.654V29.5741ZM220.339 29.5741H221.682V30.9166H220.339V29.5741ZM223.024 29.5741H224.367V30.9166H223.024V29.5741ZM224.367 29.5741H225.709V30.9166H224.367V29.5741ZM217.654 30.9166H218.997V32.2592H217.654V30.9166ZM218.997 30.9166H220.339V32.2592H218.997V30.9166ZM220.339 30.9166H221.682V32.2592H220.339V30.9166ZM221.682 30.9166H223.024V32.2592H221.682V30.9166ZM223.024 30.9166H224.367V32.2592H223.024V30.9166ZM224.367 30.9166H225.709V32.2592H224.367V30.9166ZM216.311 30.9166H217.654V32.2592H216.311V30.9166ZM214.969 30.9166H216.311V32.2592H214.969V30.9166ZM213.626 29.5741H214.969V30.9166H213.626V29.5741ZM213.626 30.9166H214.969V32.2592H213.626V30.9166ZM212.284 30.9166H213.626V32.2592H212.284V30.9166ZM212.284 32.2592H213.626V33.6018H212.284V32.2592ZM212.284 33.6018H213.626V34.9444H212.284V33.6018ZM213.626 33.6018H214.969V34.9444H213.626V33.6018ZM214.969 33.6018H216.311V34.9444H214.969V33.6018ZM214.969 32.2592H216.311V33.6018H214.969V32.2592ZM213.626 32.2592H214.969V33.6018H213.626V32.2592ZM212.284 34.9444H213.626V36.287H212.284V34.9444ZM212.284 36.287H213.626V37.6296H212.284V36.287ZM212.284 37.6296H213.626V38.9722H212.284V37.6296ZM213.626 37.6296H214.969V38.9722H213.626V37.6296ZM214.969 37.6296H216.311V38.9722H214.969V37.6296ZM214.969 36.287H216.311V37.6296H214.969V36.287ZM214.969 34.9444H216.311V36.287H214.969V34.9444ZM213.626 34.9444H214.969V36.287H213.626V34.9444ZM213.626 36.287H214.969V37.6296H213.626V36.287ZM213.626 38.9722H214.969V40.3148H213.626V38.9722ZM214.969 38.9722H216.311V40.3148H214.969V38.9722ZM216.311 38.9722H217.654V40.3148H216.311V38.9722ZM216.311 37.6296H217.654V38.9722H216.311V37.6296ZM214.969 40.3148H216.311V41.6574H214.969V40.3148ZM216.311 40.3148H217.654V41.6574H216.311V40.3148ZM217.654 40.3148H218.997V41.6574H217.654V40.3148ZM217.654 38.9722H218.997V40.3148H217.654V38.9722ZM218.997 38.9722H220.339V40.3148H218.997V38.9722ZM218.997 40.3148H220.339V41.6574H218.997V40.3148ZM217.654 37.6296H218.997V38.9722H217.654V37.6296ZM218.997 37.6296H220.339V38.9722H218.997V37.6296ZM220.339 37.6296H221.682V38.9722H220.339V37.6296ZM221.682 37.6296H223.024V38.9722H221.682V37.6296ZM223.024 37.6296H224.367V38.9722H223.024V37.6296ZM221.682 38.9722H223.024V40.3148H221.682V38.9722ZM221.682 40.3148H223.024V41.6574H221.682V40.3148ZM220.339 38.9722H221.682V40.3148H220.339V38.9722ZM221.682 36.287H223.024V37.6296H221.682V36.287ZM221.682 34.9444H223.024V36.287H221.682V34.9444ZM221.682 33.6018H223.024V34.9444H221.682V33.6018ZM221.682 32.2592H223.024V33.6018H221.682V32.2592ZM223.024 32.2592H224.367V33.6018H223.024V32.2592ZM224.367 32.2592H225.709V33.6018H224.367V32.2592ZM224.367 33.6018H225.709V34.9444H224.367V33.6018ZM224.367 34.9444H225.709V36.287H224.367V34.9444ZM224.367 36.287H225.709V37.6296H224.367V36.287ZM224.367 37.6296H225.709V38.9722H224.367V37.6296ZM223.024 38.9722H224.367V40.3148H223.024V38.9722ZM223.024 36.287H224.367V37.6296H223.024V36.287ZM223.024 34.9444H224.367V36.287H223.024V34.9444ZM223.024 33.6018H224.367V34.9444H223.024V33.6018ZM223.024 40.3148H224.367V41.6574H223.024V40.3148ZM224.367 40.3148H225.709V41.6574H224.367V40.3148ZM224.367 38.9722H225.709V40.3148H224.367V38.9722ZM221.682 41.6574H223.024V43H221.682V41.6574ZM221.682 43H223.024V44.3426H221.682V43ZM221.682 44.3426H223.024V45.6852H221.682V44.3426ZM223.024 44.3426H224.367V45.6852H223.024V44.3426ZM224.367 44.3426H225.709V45.6852H224.367V44.3426ZM224.367 43H225.709V44.3426H224.367V43ZM224.367 41.6574H225.709V43H224.367V41.6574ZM223.024 41.6574H224.367V43H223.024V41.6574ZM223.024 43H224.367V44.3426H223.024V43ZM223.024 45.6852H224.367V47.0278H223.024V45.6852ZM221.682 45.6852H223.024V47.0278H221.682V45.6852ZM220.339 45.6852H221.682V47.0278H220.339V45.6852ZM220.339 44.3426H221.682V45.6852H220.339V44.3426ZM221.682 47.0278H223.024V48.3704H221.682V47.0278ZM220.339 47.0278H221.682V48.3704H220.339V47.0278ZM218.997 47.0278H220.339V48.3704H218.997V47.0278ZM218.997 45.6852H220.339V47.0278H218.997V45.6852ZM217.654 45.6852H218.997V47.0278H217.654V45.6852ZM216.311 45.6852H217.654V47.0278H216.311V45.6852ZM214.969 47.0278H216.311V48.3704H214.969V47.0278ZM216.311 47.0278H217.654V48.3704H216.311V47.0278ZM217.654 47.0278H218.997V48.3704H217.654V47.0278ZM214.969 45.6852H216.311V47.0278H214.969V45.6852ZM213.626 45.6852H214.969V47.0278H213.626V45.6852ZM214.969 44.3426H216.311V45.6852H214.969V44.3426ZM216.311 44.3426H217.654V45.6852H216.311V44.3426ZM213.626 44.3426H214.969V45.6852H213.626V44.3426ZM214.969 43H216.311V44.3426H214.969V43ZM213.626 43H214.969V44.3426H213.626V43ZM212.284 43H213.626V44.3426H212.284V43ZM212.284 44.3426H213.626V45.6852H212.284V44.3426ZM231.076 28.2315H232.419V29.5741H231.076V28.2315ZM232.419 28.2315H233.761V29.5741H232.419V28.2315ZM233.761 28.2315H235.104V29.5741H233.761V28.2315ZM235.104 28.2315H236.446V29.5741H235.104V28.2315ZM236.446 28.2315H237.789V29.5741H236.446V28.2315ZM237.789 28.2315H239.131V29.5741H237.789V28.2315ZM239.131 29.5741H240.474V30.9166H239.131V29.5741ZM237.789 29.5741H239.131V30.9166H237.789V29.5741ZM236.446 29.5741H237.789V30.9166H236.446V29.5741ZM235.104 29.5741H236.446V30.9166H235.104V29.5741ZM233.761 29.5741H235.104V30.9166H233.761V29.5741ZM232.419 29.5741H233.761V30.9166H232.419V29.5741ZM231.076 29.5741H232.419V30.9166H231.076V29.5741ZM229.733 29.5741H231.076V30.9166H229.733V29.5741ZM229.733 30.9166H231.076V32.2592H229.733V30.9166ZM231.076 30.9166H232.419V32.2592H231.076V30.9166ZM228.391 30.9166H229.733V32.2592H228.391V30.9166ZM228.391 32.2592H229.733V33.6018H228.391V32.2592ZM228.391 33.6018H229.733V34.9444H228.391V33.6018ZM229.733 33.6018H231.076V34.9444H229.733V33.6018ZM231.076 33.6018H232.419V34.9444H231.076V33.6018ZM231.076 32.2592H232.419V33.6018H231.076V32.2592ZM229.733 32.2592H231.076V33.6018H229.733V32.2592ZM229.733 34.9444H231.076V36.287H229.733V34.9444ZM229.733 36.287H231.076V37.6296H229.733V36.287ZM229.733 37.6296H231.076V38.9722H229.733V37.6296ZM228.391 37.6296H229.733V38.9722H228.391V37.6296ZM228.391 38.9722H229.733V40.3148H228.391V38.9722ZM228.391 36.287H229.733V37.6296H228.391V36.287ZM228.391 34.9444H229.733V36.287H228.391V34.9444ZM231.076 34.9444H232.419V36.287H231.076V34.9444ZM231.076 36.287H232.419V37.6296H231.076V36.287ZM231.076 37.6296H232.419V38.9722H231.076V37.6296ZM231.076 38.9722H232.419V40.3148H231.076V38.9722ZM229.733 38.9722H231.076V40.3148H229.733V38.9722ZM229.733 40.3148H231.076V41.6574H229.733V40.3148ZM231.076 40.3148H232.419V41.6574H231.076V40.3148ZM232.419 40.3148H233.761V41.6574H232.419V40.3148ZM232.419 38.9722H233.761V40.3148H232.419V38.9722ZM231.076 41.6574H232.419V43H231.076V41.6574ZM232.419 41.6574H233.761V43H232.419V41.6574ZM233.761 41.6574H235.104V43H233.761V41.6574ZM235.104 41.6574H236.446V43H235.104V41.6574ZM236.446 41.6574H237.789V43H236.446V41.6574ZM237.789 41.6574H239.131V43H237.789V41.6574ZM236.446 40.3148H237.789V41.6574H236.446V40.3148ZM235.104 40.3148H236.446V41.6574H235.104V40.3148ZM233.761 40.3148H235.104V41.6574H233.761V40.3148ZM237.789 40.3148H239.131V41.6574H237.789V40.3148ZM239.131 40.3148H240.474V41.6574H239.131V40.3148ZM237.789 38.9722H239.131V40.3148H237.789V38.9722ZM236.446 38.9722H237.789V40.3148H236.446V38.9722ZM239.131 38.9722H240.474V40.3148H239.131V38.9722ZM240.474 38.9722H241.817V40.3148H240.474V38.9722ZM239.131 32.2592H240.474V33.6018H239.131V32.2592ZM240.474 32.2592H241.817V33.6018H240.474V32.2592ZM240.474 30.9166H241.817V32.2592H240.474V30.9166ZM237.789 32.2592H239.131V33.6018H237.789V32.2592ZM237.789 30.9166H239.131V32.2592H237.789V30.9166ZM239.131 30.9166H240.474V32.2592H239.131V30.9166ZM233.761 38.9722H235.104V40.3148H233.761V38.9722ZM235.104 38.9722H236.446V40.3148H235.104V38.9722ZM240.474 33.6018H241.817V34.9444H240.474V33.6018ZM239.131 33.6018H240.474V34.9444H239.131V33.6018ZM237.789 33.6018H239.131V34.9444H237.789V33.6018ZM233.761 34.9444H235.104V36.287H233.761V34.9444ZM235.104 34.9444H236.446V36.287H235.104V34.9444ZM236.446 34.9444H237.789V36.287H236.446V34.9444ZM237.789 34.9444H239.131V36.287H237.789V34.9444ZM239.131 34.9444H240.474V36.287H239.131V34.9444ZM240.474 34.9444H241.817V36.287H240.474V34.9444ZM232.419 34.9444H233.761V36.287H232.419V34.9444ZM232.419 30.9166H233.761V32.2592H232.419V30.9166ZM233.761 30.9166H235.104V32.2592H233.761V30.9166ZM235.104 30.9166H236.446V32.2592H235.104V30.9166ZM236.446 30.9166H237.789V32.2592H236.446V30.9166ZM240.474 36.287H241.817V37.6296H240.474V36.287ZM239.131 36.287H240.474V37.6296H239.131V36.287ZM236.446 36.287H237.789V37.6296H236.446V36.287ZM235.104 36.287H236.446V37.6296H235.104V36.287ZM233.761 36.287H235.104V37.6296H233.761V36.287ZM232.419 36.287H233.761V37.6296H232.419V36.287ZM237.789 36.287H239.131V37.6296H237.789V36.287Z" fill="white"/>
</g>
<defs>
<clipPath id="clip0_268_588">
<rect width="66" height="267" fill="white" transform="translate(267) rotate(90)"/>
</clipPath>
</defs>
</svg>
