<svg width="267" height="66" viewBox="0 0 267 66" fill="none" xmlns="http://www.w3.org/2000/svg">
<g clip-path="url(#clip0_268_336)">
<path d="M78.833 65.8604L78.833 59.873L83.8224 59.873L83.8224 65.8604L78.833 65.8604Z" fill="#1B4300"/>
<path d="M111.964 65.8604L111.964 59.873L116.954 59.873L116.954 65.8604L111.964 65.8604Z" fill="#1B4300"/>
<path d="M78.8325 5.98733L78.8325 0L83.822 7.93975e-07L83.822 5.98733L78.8325 5.98733Z" fill="#1B4300"/>
<path d="M111.964 5.98733L111.964 0L116.953 7.93975e-07L116.953 5.98733L111.964 5.98733Z" fill="#1B4300"/>
<path d="M89.7905 65.8604L89.7905 59.873L95.7779 59.873L95.7779 65.8604L89.7905 65.8604Z" fill="#1B4300"/>
<path d="M122.922 65.8604L122.922 59.873L128.909 59.873L128.909 65.8604L122.922 65.8604Z" fill="#1B4300"/>
<path d="M89.7905 5.98733L89.7905 0L95.7779 9.52771e-07L95.7779 5.98733L89.7905 5.98733Z" fill="#1B4300"/>
<path d="M122.922 5.98733L122.922 0L128.909 9.52771e-07L128.909 5.98733L122.922 5.98733Z" fill="#1B4300"/>
<path d="M72.8457 65.8604L72.8457 59.873L78.833 59.873L78.833 65.8604L72.8457 65.8604Z" fill="#1B4300"/>
<path d="M105.977 65.8604L105.977 59.873L111.964 59.873L111.964 65.8604L105.977 65.8604Z" fill="#1B4300"/>
<path d="M72.8457 5.98733L72.8457 0L78.833 9.52771e-07L78.833 5.98733L72.8457 5.98733Z" fill="#1B4300"/>
<path d="M105.977 5.98733L105.977 0L111.964 9.52771e-07L111.964 5.98733L105.977 5.98733Z" fill="#1B4300"/>
<path d="M50.8926 65.8604L50.8926 59.873L56.8799 59.873L56.8799 65.8604L50.8926 65.8604Z" fill="#1B4300"/>
<path d="M50.8926 5.98733L50.8926 0L56.8799 9.52771e-07L56.8799 5.98733L50.8926 5.98733Z" fill="#1B4300"/>
<path d="M67.8564 65.8604L67.8564 59.873L72.8459 59.873L72.8459 65.8604L67.8564 65.8604Z" fill="#1B4300"/>
<path d="M100.988 65.8604L100.988 59.873L105.977 59.873L105.977 65.8604L100.988 65.8604Z" fill="#1B4300"/>
<path d="M67.8564 5.98733L67.8564 0L72.8459 7.93975e-07L72.8459 5.98733L67.8564 5.98733Z" fill="#1B4300"/>
<path d="M100.988 5.98733L100.988 0L105.977 7.93975e-07L105.977 5.98733L100.988 5.98733Z" fill="#1B4300"/>
<path d="M45.9028 65.8604L45.9028 59.873L50.8923 59.873L50.8923 65.8604L45.9028 65.8604Z" fill="#1B4300"/>
<path d="M27.9404 65.8604L27.9404 59.873L33.9278 59.873L33.9278 65.8604L27.9404 65.8604Z" fill="#1B4300"/>
<path d="M45.9028 5.98733L45.9028 0L50.8923 7.93975e-07L50.8923 5.98733L45.9028 5.98733Z" fill="#1B4300"/>
<path d="M27.9404 5.98733L27.9404 0L33.9278 9.52771e-07L33.9278 5.98733L27.9404 5.98733Z" fill="#1B4300"/>
<path d="M61.8687 65.8604L61.8687 59.873L67.856 59.873L67.856 65.8604L61.8687 65.8604Z" fill="#1B4300"/>
<path d="M95 65.8604L95 59.873L100.987 59.873L100.987 65.8604L95 65.8604Z" fill="#1B4300"/>
<path d="M61.8691 5.98733L61.8691 0L67.8565 9.52771e-07L67.8565 5.98733L61.8691 5.98733Z" fill="#1B4300"/>
<path d="M95.0005 5.98733L95.0005 0L100.988 9.52771e-07L100.988 5.98733L95.0005 5.98733Z" fill="#1B4300"/>
<path d="M38.9175 65.8604L38.9175 59.873L45.9027 59.873L45.9027 65.8604L38.9175 65.8604Z" fill="#1B4300"/>
<path d="M22.9512 65.8604L22.9512 59.873L27.9406 59.873L27.9406 65.8604L22.9512 65.8604Z" fill="#1B4300"/>
<path d="M38.917 5.98733L38.917 0L45.9022 1.11157e-06L45.9022 5.98733L38.917 5.98733Z" fill="#1B4300"/>
<path d="M18 60L18 6L249 6.00004L249 60L18 60Z" fill="#6CCC01"/>
<path d="M256 54L256 12L249 12L249 54L256 54Z" fill="#6CCC01"/>
<path d="M261 48L261 18L254 18L254 48L261 48Z" fill="#6CCC01"/>
<path d="M11 54L11 12L18 12L18 54L11 54Z" fill="#6CCC01"/>
<path d="M6 48L6 18L13 18L13 48L6 48Z" fill="#6CCC01"/>
<path d="M22.9512 5.98733L22.9512 0L27.9406 7.93975e-07L27.9406 5.98733L22.9512 5.98733Z" fill="#1B4300"/>
<path d="M83.8223 65.8604L83.8223 59.873L89.8096 59.873L89.8096 65.8604L83.8223 65.8604Z" fill="#1B4300"/>
<path d="M116.954 65.8604L116.954 59.873L122.941 59.873L122.941 65.8604L116.954 65.8604Z" fill="#1B4300"/>
<path d="M83.8218 5.98733L83.8218 0L89.8091 9.52771e-07L89.8091 5.98733L83.8218 5.98733Z" fill="#1B4300"/>
<path d="M116.953 5.98733L116.953 0L122.94 9.52771e-07L122.94 5.98733L116.953 5.98733Z" fill="#1B4300"/>
<path d="M56.8794 65.8604L56.8794 59.873L61.8688 59.873L61.8688 65.8604L56.8794 65.8604Z" fill="#1B4300"/>
<path d="M56.8789 5.98733L56.8789 0L61.8683 7.93975e-07L61.8683 5.98733L56.8789 5.98733Z" fill="#1B4300"/>
<path d="M33.9277 65.8604L33.9277 59.873L38.9172 59.873L38.9172 65.8604L33.9277 65.8604Z" fill="#1B4300"/>
<path d="M17.9619 65.8604L17.9619 59.873L22.9513 59.873L22.9513 65.8604L17.9619 65.8604Z" fill="#1B4300"/>
<path d="M33.9272 5.98733L33.9272 0L38.9167 7.93975e-07L38.9167 5.98733L33.9272 5.98733Z" fill="#1B4300"/>
<path d="M17.9619 5.98733L17.9619 0L22.9513 7.93975e-07L22.9513 5.98733L17.9619 5.98733Z" fill="#1B4300"/>
<path d="M17.9613 59.873L10.9761 59.873L10.9761 53.8857L17.9613 53.8857L17.9613 59.873Z" fill="#1B4300"/>
<path d="M5.98664 17.9619L10.9761 17.9619L10.9761 11.9746L5.98664 11.9746L5.98664 17.9619Z" fill="#1B4300"/>
<path d="M-2.0504e-05 23.9492L5.9873 23.9492L5.9873 17.9619L-2.02423e-05 17.9619L-2.0504e-05 23.9492Z" fill="#1B4300"/>
<path d="M-2.0504e-05 29.9375L5.9873 29.9375L5.9873 23.9502L-2.02423e-05 23.9502L-2.0504e-05 29.9375Z" fill="#1B4300"/>
<path d="M-2.0504e-05 35.9238L5.9873 35.9238L5.9873 29.9365L-2.02423e-05 29.9365L-2.0504e-05 35.9238Z" fill="#1B4300"/>
<path d="M-2.0504e-05 41.9111L5.9873 41.9111L5.9873 35.9238L-2.02423e-05 35.9238L-2.0504e-05 41.9111Z" fill="#1B4300"/>
<path d="M-2.0504e-05 47.8994L5.9873 47.8994L5.9873 41.9121L-2.02423e-05 41.9121L-2.0504e-05 47.8994Z" fill="#1B4300"/>
<path d="M10.9767 53.8867L5.9873 53.8867L5.98731 47.8994L10.9767 47.8994L10.9767 53.8867Z" fill="#1B4300"/>
<path d="M10.9767 11.9756L17.9619 11.9756L17.9619 5.98827L10.9767 5.98827L10.9767 11.9756Z" fill="#1B4300"/>
<path d="M187.989 65.8604L187.989 59.873L183 59.873L183 65.8604L187.989 65.8604Z" fill="#1B4300"/>
<path d="M187.99 5.98733L187.99 0L183 7.93975e-07L183 5.98733L187.99 5.98733Z" fill="#1B4300"/>
<path d="M158.987 65.8604L158.987 59.873L153 59.873L153 65.8604L158.987 65.8604Z" fill="#1B4300"/>
<path d="M177.019 65.8604L177.019 59.873L171.032 59.873L171.032 65.8604L177.019 65.8604Z" fill="#1B4300"/>
<path d="M146.987 65.8604L146.987 59.873L141 59.873L141 65.8604L146.987 65.8604Z" fill="#1B4300"/>
<path d="M134.987 65.8604L134.987 59.873L129 59.873L129 65.8604L134.987 65.8604Z" fill="#1B4300"/>
<path d="M158.987 5.98733L158.987 0L153 9.52771e-07L153 5.98733L158.987 5.98733Z" fill="#1B4300"/>
<path d="M177.019 5.98733L177.019 0L171.032 9.52771e-07L171.032 5.98733L177.019 5.98733Z" fill="#1B4300"/>
<path d="M146.987 5.98733L146.987 0L141 9.52771e-07L141 5.98733L146.987 5.98733Z" fill="#1B4300"/>
<path d="M134.987 5.98733L134.987 0L129 9.52771e-07L129 5.98733L134.987 5.98733Z" fill="#1B4300"/>
<path d="M193.977 65.8604L193.977 59.873L187.989 59.873L187.989 65.8604L193.977 65.8604Z" fill="#1B4300"/>
<path d="M193.977 5.98733L193.977 0L187.989 9.52771e-07L187.989 5.98733L193.977 5.98733Z" fill="#1B4300"/>
<path d="M215.93 65.8604L215.93 59.873L209.942 59.873L209.942 65.8604L215.93 65.8604Z" fill="#1B4300"/>
<path d="M215.93 5.98733L215.93 0L209.942 9.52771e-07L209.942 5.98733L215.93 5.98733Z" fill="#1B4300"/>
<path d="M198.966 65.8604L198.966 59.873L193.976 59.873L193.976 65.8604L198.966 65.8604Z" fill="#1B4300"/>
<path d="M198.966 5.98733L198.966 0L193.976 7.93975e-07L193.976 5.98733L198.966 5.98733Z" fill="#1B4300"/>
<path d="M220.919 65.8604L220.919 59.873L215.93 59.873L215.93 65.8604L220.919 65.8604Z" fill="#1B4300"/>
<path d="M238.882 65.8604L238.882 59.873L232.895 59.873L232.895 65.8604L238.882 65.8604Z" fill="#1B4300"/>
<path d="M220.919 5.98733L220.919 0L215.93 7.93975e-07L215.93 5.98733L220.919 5.98733Z" fill="#1B4300"/>
<path d="M238.882 5.98733L238.882 0L232.895 9.52771e-07L232.895 5.98733L238.882 5.98733Z" fill="#1B4300"/>
<path d="M204.954 65.8604L204.954 59.873L198.966 59.873L198.966 65.8604L204.954 65.8604Z" fill="#1B4300"/>
<path d="M204.953 5.98733L204.953 0L198.966 9.52771e-07L198.966 5.98733L204.953 5.98733Z" fill="#1B4300"/>
<path d="M227.905 65.8604L227.905 59.873L220.92 59.873L220.92 65.8604L227.905 65.8604Z" fill="#1B4300"/>
<path d="M243.871 65.8604L243.871 59.873L238.882 59.873L238.882 65.8604L243.871 65.8604Z" fill="#1B4300"/>
<path d="M227.905 5.98733L227.905 0L220.92 1.11157e-06L220.92 5.98733L227.905 5.98733Z" fill="#1B4300"/>
<path d="M243.871 5.98733L243.871 0L238.882 7.93975e-07L238.882 5.98733L243.871 5.98733Z" fill="#1B4300"/>
<path d="M164.956 65.8604L164.956 59.873L158.968 59.873L158.968 65.8604L164.956 65.8604Z" fill="#1B4300"/>
<path d="M182.987 65.8604L182.987 59.873L177 59.873L177 65.8604L182.987 65.8604Z" fill="#1B4300"/>
<path d="M152.956 65.8604L152.956 59.873L146.968 59.873L146.968 65.8604L152.956 65.8604Z" fill="#1B4300"/>
<path d="M170.987 65.8604L170.987 59.873L165 59.873L165 65.8604L170.987 65.8604Z" fill="#1B4300"/>
<path d="M140.956 65.8604L140.956 59.873L134.968 59.873L134.968 65.8604L140.956 65.8604Z" fill="#1B4300"/>
<path d="M164.956 5.98733L164.956 0L158.969 9.52771e-07L158.969 5.98733L164.956 5.98733Z" fill="#1B4300"/>
<path d="M182.988 5.98733L182.988 0L177 9.52771e-07L177 5.98733L182.988 5.98733Z" fill="#1B4300"/>
<path d="M152.956 5.98733L152.956 0L146.969 9.52771e-07L146.969 5.98733L152.956 5.98733Z" fill="#1B4300"/>
<path d="M170.988 5.98733L170.988 0L165 9.52771e-07L165 5.98733L170.988 5.98733Z" fill="#1B4300"/>
<path d="M140.956 5.98733L140.956 0L134.969 9.52771e-07L134.969 5.98733L140.956 5.98733Z" fill="#1B4300"/>
<path d="M209.943 65.8604L209.943 59.873L204.953 59.873L204.953 65.8604L209.943 65.8604Z" fill="#1B4300"/>
<path d="M209.943 5.98733L209.943 0L204.954 7.93975e-07L204.954 5.98733L209.943 5.98733Z" fill="#1B4300"/>
<path d="M232.895 65.8604L232.895 59.873L227.905 59.873L227.905 65.8604L232.895 65.8604Z" fill="#1B4300"/>
<path d="M248.86 65.8604L248.86 59.873L243.871 59.873L243.871 65.8604L248.86 65.8604Z" fill="#1B4300"/>
<path d="M232.895 5.98733L232.895 0L227.906 7.93975e-07L227.906 5.98733L232.895 5.98733Z" fill="#1B4300"/>
<path d="M248.86 5.98733L248.86 0L243.871 7.93975e-07L243.871 5.98733L248.86 5.98733Z" fill="#1B4300"/>
<path d="M248.861 59.873L255.846 59.873L255.846 53.8857L248.861 53.8857L248.861 59.873Z" fill="#1B4300"/>
<path d="M260.836 17.9619L255.846 17.9619L255.846 11.9746L260.836 11.9746L260.836 17.9619Z" fill="#1B4300"/>
<path d="M266.822 23.9492L260.835 23.9492L260.835 17.9619L266.822 17.9619L266.822 23.9492Z" fill="#1B4300"/>
<path d="M266.822 29.9375L260.835 29.9375L260.835 23.9502L266.822 23.9502L266.822 29.9375Z" fill="#1B4300"/>
<path d="M266.822 35.9238L260.835 35.9238L260.835 29.9365L266.822 29.9365L266.822 35.9238Z" fill="#1B4300"/>
<path d="M266.822 41.9111L260.835 41.9111L260.835 35.9238L266.822 35.9238L266.822 41.9111Z" fill="#1B4300"/>
<path d="M266.822 47.8994L260.835 47.8994L260.835 41.9121L266.822 41.9121L266.822 47.8994Z" fill="#1B4300"/>
<path d="M255.846 53.8867L260.835 53.8867L260.835 47.8994L255.846 47.8994L255.846 53.8867Z" fill="#1B4300"/>
<path d="M255.846 11.9756L248.86 11.9756L248.86 5.98827L255.846 5.98827L255.846 11.9756Z" fill="#1B4300"/>
<path d="M24.6852 22.8611H26.0278V24.2037H24.6852V22.8611ZM24.6852 24.2037H26.0278V25.5463H24.6852V24.2037ZM24.6852 25.5463H26.0278V26.8889H24.6852V25.5463ZM24.6852 26.8889H26.0278V28.2315H24.6852V26.8889ZM24.6852 28.2315H26.0278V29.5741H24.6852V28.2315ZM24.6852 29.5741H26.0278V30.9166H24.6852V29.5741ZM24.6852 30.9166H26.0278V32.2592H24.6852V30.9166ZM24.6852 32.2592H26.0278V33.6018H24.6852V32.2592ZM24.6852 33.6018H26.0278V34.9444H24.6852V33.6018ZM24.6852 34.9444H26.0278V36.287H24.6852V34.9444ZM24.6852 36.287H26.0278V37.6296H24.6852V36.287ZM24.6852 37.6296H26.0278V38.9722H24.6852V37.6296ZM24.6852 38.9722H26.0278V40.3148H24.6852V38.9722ZM24.6852 40.3148H26.0278V41.6574H24.6852V40.3148ZM24.6852 41.6574H26.0278V43H24.6852V41.6574ZM23.3426 41.6574H24.6852V43H23.3426V41.6574ZM23.3426 40.3148H24.6852V41.6574H23.3426V40.3148ZM23.3426 38.9722H24.6852V40.3148H23.3426V38.9722ZM23.3426 24.2037H24.6852V25.5463H23.3426V24.2037ZM23.3426 22.8611H24.6852V24.2037H23.3426V22.8611ZM23.3426 25.5463H24.6852V26.8889H23.3426V25.5463ZM23.3426 26.8889H24.6852V28.2315H23.3426V26.8889ZM23.3426 28.2315H24.6852V29.5741H23.3426V28.2315ZM23.3426 29.5741H24.6852V30.9166H23.3426V29.5741ZM23.3426 30.9166H24.6852V32.2592H23.3426V30.9166ZM23.3426 32.2592H24.6852V33.6018H23.3426V32.2592ZM23.3426 33.6018H24.6852V34.9444H23.3426V33.6018ZM23.3426 34.9444H24.6852V36.287H23.3426V34.9444ZM23.3426 36.287H24.6852V37.6296H23.3426V36.287ZM23.3426 37.6296H24.6852V38.9722H23.3426V37.6296ZM26.0278 41.6574H27.3704V43H26.0278V41.6574ZM26.0278 40.3148H27.3704V41.6574H26.0278V40.3148ZM26.0278 38.9722H27.3704V40.3148H26.0278V38.9722ZM26.0278 37.6296H27.3704V38.9722H26.0278V37.6296ZM26.0278 34.9444H27.3704V36.287H26.0278V34.9444ZM26.0278 33.6018H27.3704V34.9444H26.0278V33.6018ZM26.0278 32.2592H27.3704V33.6018H26.0278V32.2592ZM26.0278 30.9166H27.3704V32.2592H26.0278V30.9166ZM26.0278 29.5741H27.3704V30.9166H26.0278V29.5741ZM26.0278 28.2315H27.3704V29.5741H26.0278V28.2315ZM26.0278 22.8611H27.3704V24.2037H26.0278V22.8611ZM26.0278 24.2037H27.3704V25.5463H26.0278V24.2037ZM26.0278 25.5463H27.3704V26.8889H26.0278V25.5463ZM26.0278 26.8889H27.3704V28.2315H26.0278V26.8889ZM26.0278 36.287H27.3704V37.6296H26.0278V36.287ZM27.3704 41.6574H28.713V43H27.3704V41.6574ZM28.713 41.6574H30.0556V43H28.713V41.6574ZM30.0556 41.6574H31.3982V43H30.0556V41.6574ZM30.0556 40.3148H31.3982V41.6574H30.0556V40.3148ZM30.0556 38.9722H31.3982V40.3148H30.0556V38.9722ZM28.713 38.9722H30.0556V40.3148H28.713V38.9722ZM28.713 40.3148H30.0556V41.6574H28.713V40.3148ZM27.3704 40.3148H28.713V41.6574H27.3704V40.3148ZM27.3704 38.9722H28.713V40.3148H27.3704V38.9722ZM31.3982 38.9722H32.7408V40.3148H31.3982V38.9722ZM31.3982 40.3148H32.7408V41.6574H31.3982V40.3148ZM31.3982 41.6574H32.7408V43H31.3982V41.6574ZM32.7408 41.6574H34.0834V43H32.7408V41.6574ZM32.7408 40.3148H34.0834V41.6574H32.7408V40.3148ZM32.7408 38.9722H34.0834V40.3148H32.7408V38.9722ZM34.0834 38.9722H35.4259V40.3148H34.0834V38.9722ZM34.0834 40.3148H35.4259V41.6574H34.0834V40.3148ZM34.0834 41.6574H35.4259V43H34.0834V41.6574ZM27.3704 22.8611H28.713V24.2037H27.3704V22.8611ZM28.713 22.8611H30.0556V24.2037H28.713V22.8611ZM30.0556 22.8611H31.3982V24.2037H30.0556V22.8611ZM31.3982 22.8611H32.7408V24.2037H31.3982V22.8611ZM32.7408 22.8611H34.0834V24.2037H32.7408V22.8611ZM34.0834 22.8611H35.4259V24.2037H34.0834V22.8611ZM34.0834 24.2037H35.4259V25.5463H34.0834V24.2037ZM34.0834 25.5463H35.4259V26.8889H34.0834V25.5463ZM32.7408 25.5463H34.0834V26.8889H32.7408V25.5463ZM31.3982 25.5463H32.7408V26.8889H31.3982V25.5463ZM30.0556 25.5463H31.3982V26.8889H30.0556V25.5463ZM28.713 25.5463H30.0556V26.8889H28.713V25.5463ZM28.713 24.2037H30.0556V25.5463H28.713V24.2037ZM27.3704 24.2037H28.713V25.5463H27.3704V24.2037ZM27.3704 25.5463H28.713V26.8889H27.3704V25.5463ZM30.0556 24.2037H31.3982V25.5463H30.0556V24.2037ZM31.3982 24.2037H32.7408V25.5463H31.3982V24.2037ZM32.7408 24.2037H34.0834V25.5463H32.7408V24.2037ZM27.3704 30.9166H28.713V32.2592H27.3704V30.9166ZM27.3704 32.2592H28.713V33.6018H27.3704V32.2592ZM27.3704 33.6018H28.713V34.9444H27.3704V33.6018ZM28.713 33.6018H30.0556V34.9444H28.713V33.6018ZM28.713 32.2592H30.0556V33.6018H28.713V32.2592ZM28.713 30.9166H30.0556V32.2592H28.713V30.9166ZM30.0556 30.9166H31.3982V32.2592H30.0556V30.9166ZM30.0556 32.2592H31.3982V33.6018H30.0556V32.2592ZM31.3982 32.2592H32.7408V33.6018H31.3982V32.2592ZM31.3982 30.9166H32.7408V32.2592H31.3982V30.9166ZM31.3982 33.6018H32.7408V34.9444H31.3982V33.6018ZM30.0556 33.6018H31.3982V34.9444H30.0556V33.6018ZM32.7408 30.9166H34.0834V32.2592H32.7408V30.9166ZM32.7408 32.2592H34.0834V33.6018H32.7408V32.2592ZM32.7408 33.6018H34.0834V34.9444H32.7408V33.6018ZM31.3982 16.1481V17.4907H30.0556V16.1481H31.3982ZM30.0556 17.4907V18.8333H28.713V17.4907H30.0556ZM31.3982 17.4907V18.8333H30.0556V17.4907H31.3982ZM28.713 18.8333V20.1759H27.3704V18.8333H28.713ZM30.0556 18.8333V20.1759H28.713V18.8333H30.0556ZM32.7408 16.1481V17.4907H31.3982V16.1481H32.7408ZM28.713 20.1759H30.0556V21.5185H28.713V20.1759ZM27.3704 20.1759H28.713V21.5185H27.3704V20.1759ZM30.0556 18.8333H31.3982V20.1759H30.0556V18.8333ZM31.3982 17.4907H32.7408V18.8333H31.3982V17.4907ZM51.5305 28.2315V29.5741H50.1879V28.2315H51.5305ZM51.5305 29.5741V30.9166H50.1879V29.5741H51.5305ZM51.5305 40.3148V41.6574H50.1879V40.3148H51.5305ZM51.5305 41.6574V43H50.1879V41.6574H51.5305ZM50.1879 41.6574V43H48.8453V41.6574H50.1879ZM50.1879 28.2315V29.5741H48.8453V28.2315H50.1879ZM46.1601 28.2315V29.5741H44.8176V28.2315H46.1601ZM44.8176 28.2315V29.5741H43.475V28.2315H44.8176ZM43.475 28.2315V29.5741H42.1324V28.2315H43.475ZM42.1324 28.2315V29.5741H40.7898V28.2315H42.1324ZM40.7898 29.5741V30.9166H39.4472V29.5741H40.7898ZM42.1324 29.5741V30.9166H40.7898V29.5741H42.1324ZM43.475 29.5741V30.9166H42.1324V29.5741H43.475ZM44.8176 29.5741V30.9166H43.475V29.5741H44.8176ZM46.1601 29.5741V30.9166H44.8176V29.5741H46.1601ZM47.5027 29.5741V30.9166H46.1601V29.5741H47.5027ZM50.1879 29.5741V30.9166H48.8453V29.5741H50.1879ZM48.8453 37.6296V38.9722H47.5027V37.6296H48.8453ZM47.5027 40.3148V41.6574H46.1601V40.3148H47.5027ZM47.5027 38.9722V40.3148H46.1601V38.9722H47.5027ZM46.1601 41.6574V43H44.8176V41.6574H46.1601ZM44.8176 41.6574V43H43.475V41.6574H44.8176ZM43.475 41.6574V43H42.1324V41.6574H43.475ZM42.1324 41.6574V43H40.7898V41.6574H42.1324ZM43.475 40.3148V41.6574H42.1324V40.3148H43.475ZM44.8176 40.3148V41.6574H43.475V40.3148H44.8176ZM46.1601 40.3148V41.6574H44.8176V40.3148H46.1601ZM42.1324 40.3148V41.6574H40.7898V40.3148H42.1324ZM40.7898 40.3148V41.6574H39.4472V40.3148H40.7898ZM42.1324 38.9722V40.3148H40.7898V38.9722H42.1324ZM43.475 38.9722V40.3148H42.1324V38.9722H43.475ZM40.7898 38.9722V40.3148H39.4472V38.9722H40.7898ZM39.4472 38.9722V40.3148H38.1046V38.9722H39.4472ZM39.4472 37.6296V38.9722H38.1046V37.6296H39.4472ZM40.7898 36.287V37.6296H39.4472V36.287H40.7898ZM40.7898 37.6296V38.9722H39.4472V37.6296H40.7898ZM42.1324 37.6296V38.9722H40.7898V37.6296H42.1324ZM39.4472 36.287V37.6296H38.1046V36.287H39.4472ZM39.4472 34.9444V36.287H38.1046V34.9444H39.4472ZM40.7898 34.9444V36.287H39.4472V34.9444H40.7898ZM40.7898 33.6018V34.9444H39.4472V33.6018H40.7898ZM40.7898 32.2592V33.6018H39.4472V32.2592H40.7898ZM39.4472 32.2592V33.6018H38.1046V32.2592H39.4472ZM39.4472 30.9166V32.2592H38.1046V30.9166H39.4472ZM39.4472 33.6018V34.9444H38.1046V33.6018H39.4472ZM42.1324 34.9444V36.287H40.7898V34.9444H42.1324ZM42.1324 36.287V37.6296H40.7898V36.287H42.1324ZM42.1324 33.6018V34.9444H40.7898V33.6018H42.1324ZM42.1324 32.2592V33.6018H40.7898V32.2592H42.1324ZM42.1324 30.9166V32.2592H40.7898V30.9166H42.1324ZM43.475 30.9166V32.2592H42.1324V30.9166H43.475ZM40.7898 30.9166V32.2592H39.4472V30.9166H40.7898ZM47.5027 30.9166V32.2592H46.1601V30.9166H47.5027ZM46.1601 30.9166V32.2592H44.8176V30.9166H46.1601ZM44.8176 30.9166V32.2592H43.475V30.9166H44.8176ZM46.1601 38.9722V40.3148H44.8176V38.9722H46.1601ZM44.8176 38.9722V40.3148H43.475V38.9722H44.8176ZM48.8453 41.6574V43H47.5027V41.6574H48.8453ZM48.8453 40.3148V41.6574H47.5027V40.3148H48.8453ZM48.8453 38.9722V40.3148H47.5027V38.9722H48.8453ZM50.1879 38.9722V40.3148H48.8453V38.9722H50.1879ZM50.1879 40.3148V41.6574H48.8453V40.3148H50.1879ZM50.1879 37.6296V38.9722H48.8453V37.6296H50.1879ZM48.8453 36.287V37.6296H47.5027V36.287H48.8453ZM48.8453 34.9444V36.287H47.5027V34.9444H48.8453ZM48.8453 33.6018V34.9444H47.5027V33.6018H48.8453ZM48.8453 32.2592V33.6018H47.5027V32.2592H48.8453ZM48.8453 30.9166V32.2592H47.5027V30.9166H48.8453ZM48.8453 29.5741V30.9166H47.5027V29.5741H48.8453ZM48.8453 28.2315V29.5741H47.5027V28.2315H48.8453ZM50.1879 30.9166V32.2592H48.8453V30.9166H50.1879ZM50.1879 32.2592V33.6018H48.8453V32.2592H50.1879ZM50.1879 33.6018V34.9444H48.8453V33.6018H50.1879ZM50.1879 34.9444V36.287H48.8453V34.9444H50.1879ZM50.1879 36.287V37.6296H48.8453V36.287H50.1879ZM51.5305 37.6296V38.9722H50.1879V37.6296H51.5305ZM51.5305 38.9722V40.3148H50.1879V38.9722H51.5305ZM51.5305 36.287V37.6296H50.1879V36.287H51.5305ZM51.5305 34.9444V36.287H50.1879V34.9444H51.5305ZM51.5305 33.6018V34.9444H50.1879V33.6018H51.5305ZM51.5305 32.2592V33.6018H50.1879V32.2592H51.5305ZM51.5305 30.9166V32.2592H50.1879V30.9166H51.5305ZM46.1601 37.6296H47.5027V38.9722H46.1601V37.6296ZM46.1601 28.2315H47.5027V29.5741H46.1601V28.2315ZM47.5027 43H48.8453V44.3426H47.5027V43ZM47.5027 44.3426H48.8453V45.6852H47.5027V44.3426ZM47.5027 45.6852H48.8453V47.0278H47.5027V45.6852ZM48.8453 45.6852H50.1879V47.0278H48.8453V45.6852ZM50.1879 45.6852H51.5305V47.0278H50.1879V45.6852ZM50.1879 44.3426H51.5305V45.6852H50.1879V44.3426ZM50.1879 43H51.5305V44.3426H50.1879V43ZM48.8453 43H50.1879V44.3426H48.8453V43ZM48.8453 44.3426H50.1879V45.6852H48.8453V44.3426ZM47.5027 47.0278H48.8453V48.3704H47.5027V47.0278ZM48.8453 47.0278H50.1879V48.3704H48.8453V47.0278ZM50.1879 47.0278H51.5305V48.3704H50.1879V47.0278ZM54.2118 28.2315H55.5544V29.5741H54.2118V28.2315ZM55.5544 28.2315H56.897V29.5741H55.5544V28.2315ZM56.897 28.2315H58.2396V29.5741H56.897V28.2315ZM56.897 29.5741H58.2396V30.9166H56.897V29.5741ZM56.897 30.9166H58.2396V32.2592H56.897V30.9166ZM56.897 32.2592H58.2396V33.6018H56.897V32.2592ZM56.897 33.6018H58.2396V34.9444H56.897V33.6018ZM56.897 34.9444H58.2396V36.287H56.897V34.9444ZM55.5544 34.9444H56.897V36.287H55.5544V34.9444ZM55.5544 33.6018H56.897V34.9444H55.5544V33.6018ZM55.5544 32.2592H56.897V33.6018H55.5544V32.2592ZM54.2118 30.9166H55.5544V32.2592H54.2118V30.9166ZM54.2118 29.5741H55.5544V30.9166H54.2118V29.5741ZM55.5544 30.9166H56.897V32.2592H55.5544V30.9166ZM55.5544 29.5741H56.897V30.9166H55.5544V29.5741ZM54.2118 32.2592H55.5544V33.6018H54.2118V32.2592ZM54.2118 33.6018H55.5544V34.9444H54.2118V33.6018ZM54.2118 34.9444H55.5544V36.287H54.2118V34.9444ZM54.2118 36.287H55.5544V37.6296H54.2118V36.287ZM55.5544 36.287H56.897V37.6296H55.5544V36.287ZM56.897 36.287H58.2396V37.6296H56.897V36.287ZM56.897 37.6296H58.2396V38.9722H56.897V37.6296ZM56.897 38.9722H58.2396V40.3148H56.897V38.9722ZM55.5544 38.9722H56.897V40.3148H55.5544V38.9722ZM55.5544 37.6296H56.897V38.9722H55.5544V37.6296ZM54.2118 37.6296H55.5544V38.9722H54.2118V37.6296ZM54.2118 38.9722H55.5544V40.3148H54.2118V38.9722ZM55.5544 40.3148H56.897V41.6574H55.5544V40.3148ZM56.897 40.3148H58.2396V41.6574H56.897V40.3148ZM58.2396 40.3148H59.5822V41.6574H58.2396V40.3148ZM58.2396 38.9722H59.5822V40.3148H58.2396V38.9722ZM56.897 41.6574H58.2396V43H56.897V41.6574ZM58.2396 41.6574H59.5822V43H58.2396V41.6574ZM59.5822 41.6574H60.9248V43H59.5822V41.6574ZM59.5822 40.3148H60.9248V41.6574H59.5822V40.3148ZM59.5822 38.9722H60.9248V40.3148H59.5822V38.9722ZM60.9248 40.3148H62.2673V41.6574H60.9248V40.3148ZM60.9248 41.6574H62.2673V43H60.9248V41.6574ZM66.2951 28.2315H67.6377V29.5741H66.2951V28.2315ZM66.2951 29.5741H67.6377V30.9166H66.2951V29.5741ZM66.2951 30.9166H67.6377V32.2592H66.2951V30.9166ZM66.2951 32.2592H67.6377V33.6018H66.2951V32.2592ZM66.2951 33.6018H67.6377V34.9444H66.2951V33.6018ZM66.2951 34.9444H67.6377V36.287H66.2951V34.9444ZM66.2951 36.287H67.6377V37.6296H66.2951V36.287ZM66.2951 37.6296H67.6377V38.9722H66.2951V37.6296ZM66.2951 38.9722H67.6377V40.3148H66.2951V38.9722ZM64.9525 38.9722H66.2951V40.3148H64.9525V38.9722ZM63.6099 38.9722H64.9525V40.3148H63.6099V38.9722ZM63.6099 40.3148H64.9525V41.6574H63.6099V40.3148ZM62.2673 40.3148H63.6099V41.6574H62.2673V40.3148ZM64.9525 40.3148H66.2951V41.6574H64.9525V40.3148ZM66.2951 40.3148H67.6377V41.6574H66.2951V40.3148ZM62.2673 38.9722H63.6099V40.3148H62.2673V38.9722ZM60.9248 38.9722H62.2673V40.3148H60.9248V38.9722ZM62.2673 37.6296H63.6099V38.9722H62.2673V37.6296ZM63.6099 37.6296H64.9525V38.9722H63.6099V37.6296ZM64.9525 37.6296H66.2951V38.9722H64.9525V37.6296ZM64.9525 36.287H66.2951V37.6296H64.9525V36.287ZM64.9525 34.9444H66.2951V36.287H64.9525V34.9444ZM64.9525 33.6018H66.2951V34.9444H64.9525V33.6018ZM64.9525 32.2592H66.2951V33.6018H64.9525V32.2592ZM64.9525 30.9166H66.2951V32.2592H64.9525V30.9166ZM64.9525 29.5741H66.2951V30.9166H64.9525V29.5741ZM64.9525 28.2315H66.2951V29.5741H64.9525V28.2315ZM63.6099 29.5741H64.9525V30.9166H63.6099V29.5741ZM63.6099 30.9166H64.9525V32.2592H63.6099V30.9166ZM63.6099 32.2592H64.9525V33.6018H63.6099V32.2592ZM63.6099 33.6018H64.9525V34.9444H63.6099V33.6018ZM63.6099 34.9444H64.9525V36.287H63.6099V34.9444ZM63.6099 36.287H64.9525V37.6296H63.6099V36.287ZM63.6099 28.2315H64.9525V29.5741H63.6099V28.2315ZM66.2951 41.6574H67.6377V43H66.2951V41.6574ZM64.9525 41.6574H66.2951V43H64.9525V41.6574ZM63.6099 41.6574H64.9525V43H63.6099V41.6574ZM70.319 22.8611H71.6616V24.2037H70.319V22.8611ZM70.319 24.2037H71.6616V25.5463H70.319V24.2037ZM70.319 25.5463H71.6616V26.8889H70.319V25.5463ZM70.319 29.5741H71.6616V30.9166H70.319V29.5741ZM70.319 30.9166H71.6616V32.2592H70.319V30.9166ZM70.319 32.2592H71.6616V33.6018H70.319V32.2592ZM70.319 33.6018H71.6616V34.9444H70.319V33.6018ZM70.319 34.9444H71.6616V36.287H70.319V34.9444ZM70.319 36.287H71.6616V37.6296H70.319V36.287ZM70.319 37.6296H71.6616V38.9722H70.319V37.6296ZM70.319 38.9722H71.6616V40.3148H70.319V38.9722ZM70.319 40.3148H71.6616V41.6574H70.319V40.3148ZM70.319 41.6574H71.6616V43H70.319V41.6574ZM71.6616 41.6574H73.0042V43H71.6616V41.6574ZM73.0042 41.6574H74.3468V43H73.0042V41.6574ZM73.0042 40.3148H74.3468V41.6574H73.0042V40.3148ZM73.0042 38.9722H74.3468V40.3148H73.0042V38.9722ZM73.0042 37.6296H74.3468V38.9722H73.0042V37.6296ZM73.0042 36.287H74.3468V37.6296H73.0042V36.287ZM73.0042 34.9444H74.3468V36.287H73.0042V34.9444ZM73.0042 33.6018H74.3468V34.9444H73.0042V33.6018ZM73.0042 32.2592H74.3468V33.6018H73.0042V32.2592ZM73.0042 30.9166H74.3468V32.2592H73.0042V30.9166ZM73.0042 22.8611H74.3468V24.2037H73.0042V22.8611ZM71.6616 22.8611H73.0042V24.2037H71.6616V22.8611ZM71.6616 24.2037H73.0042V25.5463H71.6616V24.2037ZM73.0042 24.2037H74.3468V25.5463H73.0042V24.2037ZM73.0042 25.5463H74.3468V26.8889H73.0042V25.5463ZM73.0042 29.5741H74.3468V30.9166H73.0042V29.5741ZM71.6616 25.5463H73.0042V26.8889H71.6616V25.5463ZM71.6616 29.5741H73.0042V30.9166H71.6616V29.5741ZM71.6616 30.9166H73.0042V32.2592H71.6616V30.9166ZM71.6616 40.3148H73.0042V41.6574H71.6616V40.3148ZM71.6616 38.9722H73.0042V40.3148H71.6616V38.9722ZM71.6616 37.6296H73.0042V38.9722H71.6616V37.6296ZM71.6616 36.287H73.0042V37.6296H71.6616V36.287ZM71.6616 34.9444H73.0042V36.287H71.6616V34.9444ZM71.6616 33.6018H73.0042V34.9444H71.6616V33.6018ZM71.6616 32.2592H73.0042V33.6018H71.6616V32.2592ZM77.0451 28.2315H78.3877V29.5741H77.0451V28.2315ZM77.0451 29.5741H78.3877V30.9166H77.0451V29.5741ZM77.0451 40.3148H78.3877V41.6574H77.0451V40.3148ZM77.0451 41.6574H78.3877V43H77.0451V41.6574ZM78.3877 41.6574H79.7303V43H78.3877V41.6574ZM78.3877 28.2315H79.7303V29.5741H78.3877V28.2315ZM82.4154 28.2315H83.758V29.5741H82.4154V28.2315ZM83.758 28.2315H85.1006V29.5741H83.758V28.2315ZM85.1006 28.2315H86.4432V29.5741H85.1006V28.2315ZM86.4432 28.2315H87.7858V29.5741H86.4432V28.2315ZM87.7858 29.5741H89.1284V30.9166H87.7858V29.5741ZM86.4432 29.5741H87.7858V30.9166H86.4432V29.5741ZM85.1006 29.5741H86.4432V30.9166H85.1006V29.5741ZM83.758 29.5741H85.1006V30.9166H83.758V29.5741ZM82.4154 29.5741H83.758V30.9166H82.4154V29.5741ZM81.0728 29.5741H82.4154V30.9166H81.0728V29.5741ZM78.3877 29.5741H79.7303V30.9166H78.3877V29.5741ZM79.7303 37.6296H81.0728V38.9722H79.7303V37.6296ZM81.0728 40.3148H82.4154V41.6574H81.0728V40.3148ZM81.0728 38.9722H82.4154V40.3148H81.0728V38.9722ZM81.0728 41.6574H82.4154V43H81.0728V41.6574ZM82.4154 41.6574H83.758V43H82.4154V41.6574ZM83.758 41.6574H85.1006V43H83.758V41.6574ZM85.1006 41.6574H86.4432V43H85.1006V41.6574ZM86.4432 41.6574H87.7858V43H86.4432V41.6574ZM85.1006 40.3148H86.4432V41.6574H85.1006V40.3148ZM83.758 40.3148H85.1006V41.6574H83.758V40.3148ZM82.4154 40.3148H83.758V41.6574H82.4154V40.3148ZM86.4432 40.3148H87.7858V41.6574H86.4432V40.3148ZM87.7858 40.3148H89.1284V41.6574H87.7858V40.3148ZM86.4432 38.9722H87.7858V40.3148H86.4432V38.9722ZM85.1006 38.9722H86.4432V40.3148H85.1006V38.9722ZM87.7858 38.9722H89.1284V40.3148H87.7858V38.9722ZM89.1284 38.9722H90.471V40.3148H89.1284V38.9722ZM89.1284 37.6296H90.471V38.9722H89.1284V37.6296ZM87.7858 36.287H89.1284V37.6296H87.7858V36.287ZM87.7858 37.6296H89.1284V38.9722H87.7858V37.6296ZM86.4432 37.6296H87.7858V38.9722H86.4432V37.6296ZM89.1284 36.287H90.471V37.6296H89.1284V36.287ZM89.1284 34.9444H90.471V36.287H89.1284V34.9444ZM87.7858 34.9444H89.1284V36.287H87.7858V34.9444ZM87.7858 33.6018H89.1284V34.9444H87.7858V33.6018ZM87.7858 32.2592H89.1284V33.6018H87.7858V32.2592ZM89.1284 32.2592H90.471V33.6018H89.1284V32.2592ZM89.1284 30.9166H90.471V32.2592H89.1284V30.9166ZM89.1284 33.6018H90.471V34.9444H89.1284V33.6018ZM86.4432 34.9444H87.7858V36.287H86.4432V34.9444ZM86.4432 36.287H87.7858V37.6296H86.4432V36.287ZM86.4432 33.6018H87.7858V34.9444H86.4432V33.6018ZM86.4432 32.2592H87.7858V33.6018H86.4432V32.2592ZM86.4432 30.9166H87.7858V32.2592H86.4432V30.9166ZM85.1006 30.9166H86.4432V32.2592H85.1006V30.9166ZM87.7858 30.9166H89.1284V32.2592H87.7858V30.9166ZM81.0728 30.9166H82.4154V32.2592H81.0728V30.9166ZM82.4154 30.9166H83.758V32.2592H82.4154V30.9166ZM83.758 30.9166H85.1006V32.2592H83.758V30.9166ZM82.4154 38.9722H83.758V40.3148H82.4154V38.9722ZM83.758 38.9722H85.1006V40.3148H83.758V38.9722ZM79.7303 41.6574H81.0728V43H79.7303V41.6574ZM79.7303 40.3148H81.0728V41.6574H79.7303V40.3148ZM79.7303 38.9722H81.0728V40.3148H79.7303V38.9722ZM78.3877 38.9722H79.7303V40.3148H78.3877V38.9722ZM78.3877 40.3148H79.7303V41.6574H78.3877V40.3148ZM78.3877 37.6296H79.7303V38.9722H78.3877V37.6296ZM79.7303 36.287H81.0728V37.6296H79.7303V36.287ZM79.7303 34.9444H81.0728V36.287H79.7303V34.9444ZM79.7303 33.6018H81.0728V34.9444H79.7303V33.6018ZM79.7303 32.2592H81.0728V33.6018H79.7303V32.2592ZM79.7303 30.9166H81.0728V32.2592H79.7303V30.9166ZM79.7303 29.5741H81.0728V30.9166H79.7303V29.5741ZM79.7303 28.2315H81.0728V29.5741H79.7303V28.2315ZM78.3877 30.9166H79.7303V32.2592H78.3877V30.9166ZM78.3877 32.2592H79.7303V33.6018H78.3877V32.2592ZM78.3877 33.6018H79.7303V34.9444H78.3877V33.6018ZM78.3877 34.9444H79.7303V36.287H78.3877V34.9444ZM78.3877 36.287H79.7303V37.6296H78.3877V36.287ZM77.0451 37.6296H78.3877V38.9722H77.0451V37.6296ZM77.0451 38.9722H78.3877V40.3148H77.0451V38.9722ZM77.0451 36.287H78.3877V37.6296H77.0451V36.287ZM77.0451 34.9444H78.3877V36.287H77.0451V34.9444ZM77.0451 33.6018H78.3877V34.9444H77.0451V33.6018ZM77.0451 32.2592H78.3877V33.6018H77.0451V32.2592ZM77.0451 30.9166H78.3877V32.2592H77.0451V30.9166ZM81.0728 32.2592H82.4154V33.6018H81.0728V32.2592ZM77.0451 43H78.3877V44.3426H77.0451V43ZM78.3877 43H79.7303V44.3426H78.3877V43ZM79.7303 43H81.0728V44.3426H79.7303V43ZM79.7303 44.3426H81.0728V45.6852H79.7303V44.3426ZM79.7303 45.6852H81.0728V47.0278H79.7303V45.6852ZM78.3877 45.6852H79.7303V47.0278H78.3877V45.6852ZM77.0451 45.6852H78.3877V47.0278H77.0451V45.6852ZM78.3877 44.3426H79.7303V45.6852H78.3877V44.3426ZM77.0451 44.3426H78.3877V45.6852H77.0451V44.3426ZM77.0451 47.0278H78.3877V48.3704H77.0451V47.0278ZM78.3877 47.0278H79.7303V48.3704H78.3877V47.0278ZM79.7303 47.0278H81.0728V48.3704H79.7303V47.0278ZM95.8375 28.2315H97.18V29.5741H95.8375V28.2315ZM97.18 28.2315H98.5226V29.5741H97.18V28.2315ZM98.5226 28.2315H99.8652V29.5741H98.5226V28.2315ZM99.8652 28.2315H101.208V29.5741H99.8652V28.2315ZM101.208 28.2315H102.55V29.5741H101.208V28.2315ZM102.55 28.2315H103.893V29.5741H102.55V28.2315ZM103.893 29.5741H105.236V30.9166H103.893V29.5741ZM102.55 29.5741H103.893V30.9166H102.55V29.5741ZM101.208 29.5741H102.55V30.9166H101.208V29.5741ZM99.8652 29.5741H101.208V30.9166H99.8652V29.5741ZM98.5226 29.5741H99.8652V30.9166H98.5226V29.5741ZM97.18 29.5741H98.5226V30.9166H97.18V29.5741ZM95.8375 29.5741H97.18V30.9166H95.8375V29.5741ZM94.4949 29.5741H95.8375V30.9166H94.4949V29.5741ZM94.4949 30.9166H95.8375V32.2592H94.4949V30.9166ZM95.8375 30.9166H97.18V32.2592H95.8375V30.9166ZM93.1523 30.9166H94.4949V32.2592H93.1523V30.9166ZM93.1523 32.2592H94.4949V33.6018H93.1523V32.2592ZM93.1523 33.6018H94.4949V34.9444H93.1523V33.6018ZM94.4949 33.6018H95.8375V34.9444H94.4949V33.6018ZM95.8375 33.6018H97.18V34.9444H95.8375V33.6018ZM95.8375 32.2592H97.18V33.6018H95.8375V32.2592ZM94.4949 32.2592H95.8375V33.6018H94.4949V32.2592ZM94.4949 34.9444H95.8375V36.287H94.4949V34.9444ZM94.4949 36.287H95.8375V37.6296H94.4949V36.287ZM94.4949 37.6296H95.8375V38.9722H94.4949V37.6296ZM93.1523 37.6296H94.4949V38.9722H93.1523V37.6296ZM93.1523 38.9722H94.4949V40.3148H93.1523V38.9722ZM93.1523 36.287H94.4949V37.6296H93.1523V36.287ZM93.1523 34.9444H94.4949V36.287H93.1523V34.9444ZM95.8375 34.9444H97.18V36.287H95.8375V34.9444ZM95.8375 36.287H97.18V37.6296H95.8375V36.287ZM95.8375 37.6296H97.18V38.9722H95.8375V37.6296ZM95.8375 38.9722H97.18V40.3148H95.8375V38.9722ZM94.4949 38.9722H95.8375V40.3148H94.4949V38.9722ZM94.4949 40.3148H95.8375V41.6574H94.4949V40.3148ZM95.8375 40.3148H97.18V41.6574H95.8375V40.3148ZM97.18 40.3148H98.5226V41.6574H97.18V40.3148ZM97.18 38.9722H98.5226V40.3148H97.18V38.9722ZM95.8375 41.6574H97.18V43H95.8375V41.6574ZM97.18 41.6574H98.5226V43H97.18V41.6574ZM98.5226 41.6574H99.8652V43H98.5226V41.6574ZM99.8652 41.6574H101.208V43H99.8652V41.6574ZM101.208 41.6574H102.55V43H101.208V41.6574ZM102.55 41.6574H103.893V43H102.55V41.6574ZM101.208 40.3148H102.55V41.6574H101.208V40.3148ZM99.8652 40.3148H101.208V41.6574H99.8652V40.3148ZM98.5226 40.3148H99.8652V41.6574H98.5226V40.3148ZM102.55 40.3148H103.893V41.6574H102.55V40.3148ZM103.893 40.3148H105.236V41.6574H103.893V40.3148ZM102.55 38.9722H103.893V40.3148H102.55V38.9722ZM101.208 38.9722H102.55V40.3148H101.208V38.9722ZM103.893 38.9722H105.236V40.3148H103.893V38.9722ZM105.236 38.9722H106.578V40.3148H105.236V38.9722ZM103.893 32.2592H105.236V33.6018H103.893V32.2592ZM105.236 32.2592H106.578V33.6018H105.236V32.2592ZM105.236 30.9166H106.578V32.2592H105.236V30.9166ZM102.55 32.2592H103.893V33.6018H102.55V32.2592ZM102.55 30.9166H103.893V32.2592H102.55V30.9166ZM103.893 30.9166H105.236V32.2592H103.893V30.9166ZM98.5226 38.9722H99.8652V40.3148H98.5226V38.9722ZM99.8652 38.9722H101.208V40.3148H99.8652V38.9722ZM105.236 33.6018H106.578V34.9444H105.236V33.6018ZM103.893 33.6018H105.236V34.9444H103.893V33.6018ZM102.55 33.6018H103.893V34.9444H102.55V33.6018ZM98.5226 34.9444H99.8652V36.287H98.5226V34.9444ZM99.8652 34.9444H101.208V36.287H99.8652V34.9444ZM101.208 34.9444H102.55V36.287H101.208V34.9444ZM102.55 34.9444H103.893V36.287H102.55V34.9444ZM103.893 34.9444H105.236V36.287H103.893V34.9444ZM105.236 34.9444H106.578V36.287H105.236V34.9444ZM97.18 34.9444H98.5226V36.287H97.18V34.9444ZM97.18 30.9166H98.5226V32.2592H97.18V30.9166ZM98.5226 30.9166H99.8652V32.2592H98.5226V30.9166ZM99.8652 30.9166H101.208V32.2592H99.8652V30.9166ZM101.208 30.9166H102.55V32.2592H101.208V30.9166ZM105.236 36.287H106.578V37.6296H105.236V36.287ZM103.893 36.287H105.236V37.6296H103.893V36.287ZM101.208 36.287H102.55V37.6296H101.208V36.287ZM99.8652 36.287H101.208V37.6296H99.8652V36.287ZM98.5226 36.287H99.8652V37.6296H98.5226V36.287ZM97.18 36.287H98.5226V37.6296H97.18V36.287ZM102.55 36.287H103.893V37.6296H102.55V36.287ZM130.757 22.8611V24.2037H129.414V22.8611H130.757ZM130.757 24.2037V25.5463H129.414V24.2037H130.757ZM130.757 25.5463V26.8889H129.414V25.5463H130.757ZM130.757 26.8889V28.2315H129.414V26.8889H130.757ZM130.757 28.2315V29.5741H129.414V28.2315H130.757ZM130.757 29.5741V30.9166H129.414V29.5741H130.757ZM130.757 40.3148V41.6574H129.414V40.3148H130.757ZM130.757 41.6574V43H129.414V41.6574H130.757ZM129.414 41.6574V43H128.072V41.6574H129.414ZM128.072 22.8611V24.2037H126.729V22.8611H128.072ZM129.414 22.8611V24.2037H128.072V22.8611H129.414ZM129.414 24.2037V25.5463H128.072V24.2037H129.414ZM128.072 24.2037V25.5463H126.729V24.2037H128.072ZM128.072 25.5463V26.8889H126.729V25.5463H128.072ZM128.072 26.8889V28.2315H126.729V26.8889H128.072ZM129.414 28.2315V29.5741H128.072V28.2315H129.414ZM129.414 26.8889V28.2315H128.072V26.8889H129.414ZM129.414 25.5463V26.8889H128.072V25.5463H129.414ZM125.386 28.2315V29.5741H124.044V28.2315H125.386ZM124.044 28.2315V29.5741H122.701V28.2315H124.044ZM122.701 28.2315V29.5741H121.359V28.2315H122.701ZM121.359 28.2315V29.5741H120.016V28.2315H121.359ZM120.016 29.5741V30.9166H118.673V29.5741H120.016ZM121.359 29.5741V30.9166H120.016V29.5741H121.359ZM122.701 29.5741V30.9166H121.359V29.5741H122.701ZM124.044 29.5741V30.9166H122.701V29.5741H124.044ZM125.386 29.5741V30.9166H124.044V29.5741H125.386ZM126.729 29.5741V30.9166H125.386V29.5741H126.729ZM129.414 29.5741V30.9166H128.072V29.5741H129.414ZM128.072 37.6296V38.9722H126.729V37.6296H128.072ZM126.729 40.3148V41.6574H125.386V40.3148H126.729ZM126.729 38.9722V40.3148H125.386V38.9722H126.729ZM125.386 41.6574V43H124.044V41.6574H125.386ZM124.044 41.6574V43H122.701V41.6574H124.044ZM122.701 41.6574V43H121.359V41.6574H122.701ZM121.359 41.6574V43H120.016V41.6574H121.359ZM122.701 40.3148V41.6574H121.359V40.3148H122.701ZM124.044 40.3148V41.6574H122.701V40.3148H124.044ZM125.386 40.3148V41.6574H124.044V40.3148H125.386ZM121.359 40.3148V41.6574H120.016V40.3148H121.359ZM120.016 40.3148V41.6574H118.673V40.3148H120.016ZM121.359 38.9722V40.3148H120.016V38.9722H121.359ZM122.701 38.9722V40.3148H121.359V38.9722H122.701ZM120.016 38.9722V40.3148H118.673V38.9722H120.016ZM118.673 38.9722V40.3148H117.331V38.9722H118.673ZM118.673 37.6296V38.9722H117.331V37.6296H118.673ZM120.016 36.287V37.6296H118.673V36.287H120.016ZM120.016 37.6296V38.9722H118.673V37.6296H120.016ZM121.359 37.6296V38.9722H120.016V37.6296H121.359ZM118.673 36.287V37.6296H117.331V36.287H118.673ZM118.673 34.9444V36.287H117.331V34.9444H118.673ZM120.016 34.9444V36.287H118.673V34.9444H120.016ZM120.016 33.6018V34.9444H118.673V33.6018H120.016ZM120.016 32.2592V33.6018H118.673V32.2592H120.016ZM118.673 32.2592V33.6018H117.331V32.2592H118.673ZM118.673 30.9166V32.2592H117.331V30.9166H118.673ZM118.673 33.6018V34.9444H117.331V33.6018H118.673ZM121.359 34.9444V36.287H120.016V34.9444H121.359ZM121.359 36.287V37.6296H120.016V36.287H121.359ZM121.359 33.6018V34.9444H120.016V33.6018H121.359ZM121.359 32.2592V33.6018H120.016V32.2592H121.359ZM121.359 30.9166V32.2592H120.016V30.9166H121.359ZM122.701 30.9166V32.2592H121.359V30.9166H122.701ZM120.016 30.9166V32.2592H118.673V30.9166H120.016ZM126.729 30.9166V32.2592H125.386V30.9166H126.729ZM125.386 30.9166V32.2592H124.044V30.9166H125.386ZM124.044 30.9166V32.2592H122.701V30.9166H124.044ZM125.386 38.9722V40.3148H124.044V38.9722H125.386ZM124.044 38.9722V40.3148H122.701V38.9722H124.044ZM128.072 41.6574V43H126.729V41.6574H128.072ZM128.072 40.3148V41.6574H126.729V40.3148H128.072ZM128.072 38.9722V40.3148H126.729V38.9722H128.072ZM129.414 38.9722V40.3148H128.072V38.9722H129.414ZM129.414 40.3148V41.6574H128.072V40.3148H129.414ZM129.414 37.6296V38.9722H128.072V37.6296H129.414ZM128.072 36.287V37.6296H126.729V36.287H128.072ZM128.072 34.9444V36.287H126.729V34.9444H128.072ZM128.072 33.6018V34.9444H126.729V33.6018H128.072ZM128.072 32.2592V33.6018H126.729V32.2592H128.072ZM128.072 30.9166V32.2592H126.729V30.9166H128.072ZM128.072 29.5741V30.9166H126.729V29.5741H128.072ZM128.072 28.2315V29.5741H126.729V28.2315H128.072ZM129.414 30.9166V32.2592H128.072V30.9166H129.414ZM129.414 32.2592V33.6018H128.072V32.2592H129.414ZM129.414 33.6018V34.9444H128.072V33.6018H129.414ZM129.414 34.9444V36.287H128.072V34.9444H129.414ZM129.414 36.287V37.6296H128.072V36.287H129.414ZM130.757 37.6296V38.9722H129.414V37.6296H130.757ZM130.757 38.9722V40.3148H129.414V38.9722H130.757ZM130.757 36.287V37.6296H129.414V36.287H130.757ZM130.757 34.9444V36.287H129.414V34.9444H130.757ZM130.757 33.6018V34.9444H129.414V33.6018H130.757ZM130.757 32.2592V33.6018H129.414V32.2592H130.757ZM130.757 30.9166V32.2592H129.414V30.9166H130.757ZM125.386 37.6296H126.729V38.9722H125.386V37.6296ZM125.386 28.2315H126.729V29.5741H125.386V28.2315ZM136.123 28.2315H137.466V29.5741H136.123V28.2315ZM137.466 28.2315H138.808V29.5741H137.466V28.2315ZM138.808 28.2315H140.151V29.5741H138.808V28.2315ZM140.151 28.2315H141.494V29.5741H140.151V28.2315ZM141.494 28.2315H142.836V29.5741H141.494V28.2315ZM142.836 28.2315H144.179V29.5741H142.836V28.2315ZM144.179 29.5741H145.521V30.9166H144.179V29.5741ZM142.836 29.5741H144.179V30.9166H142.836V29.5741ZM141.494 29.5741H142.836V30.9166H141.494V29.5741ZM140.151 29.5741H141.494V30.9166H140.151V29.5741ZM138.808 29.5741H140.151V30.9166H138.808V29.5741ZM137.466 29.5741H138.808V30.9166H137.466V29.5741ZM136.123 29.5741H137.466V30.9166H136.123V29.5741ZM134.781 29.5741H136.123V30.9166H134.781V29.5741ZM134.781 30.9166H136.123V32.2592H134.781V30.9166ZM136.123 30.9166H137.466V32.2592H136.123V30.9166ZM133.438 30.9166H134.781V32.2592H133.438V30.9166ZM133.438 32.2592H134.781V33.6018H133.438V32.2592ZM133.438 33.6018H134.781V34.9444H133.438V33.6018ZM134.781 33.6018H136.123V34.9444H134.781V33.6018ZM136.123 33.6018H137.466V34.9444H136.123V33.6018ZM136.123 32.2592H137.466V33.6018H136.123V32.2592ZM134.781 32.2592H136.123V33.6018H134.781V32.2592ZM134.781 34.9444H136.123V36.287H134.781V34.9444ZM134.781 36.287H136.123V37.6296H134.781V36.287ZM134.781 37.6296H136.123V38.9722H134.781V37.6296ZM133.438 37.6296H134.781V38.9722H133.438V37.6296ZM133.438 38.9722H134.781V40.3148H133.438V38.9722ZM133.438 36.287H134.781V37.6296H133.438V36.287ZM133.438 34.9444H134.781V36.287H133.438V34.9444ZM136.123 34.9444H137.466V36.287H136.123V34.9444ZM136.123 36.287H137.466V37.6296H136.123V36.287ZM136.123 37.6296H137.466V38.9722H136.123V37.6296ZM136.123 38.9722H137.466V40.3148H136.123V38.9722ZM134.781 38.9722H136.123V40.3148H134.781V38.9722ZM134.781 40.3148H136.123V41.6574H134.781V40.3148ZM136.123 40.3148H137.466V41.6574H136.123V40.3148ZM137.466 40.3148H138.808V41.6574H137.466V40.3148ZM137.466 38.9722H138.808V40.3148H137.466V38.9722ZM136.123 41.6574H137.466V43H136.123V41.6574ZM137.466 41.6574H138.808V43H137.466V41.6574ZM138.808 41.6574H140.151V43H138.808V41.6574ZM140.151 41.6574H141.494V43H140.151V41.6574ZM141.494 41.6574H142.836V43H141.494V41.6574ZM142.836 41.6574H144.179V43H142.836V41.6574ZM141.494 40.3148H142.836V41.6574H141.494V40.3148ZM140.151 40.3148H141.494V41.6574H140.151V40.3148ZM138.808 40.3148H140.151V41.6574H138.808V40.3148ZM142.836 40.3148H144.179V41.6574H142.836V40.3148ZM144.179 40.3148H145.521V41.6574H144.179V40.3148ZM142.836 38.9722H144.179V40.3148H142.836V38.9722ZM141.494 38.9722H142.836V40.3148H141.494V38.9722ZM144.179 38.9722H145.521V40.3148H144.179V38.9722ZM145.521 38.9722H146.864V40.3148H145.521V38.9722ZM144.179 32.2592H145.521V33.6018H144.179V32.2592ZM145.521 32.2592H146.864V33.6018H145.521V32.2592ZM145.521 30.9166H146.864V32.2592H145.521V30.9166ZM142.836 32.2592H144.179V33.6018H142.836V32.2592ZM142.836 30.9166H144.179V32.2592H142.836V30.9166ZM144.179 30.9166H145.521V32.2592H144.179V30.9166ZM138.808 38.9722H140.151V40.3148H138.808V38.9722ZM140.151 38.9722H141.494V40.3148H140.151V38.9722ZM145.521 33.6018H146.864V34.9444H145.521V33.6018ZM144.179 33.6018H145.521V34.9444H144.179V33.6018ZM142.836 33.6018H144.179V34.9444H142.836V33.6018ZM138.808 34.9444H140.151V36.287H138.808V34.9444ZM140.151 34.9444H141.494V36.287H140.151V34.9444ZM141.494 34.9444H142.836V36.287H141.494V34.9444ZM142.836 34.9444H144.179V36.287H142.836V34.9444ZM144.179 34.9444H145.521V36.287H144.179V34.9444ZM145.521 34.9444H146.864V36.287H145.521V34.9444ZM137.466 34.9444H138.808V36.287H137.466V34.9444ZM137.466 30.9166H138.808V32.2592H137.466V30.9166ZM138.808 30.9166H140.151V32.2592H138.808V30.9166ZM140.151 30.9166H141.494V32.2592H140.151V30.9166ZM141.494 30.9166H142.836V32.2592H141.494V30.9166ZM145.521 36.287H146.864V37.6296H145.521V36.287ZM144.179 36.287H145.521V37.6296H144.179V36.287ZM141.494 36.287H142.836V37.6296H141.494V36.287ZM140.151 36.287H141.494V37.6296H140.151V36.287ZM138.808 36.287H140.151V37.6296H138.808V36.287ZM137.466 36.287H138.808V37.6296H137.466V36.287ZM142.836 36.287H144.179V37.6296H142.836V36.287ZM141.494 20.1759V21.5185H140.151V20.1759H141.494ZM140.151 21.5185V22.8611H138.808V21.5185H140.151ZM141.494 21.5185V22.8611H140.151V21.5185H141.494ZM140.151 22.8611V24.2037H138.808V22.8611H140.151ZM142.836 20.1759V21.5185H141.494V20.1759H142.836ZM137.466 22.8611H138.808V24.2037H137.466V22.8611ZM137.466 24.2037H138.808V25.5463H137.466V24.2037ZM138.808 24.2037H140.151V25.5463H138.808V24.2037ZM140.151 22.8611H141.494V24.2037H140.151V22.8611ZM141.494 21.5185H142.836V22.8611H141.494V21.5185ZM152.23 28.2315H153.573V29.5741H152.23V28.2315ZM153.573 28.2315H154.916V29.5741H153.573V28.2315ZM154.916 28.2315H156.258V29.5741H154.916V28.2315ZM156.258 28.2315H157.601V29.5741H156.258V28.2315ZM157.601 28.2315H158.943V29.5741H157.601V28.2315ZM158.943 28.2315H160.286V29.5741H158.943V28.2315ZM160.286 29.5741H161.629V30.9166H160.286V29.5741ZM158.943 29.5741H160.286V30.9166H158.943V29.5741ZM157.601 29.5741H158.943V30.9166H157.601V29.5741ZM156.258 29.5741H157.601V30.9166H156.258V29.5741ZM154.916 29.5741H156.258V30.9166H154.916V29.5741ZM153.573 29.5741H154.916V30.9166H153.573V29.5741ZM152.23 29.5741H153.573V30.9166H152.23V29.5741ZM150.888 29.5741H152.23V30.9166H150.888V29.5741ZM150.888 30.9166H152.23V32.2592H150.888V30.9166ZM152.23 30.9166H153.573V32.2592H152.23V30.9166ZM149.545 30.9166H150.888V32.2592H149.545V30.9166ZM149.545 32.2592H150.888V33.6018H149.545V32.2592ZM149.545 33.6018H150.888V34.9444H149.545V33.6018ZM150.888 33.6018H152.23V34.9444H150.888V33.6018ZM152.23 33.6018H153.573V34.9444H152.23V33.6018ZM152.23 32.2592H153.573V33.6018H152.23V32.2592ZM150.888 32.2592H152.23V33.6018H150.888V32.2592ZM150.888 34.9444H152.23V36.287H150.888V34.9444ZM150.888 36.287H152.23V37.6296H150.888V36.287ZM150.888 37.6296H152.23V38.9722H150.888V37.6296ZM149.545 37.6296H150.888V38.9722H149.545V37.6296ZM149.545 38.9722H150.888V40.3148H149.545V38.9722ZM149.545 36.287H150.888V37.6296H149.545V36.287ZM149.545 34.9444H150.888V36.287H149.545V34.9444ZM152.23 34.9444H153.573V36.287H152.23V34.9444ZM152.23 36.287H153.573V37.6296H152.23V36.287ZM152.23 37.6296H153.573V38.9722H152.23V37.6296ZM152.23 38.9722H153.573V40.3148H152.23V38.9722ZM150.888 38.9722H152.23V40.3148H150.888V38.9722ZM150.888 40.3148H152.23V41.6574H150.888V40.3148ZM152.23 40.3148H153.573V41.6574H152.23V40.3148ZM153.573 40.3148H154.916V41.6574H153.573V40.3148ZM153.573 38.9722H154.916V40.3148H153.573V38.9722ZM152.23 41.6574H153.573V43H152.23V41.6574ZM153.573 41.6574H154.916V43H153.573V41.6574ZM154.916 41.6574H156.258V43H154.916V41.6574ZM156.258 41.6574H157.601V43H156.258V41.6574ZM157.601 41.6574H158.943V43H157.601V41.6574ZM158.943 41.6574H160.286V43H158.943V41.6574ZM157.601 40.3148H158.943V41.6574H157.601V40.3148ZM156.258 40.3148H157.601V41.6574H156.258V40.3148ZM154.916 40.3148H156.258V41.6574H154.916V40.3148ZM158.943 40.3148H160.286V41.6574H158.943V40.3148ZM160.286 40.3148H161.629V41.6574H160.286V40.3148ZM158.943 38.9722H160.286V40.3148H158.943V38.9722ZM157.601 38.9722H158.943V40.3148H157.601V38.9722ZM160.286 38.9722H161.629V40.3148H160.286V38.9722ZM161.629 38.9722H162.971V40.3148H161.629V38.9722ZM161.629 37.6296H162.971V38.9722H161.629V37.6296ZM160.286 37.6296H161.629V38.9722H160.286V37.6296ZM158.943 37.6296H160.286V38.9722H158.943V37.6296ZM160.286 32.2592H161.629V33.6018H160.286V32.2592ZM161.629 32.2592H162.971V33.6018H161.629V32.2592ZM161.629 30.9166H162.971V32.2592H161.629V30.9166ZM158.943 32.2592H160.286V33.6018H158.943V32.2592ZM158.943 30.9166H160.286V32.2592H158.943V30.9166ZM157.601 30.9166H158.943V32.2592H157.601V30.9166ZM160.286 30.9166H161.629V32.2592H160.286V30.9166ZM153.573 30.9166H154.916V32.2592H153.573V30.9166ZM154.916 30.9166H156.258V32.2592H154.916V30.9166ZM156.258 30.9166H157.601V32.2592H156.258V30.9166ZM154.916 38.9722H156.258V40.3148H154.916V38.9722ZM156.258 38.9722H157.601V40.3148H156.258V38.9722ZM168.338 28.2315H169.68V29.5741H168.338V28.2315ZM169.68 28.2315H171.023V29.5741H169.68V28.2315ZM171.023 28.2315H172.365V29.5741H171.023V28.2315ZM172.365 28.2315H173.708V29.5741H172.365V28.2315ZM173.708 28.2315H175.051V29.5741H173.708V28.2315ZM175.051 28.2315H176.393V29.5741H175.051V28.2315ZM176.393 29.5741H177.736V30.9166H176.393V29.5741ZM175.051 29.5741H176.393V30.9166H175.051V29.5741ZM173.708 29.5741H175.051V30.9166H173.708V29.5741ZM172.365 29.5741H173.708V30.9166H172.365V29.5741ZM171.023 29.5741H172.365V30.9166H171.023V29.5741ZM169.68 29.5741H171.023V30.9166H169.68V29.5741ZM168.338 29.5741H169.68V30.9166H168.338V29.5741ZM166.995 29.5741H168.338V30.9166H166.995V29.5741ZM166.995 30.9166H168.338V32.2592H166.995V30.9166ZM168.338 30.9166H169.68V32.2592H168.338V30.9166ZM165.652 30.9166H166.995V32.2592H165.652V30.9166ZM165.652 32.2592H166.995V33.6018H165.652V32.2592ZM165.652 33.6018H166.995V34.9444H165.652V33.6018ZM166.995 33.6018H168.338V34.9444H166.995V33.6018ZM168.338 33.6018H169.68V34.9444H168.338V33.6018ZM168.338 32.2592H169.68V33.6018H168.338V32.2592ZM166.995 32.2592H168.338V33.6018H166.995V32.2592ZM166.995 34.9444H168.338V36.287H166.995V34.9444ZM166.995 36.287H168.338V37.6296H166.995V36.287ZM166.995 37.6296H168.338V38.9722H166.995V37.6296ZM165.652 37.6296H166.995V38.9722H165.652V37.6296ZM165.652 38.9722H166.995V40.3148H165.652V38.9722ZM165.652 36.287H166.995V37.6296H165.652V36.287ZM165.652 34.9444H166.995V36.287H165.652V34.9444ZM168.338 34.9444H169.68V36.287H168.338V34.9444ZM168.338 36.287H169.68V37.6296H168.338V36.287ZM168.338 37.6296H169.68V38.9722H168.338V37.6296ZM168.338 38.9722H169.68V40.3148H168.338V38.9722ZM166.995 38.9722H168.338V40.3148H166.995V38.9722ZM166.995 40.3148H168.338V41.6574H166.995V40.3148ZM168.338 40.3148H169.68V41.6574H168.338V40.3148ZM169.68 40.3148H171.023V41.6574H169.68V40.3148ZM169.68 38.9722H171.023V40.3148H169.68V38.9722ZM168.338 41.6574H169.68V43H168.338V41.6574ZM169.68 41.6574H171.023V43H169.68V41.6574ZM171.023 41.6574H172.365V43H171.023V41.6574ZM172.365 41.6574H173.708V43H172.365V41.6574ZM173.708 41.6574H175.051V43H173.708V41.6574ZM175.051 41.6574H176.393V43H175.051V41.6574ZM173.708 40.3148H175.051V41.6574H173.708V40.3148ZM172.365 40.3148H173.708V41.6574H172.365V40.3148ZM171.023 40.3148H172.365V41.6574H171.023V40.3148ZM175.051 40.3148H176.393V41.6574H175.051V40.3148ZM176.393 40.3148H177.736V41.6574H176.393V40.3148ZM175.051 38.9722H176.393V40.3148H175.051V38.9722ZM173.708 38.9722H175.051V40.3148H173.708V38.9722ZM176.393 38.9722H177.736V40.3148H176.393V38.9722ZM177.736 38.9722H179.078V40.3148H177.736V38.9722ZM177.736 37.6296H179.078V38.9722H177.736V37.6296ZM176.393 36.287H177.736V37.6296H176.393V36.287ZM176.393 37.6296H177.736V38.9722H176.393V37.6296ZM175.051 37.6296H176.393V38.9722H175.051V37.6296ZM177.736 36.287H179.078V37.6296H177.736V36.287ZM177.736 34.9444H179.078V36.287H177.736V34.9444ZM176.393 34.9444H177.736V36.287H176.393V34.9444ZM176.393 33.6018H177.736V34.9444H176.393V33.6018ZM176.393 32.2592H177.736V33.6018H176.393V32.2592ZM177.736 32.2592H179.078V33.6018H177.736V32.2592ZM177.736 30.9166H179.078V32.2592H177.736V30.9166ZM177.736 33.6018H179.078V34.9444H177.736V33.6018ZM175.051 34.9444H176.393V36.287H175.051V34.9444ZM175.051 36.287H176.393V37.6296H175.051V36.287ZM175.051 33.6018H176.393V34.9444H175.051V33.6018ZM175.051 32.2592H176.393V33.6018H175.051V32.2592ZM175.051 30.9166H176.393V32.2592H175.051V30.9166ZM173.708 30.9166H175.051V32.2592H173.708V30.9166ZM176.393 30.9166H177.736V32.2592H176.393V30.9166ZM169.68 30.9166H171.023V32.2592H169.68V30.9166ZM171.023 30.9166H172.365V32.2592H171.023V30.9166ZM172.365 30.9166H173.708V32.2592H172.365V30.9166ZM171.023 38.9722H172.365V40.3148H171.023V38.9722ZM172.365 38.9722H173.708V40.3148H172.365V38.9722ZM181.76 22.8611H183.102V24.2037H181.76V22.8611ZM181.76 24.2037H183.102V25.5463H181.76V24.2037ZM181.76 25.5463H183.102V26.8889H181.76V25.5463ZM181.76 26.8889H183.102V28.2315H181.76V26.8889ZM181.76 28.2315H183.102V29.5741H181.76V28.2315ZM181.76 29.5741H183.102V30.9166H181.76V29.5741ZM181.76 30.9166H183.102V32.2592H181.76V30.9166ZM181.76 32.2592H183.102V33.6018H181.76V32.2592ZM181.76 33.6018H183.102V34.9444H181.76V33.6018ZM181.76 34.9444H183.102V36.287H181.76V34.9444ZM181.76 36.287H183.102V37.6296H181.76V36.287ZM181.76 37.6296H183.102V38.9722H181.76V37.6296ZM181.76 38.9722H183.102V40.3148H181.76V38.9722ZM181.76 40.3148H183.102V41.6574H181.76V40.3148ZM181.76 41.6574H183.102V43H181.76V41.6574ZM183.102 41.6574H184.445V43H183.102V41.6574ZM184.445 41.6574H185.787V43H184.445V41.6574ZM184.445 40.3148H185.787V41.6574H184.445V40.3148ZM184.445 38.9722H185.787V40.3148H184.445V38.9722ZM184.445 37.6296H185.787V38.9722H184.445V37.6296ZM184.445 36.287H185.787V37.6296H184.445V36.287ZM184.445 34.9444H185.787V36.287H184.445V34.9444ZM184.445 33.6018H185.787V34.9444H184.445V33.6018ZM184.445 32.2592H185.787V33.6018H184.445V32.2592ZM184.445 30.9166H185.787V32.2592H184.445V30.9166ZM184.445 22.8611H185.787V24.2037H184.445V22.8611ZM183.102 22.8611H184.445V24.2037H183.102V22.8611ZM183.102 24.2037H184.445V25.5463H183.102V24.2037ZM184.445 24.2037H185.787V25.5463H184.445V24.2037ZM184.445 25.5463H185.787V26.8889H184.445V25.5463ZM184.445 26.8889H185.787V28.2315H184.445V26.8889ZM184.445 28.2315H185.787V29.5741H184.445V28.2315ZM184.445 29.5741H185.787V30.9166H184.445V29.5741ZM183.102 28.2315H184.445V29.5741H183.102V28.2315ZM183.102 26.8889H184.445V28.2315H183.102V26.8889ZM183.102 25.5463H184.445V26.8889H183.102V25.5463ZM183.102 29.5741H184.445V30.9166H183.102V29.5741ZM183.102 30.9166H184.445V32.2592H183.102V30.9166ZM183.102 40.3148H184.445V41.6574H183.102V40.3148ZM183.102 38.9722H184.445V40.3148H183.102V38.9722ZM183.102 37.6296H184.445V38.9722H183.102V37.6296ZM183.102 36.287H184.445V37.6296H183.102V36.287ZM183.102 34.9444H184.445V36.287H183.102V34.9444ZM183.102 33.6018H184.445V34.9444H183.102V33.6018ZM183.102 32.2592H184.445V33.6018H183.102V32.2592ZM188.486 22.8611H189.828V24.2037H188.486V22.8611ZM188.486 24.2037H189.828V25.5463H188.486V24.2037ZM188.486 25.5463H189.828V26.8889H188.486V25.5463ZM188.486 26.8889H189.828V28.2315H188.486V26.8889ZM188.486 28.2315H189.828V29.5741H188.486V28.2315ZM188.486 29.5741H189.828V30.9166H188.486V29.5741ZM188.486 30.9166H189.828V32.2592H188.486V30.9166ZM188.486 32.2592H189.828V33.6018H188.486V32.2592ZM188.486 33.6018H189.828V34.9444H188.486V33.6018ZM188.486 34.9444H189.828V36.287H188.486V34.9444ZM188.486 36.287H189.828V37.6296H188.486V36.287ZM188.486 37.6296H189.828V38.9722H188.486V37.6296ZM188.486 38.9722H189.828V40.3148H188.486V38.9722ZM188.486 40.3148H189.828V41.6574H188.486V40.3148ZM188.486 41.6574H189.828V43H188.486V41.6574ZM189.828 41.6574H191.171V43H189.828V41.6574ZM191.171 41.6574H192.513V43H191.171V41.6574ZM191.171 40.3148H192.513V41.6574H191.171V40.3148ZM191.171 38.9722H192.513V40.3148H191.171V38.9722ZM191.171 37.6296H192.513V38.9722H191.171V37.6296ZM191.171 36.287H192.513V37.6296H191.171V36.287ZM191.171 34.9444H192.513V36.287H191.171V34.9444ZM191.171 33.6018H192.513V34.9444H191.171V33.6018ZM191.171 32.2592H192.513V33.6018H191.171V32.2592ZM191.171 30.9166H192.513V32.2592H191.171V30.9166ZM191.171 22.8611H192.513V24.2037H191.171V22.8611ZM189.828 22.8611H191.171V24.2037H189.828V22.8611ZM189.828 24.2037H191.171V25.5463H189.828V24.2037ZM191.171 24.2037H192.513V25.5463H191.171V24.2037ZM191.171 25.5463H192.513V26.8889H191.171V25.5463ZM191.171 26.8889H192.513V28.2315H191.171V26.8889ZM191.171 28.2315H192.513V29.5741H191.171V28.2315ZM191.171 29.5741H192.513V30.9166H191.171V29.5741ZM189.828 28.2315H191.171V29.5741H189.828V28.2315ZM189.828 26.8889H191.171V28.2315H189.828V26.8889ZM189.828 25.5463H191.171V26.8889H189.828V25.5463ZM189.828 29.5741H191.171V30.9166H189.828V29.5741ZM189.828 30.9166H191.171V32.2592H189.828V30.9166ZM189.828 40.3148H191.171V41.6574H189.828V40.3148ZM189.828 38.9722H191.171V40.3148H189.828V38.9722ZM189.828 37.6296H191.171V38.9722H189.828V37.6296ZM189.828 36.287H191.171V37.6296H189.828V36.287ZM189.828 34.9444H191.171V36.287H189.828V34.9444ZM189.828 33.6018H191.171V34.9444H189.828V33.6018ZM189.828 32.2592H191.171V33.6018H189.828V32.2592ZM205.952 43H204.61V41.6574H205.952V43ZM203.267 43H201.925V41.6574H203.267V43ZM201.925 43H200.582V41.6574H201.925V43ZM200.582 43H199.24V41.6574H200.582V43ZM199.24 43H197.897V41.6574H199.24V43ZM197.897 41.6574H196.554V40.3148H197.897V41.6574ZM199.24 41.6574H197.897V40.3148H199.24V41.6574ZM200.582 41.6574H199.24V40.3148H200.582V41.6574ZM201.925 41.6574H200.582V40.3148H201.925V41.6574ZM203.267 41.6574H201.925V40.3148H203.267V41.6574ZM204.61 41.6574H203.267V40.3148H204.61V41.6574ZM205.952 41.6574H204.61V40.3148H205.952V41.6574ZM207.295 41.6574H205.952V40.3148H207.295V41.6574ZM207.295 40.3148H205.952V38.9722H207.295V40.3148ZM205.952 40.3148H204.61V38.9722H205.952V40.3148ZM208.638 40.3148H207.295V38.9722H208.638V40.3148ZM208.638 38.9722H207.295V37.6296H208.638V38.9722ZM208.638 37.6296H207.295V36.287H208.638V37.6296ZM207.295 37.6296H205.952V36.287H207.295V37.6296ZM205.952 37.6296H204.61V36.287H205.952V37.6296ZM205.952 38.9722H204.61V37.6296H205.952V38.9722ZM207.295 38.9722H205.952V37.6296H207.295V38.9722ZM207.295 36.287H205.952V34.9444H207.295V36.287ZM207.295 34.9444H205.952V33.6018H207.295V34.9444ZM207.295 33.6018H205.952V32.2592H207.295V33.6018ZM208.638 33.6018H207.295V32.2592H208.638V33.6018ZM208.638 32.2592H207.295V30.9166H208.638V32.2592ZM208.638 34.9444H207.295V33.6018H208.638V34.9444ZM208.638 36.287H207.295V34.9444H208.638V36.287ZM205.952 36.287H204.61V34.9444H205.952V36.287ZM205.952 34.9444H204.61V33.6018H205.952V34.9444ZM205.952 33.6018H204.61V32.2592H205.952V33.6018ZM205.952 32.2592H204.61V30.9166H205.952V32.2592ZM207.295 32.2592H205.952V30.9166H207.295V32.2592ZM207.295 30.9166H205.952V29.5741H207.295V30.9166ZM205.952 30.9166H204.61V29.5741H205.952V30.9166ZM204.61 30.9166H203.267V29.5741H204.61V30.9166ZM204.61 32.2592H203.267V30.9166H204.61V32.2592ZM205.952 29.5741H204.61V28.2315H205.952V29.5741ZM204.61 29.5741H203.267V28.2315H204.61V29.5741ZM203.267 29.5741H201.925V28.2315H203.267V29.5741ZM201.925 29.5741H200.582V28.2315H201.925V29.5741ZM200.582 29.5741H199.24V28.2315H200.582V29.5741ZM199.24 29.5741H197.897V28.2315H199.24V29.5741ZM200.582 30.9166H199.24V29.5741H200.582V30.9166ZM201.925 30.9166H200.582V29.5741H201.925V30.9166ZM203.267 30.9166H201.925V29.5741H203.267V30.9166ZM199.24 30.9166H197.897V29.5741H199.24V30.9166ZM197.897 30.9166H196.554V29.5741H197.897V30.9166ZM199.24 32.2592H197.897V30.9166H199.24V32.2592ZM200.582 32.2592H199.24V30.9166H200.582V32.2592ZM197.897 32.2592H196.554V30.9166H197.897V32.2592ZM196.554 32.2592H195.212V30.9166H196.554V32.2592ZM197.897 38.9722H196.554V37.6296H197.897V38.9722ZM196.554 38.9722H195.212V37.6296H196.554V38.9722ZM196.554 40.3148H195.212V38.9722H196.554V40.3148ZM199.24 38.9722H197.897V37.6296H199.24V38.9722ZM199.24 40.3148H197.897V38.9722H199.24V40.3148ZM197.897 40.3148H196.554V38.9722H197.897V40.3148ZM203.267 32.2592H201.925V30.9166H203.267V32.2592ZM201.925 32.2592H200.582V30.9166H201.925V32.2592ZM197.897 37.6296H196.554V36.287H197.897V37.6296ZM199.24 37.6296H197.897V36.287H199.24V37.6296ZM203.267 36.287H201.925V34.9444H203.267V36.287ZM201.925 36.287H200.582V34.9444H201.925V36.287ZM200.582 36.287H199.24V34.9444H200.582V36.287ZM199.24 36.287H197.897V34.9444H199.24V36.287ZM204.61 36.287H203.267V34.9444H204.61V36.287ZM207.295 40.3148H208.638V41.6574H207.295V40.3148ZM207.295 41.6574H208.638V43H207.295V41.6574ZM205.952 41.6574H207.295V43H205.952V41.6574ZM203.267 33.6018H204.61V34.9444H203.267V33.6018ZM201.925 33.6018H203.267V34.9444H201.925V33.6018ZM200.582 33.6018H201.925V34.9444H200.582V33.6018ZM199.24 33.6018H200.582V34.9444H199.24V33.6018ZM197.897 33.6018H199.24V34.9444H197.897V33.6018ZM196.554 34.9444H197.897V36.287H196.554V34.9444ZM195.212 36.287H196.554V37.6296H195.212V36.287ZM199.24 38.9722H200.582V40.3148H199.24V38.9722ZM200.582 38.9722H201.925V40.3148H200.582V38.9722ZM201.925 38.9722H203.267V40.3148H201.925V38.9722ZM203.267 38.9722H204.61V40.3148H203.267V38.9722ZM223.402 28.2315H224.745V29.5741H223.402V28.2315ZM222.06 28.2315H223.402V29.5741H222.06V28.2315ZM219.375 28.2315H220.717V29.5741H219.375V28.2315ZM218.032 28.2315H219.375V29.5741H218.032V28.2315ZM216.689 28.2315H218.032V29.5741H216.689V28.2315ZM215.347 28.2315H216.689V29.5741H215.347V28.2315ZM214.004 28.2315H215.347V29.5741H214.004V28.2315ZM214.004 29.5741H215.347V30.9166H214.004V29.5741ZM215.347 29.5741H216.689V30.9166H215.347V29.5741ZM220.717 29.5741H222.06V30.9166H220.717V29.5741ZM220.717 28.2315H222.06V29.5741H220.717V28.2315ZM218.032 29.5741H219.375V30.9166H218.032V29.5741ZM216.689 29.5741H218.032V30.9166H216.689V29.5741ZM219.375 29.5741H220.717V30.9166H219.375V29.5741ZM222.06 29.5741H223.402V30.9166H222.06V29.5741ZM223.402 29.5741H224.745V30.9166H223.402V29.5741ZM216.689 30.9166H218.032V32.2592H216.689V30.9166ZM218.032 30.9166H219.375V32.2592H218.032V30.9166ZM219.375 30.9166H220.717V32.2592H219.375V30.9166ZM220.717 30.9166H222.06V32.2592H220.717V30.9166ZM222.06 30.9166H223.402V32.2592H222.06V30.9166ZM223.402 30.9166H224.745V32.2592H223.402V30.9166ZM215.347 30.9166H216.689V32.2592H215.347V30.9166ZM214.004 30.9166H215.347V32.2592H214.004V30.9166ZM212.662 29.5741H214.004V30.9166H212.662V29.5741ZM212.662 30.9166H214.004V32.2592H212.662V30.9166ZM211.319 30.9166H212.662V32.2592H211.319V30.9166ZM211.319 32.2592H212.662V33.6018H211.319V32.2592ZM211.319 33.6018H212.662V34.9444H211.319V33.6018ZM212.662 33.6018H214.004V34.9444H212.662V33.6018ZM214.004 33.6018H215.347V34.9444H214.004V33.6018ZM214.004 32.2592H215.347V33.6018H214.004V32.2592ZM212.662 32.2592H214.004V33.6018H212.662V32.2592ZM211.319 34.9444H212.662V36.287H211.319V34.9444ZM211.319 36.287H212.662V37.6296H211.319V36.287ZM211.319 37.6296H212.662V38.9722H211.319V37.6296ZM212.662 37.6296H214.004V38.9722H212.662V37.6296ZM214.004 37.6296H215.347V38.9722H214.004V37.6296ZM214.004 36.287H215.347V37.6296H214.004V36.287ZM214.004 34.9444H215.347V36.287H214.004V34.9444ZM212.662 34.9444H214.004V36.287H212.662V34.9444ZM212.662 36.287H214.004V37.6296H212.662V36.287ZM212.662 38.9722H214.004V40.3148H212.662V38.9722ZM214.004 38.9722H215.347V40.3148H214.004V38.9722ZM215.347 38.9722H216.689V40.3148H215.347V38.9722ZM215.347 37.6296H216.689V38.9722H215.347V37.6296ZM214.004 40.3148H215.347V41.6574H214.004V40.3148ZM215.347 40.3148H216.689V41.6574H215.347V40.3148ZM216.689 40.3148H218.032V41.6574H216.689V40.3148ZM216.689 38.9722H218.032V40.3148H216.689V38.9722ZM218.032 38.9722H219.375V40.3148H218.032V38.9722ZM218.032 40.3148H219.375V41.6574H218.032V40.3148ZM216.689 37.6296H218.032V38.9722H216.689V37.6296ZM218.032 37.6296H219.375V38.9722H218.032V37.6296ZM219.375 37.6296H220.717V38.9722H219.375V37.6296ZM220.717 37.6296H222.06V38.9722H220.717V37.6296ZM222.06 37.6296H223.402V38.9722H222.06V37.6296ZM220.717 38.9722H222.06V40.3148H220.717V38.9722ZM220.717 40.3148H222.06V41.6574H220.717V40.3148ZM219.375 38.9722H220.717V40.3148H219.375V38.9722ZM220.717 36.287H222.06V37.6296H220.717V36.287ZM220.717 34.9444H222.06V36.287H220.717V34.9444ZM220.717 33.6018H222.06V34.9444H220.717V33.6018ZM220.717 32.2592H222.06V33.6018H220.717V32.2592ZM222.06 32.2592H223.402V33.6018H222.06V32.2592ZM223.402 32.2592H224.745V33.6018H223.402V32.2592ZM223.402 33.6018H224.745V34.9444H223.402V33.6018ZM223.402 34.9444H224.745V36.287H223.402V34.9444ZM223.402 36.287H224.745V37.6296H223.402V36.287ZM223.402 37.6296H224.745V38.9722H223.402V37.6296ZM222.06 38.9722H223.402V40.3148H222.06V38.9722ZM222.06 36.287H223.402V37.6296H222.06V36.287ZM222.06 34.9444H223.402V36.287H222.06V34.9444ZM222.06 33.6018H223.402V34.9444H222.06V33.6018ZM222.06 40.3148H223.402V41.6574H222.06V40.3148ZM223.402 40.3148H224.745V41.6574H223.402V40.3148ZM223.402 38.9722H224.745V40.3148H223.402V38.9722ZM220.717 41.6574H222.06V43H220.717V41.6574ZM220.717 43H222.06V44.3426H220.717V43ZM220.717 44.3426H222.06V45.6852H220.717V44.3426ZM222.06 44.3426H223.402V45.6852H222.06V44.3426ZM223.402 44.3426H224.745V45.6852H223.402V44.3426ZM223.402 43H224.745V44.3426H223.402V43ZM223.402 41.6574H224.745V43H223.402V41.6574ZM222.06 41.6574H223.402V43H222.06V41.6574ZM222.06 43H223.402V44.3426H222.06V43ZM222.06 45.6852H223.402V47.0278H222.06V45.6852ZM220.717 45.6852H222.06V47.0278H220.717V45.6852ZM219.375 45.6852H220.717V47.0278H219.375V45.6852ZM219.375 44.3426H220.717V45.6852H219.375V44.3426ZM220.717 47.0278H222.06V48.3704H220.717V47.0278ZM219.375 47.0278H220.717V48.3704H219.375V47.0278ZM218.032 47.0278H219.375V48.3704H218.032V47.0278ZM218.032 45.6852H219.375V47.0278H218.032V45.6852ZM216.689 45.6852H218.032V47.0278H216.689V45.6852ZM215.347 45.6852H216.689V47.0278H215.347V45.6852ZM214.004 47.0278H215.347V48.3704H214.004V47.0278ZM215.347 47.0278H216.689V48.3704H215.347V47.0278ZM216.689 47.0278H218.032V48.3704H216.689V47.0278ZM214.004 45.6852H215.347V47.0278H214.004V45.6852ZM212.662 45.6852H214.004V47.0278H212.662V45.6852ZM214.004 44.3426H215.347V45.6852H214.004V44.3426ZM215.347 44.3426H216.689V45.6852H215.347V44.3426ZM212.662 44.3426H214.004V45.6852H212.662V44.3426ZM214.004 43H215.347V44.3426H214.004V43ZM212.662 43H214.004V44.3426H212.662V43ZM211.319 43H212.662V44.3426H211.319V43ZM211.319 44.3426H212.662V45.6852H211.319V44.3426ZM230.111 28.2315H231.454V29.5741H230.111V28.2315ZM231.454 28.2315H232.797V29.5741H231.454V28.2315ZM232.797 28.2315H234.139V29.5741H232.797V28.2315ZM234.139 28.2315H235.482V29.5741H234.139V28.2315ZM235.482 28.2315H236.824V29.5741H235.482V28.2315ZM236.824 28.2315H238.167V29.5741H236.824V28.2315ZM238.167 29.5741H239.509V30.9166H238.167V29.5741ZM236.824 29.5741H238.167V30.9166H236.824V29.5741ZM235.482 29.5741H236.824V30.9166H235.482V29.5741ZM234.139 29.5741H235.482V30.9166H234.139V29.5741ZM232.797 29.5741H234.139V30.9166H232.797V29.5741ZM231.454 29.5741H232.797V30.9166H231.454V29.5741ZM230.111 29.5741H231.454V30.9166H230.111V29.5741ZM228.769 29.5741H230.111V30.9166H228.769V29.5741ZM228.769 30.9166H230.111V32.2592H228.769V30.9166ZM230.111 30.9166H231.454V32.2592H230.111V30.9166ZM227.426 30.9166H228.769V32.2592H227.426V30.9166ZM227.426 32.2592H228.769V33.6018H227.426V32.2592ZM227.426 33.6018H228.769V34.9444H227.426V33.6018ZM228.769 33.6018H230.111V34.9444H228.769V33.6018ZM230.111 33.6018H231.454V34.9444H230.111V33.6018ZM230.111 32.2592H231.454V33.6018H230.111V32.2592ZM228.769 32.2592H230.111V33.6018H228.769V32.2592ZM228.769 34.9444H230.111V36.287H228.769V34.9444ZM228.769 36.287H230.111V37.6296H228.769V36.287ZM228.769 37.6296H230.111V38.9722H228.769V37.6296ZM227.426 37.6296H228.769V38.9722H227.426V37.6296ZM227.426 38.9722H228.769V40.3148H227.426V38.9722ZM227.426 36.287H228.769V37.6296H227.426V36.287ZM227.426 34.9444H228.769V36.287H227.426V34.9444ZM230.111 34.9444H231.454V36.287H230.111V34.9444ZM230.111 36.287H231.454V37.6296H230.111V36.287ZM230.111 37.6296H231.454V38.9722H230.111V37.6296ZM230.111 38.9722H231.454V40.3148H230.111V38.9722ZM228.769 38.9722H230.111V40.3148H228.769V38.9722ZM228.769 40.3148H230.111V41.6574H228.769V40.3148ZM230.111 40.3148H231.454V41.6574H230.111V40.3148ZM231.454 40.3148H232.797V41.6574H231.454V40.3148ZM231.454 38.9722H232.797V40.3148H231.454V38.9722ZM230.111 41.6574H231.454V43H230.111V41.6574ZM231.454 41.6574H232.797V43H231.454V41.6574ZM232.797 41.6574H234.139V43H232.797V41.6574ZM234.139 41.6574H235.482V43H234.139V41.6574ZM235.482 41.6574H236.824V43H235.482V41.6574ZM236.824 41.6574H238.167V43H236.824V41.6574ZM235.482 40.3148H236.824V41.6574H235.482V40.3148ZM234.139 40.3148H235.482V41.6574H234.139V40.3148ZM232.797 40.3148H234.139V41.6574H232.797V40.3148ZM236.824 40.3148H238.167V41.6574H236.824V40.3148ZM238.167 40.3148H239.509V41.6574H238.167V40.3148ZM236.824 38.9722H238.167V40.3148H236.824V38.9722ZM235.482 38.9722H236.824V40.3148H235.482V38.9722ZM238.167 38.9722H239.509V40.3148H238.167V38.9722ZM239.509 38.9722H240.852V40.3148H239.509V38.9722ZM238.167 32.2592H239.509V33.6018H238.167V32.2592ZM239.509 32.2592H240.852V33.6018H239.509V32.2592ZM239.509 30.9166H240.852V32.2592H239.509V30.9166ZM236.824 32.2592H238.167V33.6018H236.824V32.2592ZM236.824 30.9166H238.167V32.2592H236.824V30.9166ZM238.167 30.9166H239.509V32.2592H238.167V30.9166ZM232.797 38.9722H234.139V40.3148H232.797V38.9722ZM234.139 38.9722H235.482V40.3148H234.139V38.9722ZM239.509 33.6018H240.852V34.9444H239.509V33.6018ZM238.167 33.6018H239.509V34.9444H238.167V33.6018ZM236.824 33.6018H238.167V34.9444H236.824V33.6018ZM232.797 34.9444H234.139V36.287H232.797V34.9444ZM234.139 34.9444H235.482V36.287H234.139V34.9444ZM235.482 34.9444H236.824V36.287H235.482V34.9444ZM236.824 34.9444H238.167V36.287H236.824V34.9444ZM238.167 34.9444H239.509V36.287H238.167V34.9444ZM239.509 34.9444H240.852V36.287H239.509V34.9444ZM231.454 34.9444H232.797V36.287H231.454V34.9444ZM231.454 30.9166H232.797V32.2592H231.454V30.9166ZM232.797 30.9166H234.139V32.2592H232.797V30.9166ZM234.139 30.9166H235.482V32.2592H234.139V30.9166ZM235.482 30.9166H236.824V32.2592H235.482V30.9166ZM239.509 36.287H240.852V37.6296H239.509V36.287ZM238.167 36.287H239.509V37.6296H238.167V36.287ZM235.482 36.287H236.824V37.6296H235.482V36.287ZM234.139 36.287H235.482V37.6296H234.139V36.287ZM232.797 36.287H234.139V37.6296H232.797V36.287ZM231.454 36.287H232.797V37.6296H231.454V36.287ZM236.824 36.287H238.167V37.6296H236.824V36.287Z" fill="white"/>
</g>
<defs>
<clipPath id="clip0_268_336">
<rect width="66" height="267" fill="white" transform="translate(267) rotate(90)"/>
</clipPath>
</defs>
</svg>
