<svg width="205" height="202" viewBox="0 0 205 202" fill="none" xmlns="http://www.w3.org/2000/svg">
<rect x="75.5264" width="10.7895" height="10.7895" fill="black"/>
<rect width="10.7895" height="10.7895" transform="matrix(1 0 0 -1 75.5264 107.895)" fill="black"/>
<rect width="10.7895" height="10.7895" transform="matrix(1 0 0 -1 43.1582 125.877)" fill="black"/>
<rect width="10.7895" height="10.7895" transform="matrix(1 0 0 -1 129.474 125.877)" fill="black"/>
<rect x="75.5264" y="10.7894" width="10.7895" height="10.7895" fill="black"/>
<rect width="10.7895" height="10.7895" transform="matrix(1 0 0 -1 75.5264 97.1052)" fill="black"/>
<rect x="75.5264" y="21.579" width="10.7895" height="10.7895" fill="black"/>
<rect width="10.7895" height="10.7895" transform="matrix(1 0 0 -1 75.5264 86.3158)" fill="black"/>
<rect x="75.5264" y="32.3683" width="10.7895" height="10.7895" fill="black"/>
<rect x="75.5264" y="43.1578" width="10.7895" height="10.7895" fill="black"/>
<rect x="75.5264" y="53.9473" width="10.7895" height="10.7895" fill="black"/>
<rect x="75.5264" y="64.7368" width="10.7895" height="10.7895" fill="black"/>
<rect x="75.5264" y="125.877" width="10.7895" height="10.7895" fill="black"/>
<rect x="75.5264" y="136.667" width="10.7895" height="10.7895" fill="black"/>
<rect x="75.5264" y="147.456" width="10.7895" height="10.7895" fill="black"/>
<rect x="75.5264" y="158.246" width="10.7895" height="10.7895" fill="black"/>
<rect x="75.5264" y="169.035" width="10.7895" height="10.7895" fill="black"/>
<rect x="75.5264" y="179.824" width="10.7895" height="10.7895" fill="black"/>
<rect x="75.5264" y="190.614" width="10.7895" height="10.7895" fill="black"/>
<rect x="64.7363" y="10.7894" width="10.7895" height="10.7895" fill="black"/>
<rect width="10.7895" height="10.7895" transform="matrix(1 0 0 -1 64.7363 97.1052)" fill="black"/>
<rect x="64.7363" y="21.579" width="10.7895" height="10.7895" fill="black"/>
<rect width="10.7895" height="10.7895" transform="matrix(1 0 0 -1 64.7363 86.3158)" fill="black"/>
<rect x="64.7363" y="32.3683" width="10.7895" height="10.7895" fill="black"/>
<rect x="64.7363" y="43.1578" width="10.7895" height="10.7895" fill="black"/>
<rect x="64.7363" y="53.9473" width="10.7895" height="10.7895" fill="black"/>
<rect x="64.7363" y="64.7368" width="10.7895" height="10.7895" fill="black"/>
<rect x="64.7363" y="125.877" width="10.7895" height="10.7895" fill="black"/>
<rect x="64.7363" y="136.667" width="10.7895" height="10.7895" fill="black"/>
<rect x="64.7363" y="147.456" width="10.7895" height="10.7895" fill="black"/>
<rect x="64.7363" y="158.246" width="10.7895" height="10.7895" fill="black"/>
<rect x="64.7363" y="169.035" width="10.7895" height="10.7895" fill="black"/>
<rect x="64.7363" y="179.824" width="10.7895" height="10.7895" fill="black"/>
<rect x="64.7363" y="190.614" width="10.7895" height="10.7895" fill="black"/>
<rect x="53.9473" y="21.579" width="10.7895" height="10.7895" fill="black"/>
<rect width="10.7895" height="10.7895" transform="matrix(1 0 0 -1 53.9473 86.3158)" fill="black"/>
<rect x="53.9473" y="32.3683" width="10.7895" height="10.7895" fill="black"/>
<rect x="53.9473" y="43.1578" width="10.7895" height="10.7895" fill="black"/>
<rect x="53.9473" y="53.9473" width="10.7895" height="10.7895" fill="black"/>
<rect x="53.9473" y="64.7368" width="10.7895" height="10.7895" fill="black"/>
<rect x="53.9473" y="125.877" width="10.7895" height="10.7895" fill="black"/>
<rect x="53.9473" y="136.667" width="10.7895" height="10.7895" fill="black"/>
<rect x="53.9473" y="147.456" width="10.7895" height="10.7895" fill="black"/>
<rect x="53.9473" y="158.246" width="10.7895" height="10.7895" fill="black"/>
<rect x="53.9473" y="169.035" width="10.7895" height="10.7895" fill="black"/>
<rect x="53.9473" y="179.824" width="10.7895" height="10.7895" fill="black"/>
<rect x="53.9473" y="190.614" width="10.7895" height="10.7895" fill="black"/>
<rect x="43.1582" y="32.3683" width="10.7895" height="10.7895" fill="black"/>
<rect x="43.1582" y="43.1578" width="10.7895" height="10.7895" fill="black"/>
<rect x="43.1582" y="53.9473" width="10.7895" height="10.7895" fill="black"/>
<rect x="43.1582" y="64.7368" width="10.7895" height="10.7895" fill="black"/>
<rect x="43.1582" y="125.877" width="10.7895" height="10.7895" fill="black"/>
<rect x="43.1582" y="136.667" width="10.7895" height="10.7895" fill="black"/>
<rect x="43.1582" y="147.456" width="10.7895" height="10.7895" fill="black"/>
<rect x="43.1582" y="158.246" width="10.7895" height="10.7895" fill="black"/>
<rect x="43.1582" y="169.035" width="10.7895" height="10.7895" fill="black"/>
<rect x="43.1582" y="179.824" width="10.7895" height="10.7895" fill="black"/>
<rect x="43.1582" y="190.614" width="10.7895" height="10.7895" fill="black"/>
<rect x="32.3691" y="125.877" width="10.7895" height="10.7895" fill="black"/>
<rect x="32.3691" y="136.667" width="10.7895" height="10.7895" fill="black"/>
<rect x="32.3691" y="147.456" width="10.7895" height="10.7895" fill="black"/>
<rect x="32.3691" y="158.246" width="10.7895" height="10.7895" fill="black"/>
<rect x="32.3691" y="169.035" width="10.7895" height="10.7895" fill="black"/>
<rect x="32.3691" y="179.824" width="10.7895" height="10.7895" fill="black"/>
<rect x="32.3691" y="190.614" width="10.7895" height="10.7895" fill="black"/>
<rect x="21.5791" y="136.667" width="10.7895" height="10.7895" fill="black"/>
<rect x="21.5791" y="147.456" width="10.7895" height="10.7895" fill="black"/>
<rect x="21.5791" y="158.246" width="10.7895" height="10.7895" fill="black"/>
<rect x="21.5791" y="169.035" width="10.7895" height="10.7895" fill="black"/>
<rect x="21.5791" y="179.824" width="10.7895" height="10.7895" fill="black"/>
<rect x="21.5791" y="190.614" width="10.7895" height="10.7895" fill="black"/>
<rect x="10.79" y="147.456" width="10.7895" height="10.7895" fill="black"/>
<rect x="10.79" y="158.246" width="10.7895" height="10.7895" fill="black"/>
<rect x="10.79" y="169.035" width="10.7895" height="10.7895" fill="black"/>
<rect x="10.79" y="179.824" width="10.7895" height="10.7895" fill="black"/>
<rect x="10.79" y="190.614" width="10.7895" height="10.7895" fill="black"/>
<rect y="169.035" width="10.7895" height="10.7895" fill="black"/>
<rect y="179.824" width="10.7895" height="10.7895" fill="black"/>
<rect y="190.614" width="10.7895" height="10.7895" fill="black"/>
<rect x="86.3154" width="10.7895" height="10.7895" fill="black"/>
<rect width="10.7895" height="10.7895" transform="matrix(1 0 0 -1 86.3154 107.895)" fill="black"/>
<rect width="10.7895" height="10.7895" transform="matrix(1 0 0 -1 53.9473 125.877)" fill="black"/>
<rect width="10.7895" height="10.7895" transform="matrix(1 0 0 -1 140.263 125.877)" fill="black"/>
<rect x="86.3154" y="10.7894" width="10.7895" height="10.7895" fill="black"/>
<rect width="10.7895" height="10.7895" transform="matrix(1 0 0 -1 86.3154 97.1052)" fill="black"/>
<rect x="86.3154" y="21.579" width="10.7895" height="10.7895" fill="black"/>
<rect width="10.7895" height="10.7895" transform="matrix(1 0 0 -1 86.3154 86.3158)" fill="black"/>
<rect x="86.3154" y="32.3683" width="10.7895" height="10.7895" fill="black"/>
<rect x="86.3154" y="43.1578" width="10.7895" height="10.7895" fill="black"/>
<rect x="86.3154" y="53.9473" width="10.7895" height="10.7895" fill="black"/>
<rect x="86.3154" y="64.7368" width="10.7895" height="10.7895" fill="black"/>
<rect x="86.3154" y="125.877" width="10.7895" height="10.7895" fill="black"/>
<rect x="86.3154" y="136.667" width="10.7895" height="10.7895" fill="black"/>
<rect x="86.3154" y="147.456" width="10.7895" height="10.7895" fill="black"/>
<rect x="86.3154" y="158.246" width="10.7895" height="10.7895" fill="black"/>
<rect x="86.3154" y="169.035" width="10.7895" height="10.7895" fill="black"/>
<rect x="86.3154" y="179.824" width="10.7895" height="10.7895" fill="black"/>
<rect x="86.3154" y="190.614" width="10.7895" height="10.7895" fill="black"/>
<rect x="97.1055" width="10.7895" height="10.7895" fill="black"/>
<rect width="10.7895" height="10.7895" transform="matrix(1 0 0 -1 97.1055 107.895)" fill="black"/>
<rect width="10.7895" height="10.7895" transform="matrix(1 0 0 -1 64.7363 125.877)" fill="black"/>
<rect width="10.7895" height="10.7895" transform="matrix(1 0 0 -1 151.053 125.877)" fill="black"/>
<rect x="97.1055" y="10.7894" width="10.7895" height="10.7895" fill="black"/>
<rect width="10.7895" height="10.7895" transform="matrix(1 0 0 -1 97.1055 97.1052)" fill="black"/>
<rect x="97.1055" y="21.579" width="10.7895" height="10.7895" fill="black"/>
<rect width="10.7895" height="10.7895" transform="matrix(1 0 0 -1 97.1055 86.3158)" fill="black"/>
<rect x="97.1055" y="32.3683" width="10.7895" height="10.7895" fill="black"/>
<rect x="97.1055" y="43.1578" width="10.7895" height="10.7895" fill="black"/>
<rect x="97.1055" y="53.9473" width="10.7895" height="10.7895" fill="black"/>
<rect x="97.1055" y="64.7368" width="10.7895" height="10.7895" fill="black"/>
<rect x="97.1055" y="125.877" width="10.7895" height="10.7895" fill="black"/>
<rect x="97.1055" y="136.667" width="10.7895" height="10.7895" fill="black"/>
<rect x="97.1055" y="147.456" width="10.7895" height="10.7895" fill="black"/>
<rect x="97.1055" y="158.246" width="10.7895" height="10.7895" fill="black"/>
<rect x="97.1055" y="169.035" width="10.7895" height="10.7895" fill="black"/>
<rect x="97.1055" y="179.824" width="10.7895" height="10.7895" fill="black"/>
<rect x="97.1055" y="190.614" width="10.7895" height="10.7895" fill="black"/>
<rect x="107.896" width="10.7895" height="10.7895" fill="black"/>
<rect width="10.7895" height="10.7895" transform="matrix(1 0 0 -1 107.896 107.895)" fill="black"/>
<rect x="107.896" y="10.7894" width="10.7895" height="10.7895" fill="black"/>
<rect width="10.7895" height="10.7895" transform="matrix(1 0 0 -1 107.896 97.1052)" fill="black"/>
<rect x="107.896" y="21.579" width="10.7895" height="10.7895" fill="black"/>
<rect width="10.7895" height="10.7895" transform="matrix(1 0 0 -1 107.896 86.3158)" fill="black"/>
<rect x="107.896" y="32.3683" width="10.7895" height="10.7895" fill="black"/>
<rect x="107.896" y="43.1578" width="10.7895" height="10.7895" fill="black"/>
<rect x="107.896" y="53.9473" width="10.7895" height="10.7895" fill="black"/>
<rect x="107.896" y="64.7368" width="10.7895" height="10.7895" fill="black"/>
<rect x="107.896" y="125.877" width="10.7895" height="10.7895" fill="black"/>
<rect x="107.896" y="136.667" width="10.7895" height="10.7895" fill="black"/>
<rect x="107.896" y="147.456" width="10.7895" height="10.7895" fill="black"/>
<rect x="107.896" y="158.246" width="10.7895" height="10.7895" fill="black"/>
<rect x="107.896" y="169.035" width="10.7895" height="10.7895" fill="black"/>
<rect x="107.896" y="179.824" width="10.7895" height="10.7895" fill="black"/>
<rect x="107.896" y="190.614" width="10.7895" height="10.7895" fill="black"/>
<rect x="118.685" width="10.7895" height="10.7895" fill="black"/>
<rect width="10.7895" height="10.7895" transform="matrix(1 0 0 -1 118.685 107.895)" fill="black"/>
<rect x="118.685" y="10.7894" width="10.7895" height="10.7895" fill="black"/>
<rect width="10.7895" height="10.7895" transform="matrix(1 0 0 -1 118.685 97.1052)" fill="black"/>
<rect x="118.685" y="21.579" width="10.7895" height="10.7895" fill="black"/>
<rect width="10.7895" height="10.7895" transform="matrix(1 0 0 -1 118.685 86.3158)" fill="black"/>
<rect x="118.685" y="32.3683" width="10.7895" height="10.7895" fill="black"/>
<rect x="118.685" y="43.1578" width="10.7895" height="10.7895" fill="black"/>
<rect x="118.685" y="53.9473" width="10.7895" height="10.7895" fill="black"/>
<rect x="118.685" y="64.7368" width="10.7895" height="10.7895" fill="black"/>
<rect x="118.685" y="125.877" width="10.7895" height="10.7895" fill="black"/>
<rect x="118.685" y="136.667" width="10.7895" height="10.7895" fill="black"/>
<rect x="118.685" y="147.456" width="10.7895" height="10.7895" fill="black"/>
<rect x="118.685" y="158.246" width="10.7895" height="10.7895" fill="black"/>
<rect x="118.685" y="169.035" width="10.7895" height="10.7895" fill="black"/>
<rect x="118.685" y="179.824" width="10.7895" height="10.7895" fill="black"/>
<rect x="118.685" y="190.614" width="10.7895" height="10.7895" fill="black"/>
<rect x="129.474" y="10.7894" width="10.7895" height="10.7895" fill="black"/>
<rect width="10.7895" height="10.7895" transform="matrix(1 0 0 -1 129.474 97.1052)" fill="black"/>
<rect x="129.474" y="21.579" width="10.7895" height="10.7895" fill="black"/>
<rect width="10.7895" height="10.7895" transform="matrix(1 0 0 -1 129.474 86.3158)" fill="black"/>
<rect x="129.474" y="32.3683" width="10.7895" height="10.7895" fill="black"/>
<rect x="129.474" y="43.1578" width="10.7895" height="10.7895" fill="black"/>
<rect x="129.474" y="53.9473" width="10.7895" height="10.7895" fill="black"/>
<rect x="129.474" y="64.7368" width="10.7895" height="10.7895" fill="black"/>
<rect x="129.474" y="125.877" width="10.7895" height="10.7895" fill="black"/>
<rect x="129.474" y="136.667" width="10.7895" height="10.7895" fill="black"/>
<rect x="129.474" y="147.456" width="10.7895" height="10.7895" fill="black"/>
<rect x="129.474" y="158.246" width="10.7895" height="10.7895" fill="black"/>
<rect x="129.474" y="169.035" width="10.7895" height="10.7895" fill="black"/>
<rect x="129.474" y="179.824" width="10.7895" height="10.7895" fill="black"/>
<rect x="129.474" y="190.614" width="10.7895" height="10.7895" fill="black"/>
<rect x="140.263" y="21.579" width="10.7895" height="10.7895" fill="black"/>
<rect width="10.7895" height="10.7895" transform="matrix(1 0 0 -1 140.263 86.3158)" fill="black"/>
<rect x="140.263" y="32.3683" width="10.7895" height="10.7895" fill="black"/>
<rect x="140.263" y="43.1578" width="10.7895" height="10.7895" fill="black"/>
<rect x="140.263" y="53.9473" width="10.7895" height="10.7895" fill="black"/>
<rect x="140.263" y="64.7368" width="10.7895" height="10.7895" fill="black"/>
<rect x="140.263" y="125.877" width="10.7895" height="10.7895" fill="black"/>
<rect x="140.263" y="136.667" width="10.7895" height="10.7895" fill="black"/>
<rect x="140.263" y="147.456" width="10.7895" height="10.7895" fill="black"/>
<rect x="140.263" y="158.246" width="10.7895" height="10.7895" fill="black"/>
<rect x="140.263" y="169.035" width="10.7895" height="10.7895" fill="black"/>
<rect x="140.263" y="179.824" width="10.7895" height="10.7895" fill="black"/>
<rect x="140.263" y="190.614" width="10.7895" height="10.7895" fill="black"/>
<rect x="151.053" y="32.3683" width="10.7895" height="10.7895" fill="black"/>
<rect x="151.053" y="43.1578" width="10.7895" height="10.7895" fill="black"/>
<rect x="151.053" y="53.9473" width="10.7895" height="10.7895" fill="black"/>
<rect x="151.053" y="64.7368" width="10.7895" height="10.7895" fill="black"/>
<rect x="151.053" y="125.877" width="10.7895" height="10.7895" fill="black"/>
<rect x="151.053" y="136.667" width="10.7895" height="10.7895" fill="black"/>
<rect x="151.053" y="147.456" width="10.7895" height="10.7895" fill="black"/>
<rect x="151.053" y="158.246" width="10.7895" height="10.7895" fill="black"/>
<rect x="151.053" y="169.035" width="10.7895" height="10.7895" fill="black"/>
<rect x="151.053" y="179.824" width="10.7895" height="10.7895" fill="black"/>
<rect x="151.053" y="190.614" width="10.7895" height="10.7895" fill="black"/>
<rect x="161.842" y="125.877" width="10.7895" height="10.7895" fill="black"/>
<rect x="161.842" y="136.667" width="10.7895" height="10.7895" fill="black"/>
<rect x="161.842" y="147.456" width="10.7895" height="10.7895" fill="black"/>
<rect x="161.842" y="158.246" width="10.7895" height="10.7895" fill="black"/>
<rect x="161.842" y="169.035" width="10.7895" height="10.7895" fill="black"/>
<rect x="161.842" y="179.824" width="10.7895" height="10.7895" fill="black"/>
<rect x="161.842" y="190.614" width="10.7895" height="10.7895" fill="black"/>
<rect x="172.632" y="136.667" width="10.7895" height="10.7895" fill="black"/>
<rect x="172.632" y="147.456" width="10.7895" height="10.7895" fill="black"/>
<rect x="172.632" y="158.246" width="10.7895" height="10.7895" fill="black"/>
<rect x="172.632" y="169.035" width="10.7895" height="10.7895" fill="black"/>
<rect x="172.632" y="179.824" width="10.7895" height="10.7895" fill="black"/>
<rect x="172.632" y="190.614" width="10.7895" height="10.7895" fill="black"/>
<rect x="183.422" y="147.456" width="10.7895" height="10.7895" fill="black"/>
<rect x="183.422" y="158.246" width="10.7895" height="10.7895" fill="black"/>
<rect x="183.422" y="169.035" width="10.7895" height="10.7895" fill="black"/>
<rect x="183.422" y="179.824" width="10.7895" height="10.7895" fill="black"/>
<rect x="183.422" y="190.614" width="10.7895" height="10.7895" fill="black"/>
<rect x="194.211" y="169.035" width="10.7895" height="10.7895" fill="black"/>
<rect x="194.211" y="179.824" width="10.7895" height="10.7895" fill="black"/>
<rect x="194.211" y="190.614" width="10.7895" height="10.7895" fill="black"/>
</svg>
