<svg width="746" height="872" viewBox="0 0 746 872" fill="none" xmlns="http://www.w3.org/2000/svg">
<rect x="163" y="132" width="466" height="499" fill="#F7BE8B"/>
<rect x="182" y="307" width="16" height="16" fill="#E89562"/>
<rect x="182" y="291" width="16" height="16" fill="#E89562"/>
<rect x="182" y="355" width="16" height="16" fill="#E89562"/>
<rect x="182" y="371" width="16" height="16" fill="#E89562"/>
<rect x="182" y="387" width="16" height="16" fill="#E89562"/>
<rect x="219" y="170" width="16" height="16" fill="#E89562"/>
<rect x="235" y="138" width="16" height="16" fill="#E89562"/>
<rect x="235" y="154" width="16" height="16" fill="#E89562"/>
<rect x="251" y="138" width="16" height="16" fill="#E89562"/>
<rect x="251" y="154" width="16" height="16" fill="#E89562"/>
<rect x="267" y="138" width="16" height="16" fill="#E89562"/>
<rect x="454" y="173" width="16" height="16" fill="#E89562"/>
<rect x="454" y="189" width="16" height="16" fill="#E89562"/>
<rect x="267" y="154" width="16" height="16" fill="#E89562"/>
<rect x="283" y="138" width="155" height="16" fill="#E89562"/>
<rect x="283" y="154" width="155" height="16" fill="#E89562"/>
<rect x="219" y="186" width="16" height="16" fill="#E89562"/>
<rect x="575" y="453" width="19" height="23" fill="#E89562"/>
<rect x="544" y="452" width="16" height="23" fill="#E89562"/>
<rect x="560" y="452" width="16" height="23" fill="#E89562"/>
<rect x="232" y="716" width="312" height="125" fill="#0F539B"/>
<rect x="636" y="724" width="79" height="125" fill="#0F539B"/>
<rect x="575" y="796" width="16" height="16" fill="#073C6E"/>
<rect x="591" y="811" width="16" height="16" fill="#073C6E"/>
<rect x="591" y="827" width="16" height="16" fill="#073C6E"/>
<rect x="607" y="811" width="16" height="16" fill="#073C6E"/>
<rect x="607" y="827" width="16" height="16" fill="#073C6E"/>
<rect x="621" y="811" width="16" height="16" fill="#073C6E"/>
<rect x="200" y="732" width="16" height="16" fill="#073C6E"/>
<rect x="200" y="748" width="16" height="16" fill="#073C6E"/>
<rect x="309" y="654" width="16" height="16" fill="#073C6E"/>
<rect x="309" y="670" width="16" height="16" fill="#073C6E"/>
<rect x="295" y="670" width="16" height="16" fill="#073C6E"/>
<rect x="279" y="670" width="16" height="16" fill="#073C6E"/>
<rect x="279" y="654" width="16" height="16" fill="#073C6E"/>
<rect x="263" y="686" width="16" height="16" fill="#073C6E"/>
<rect x="263" y="701" width="16" height="16" fill="#073C6E"/>
<rect x="247" y="686" width="16" height="16" fill="#073C6E"/>
<rect x="247" y="701" width="16" height="16" fill="#073C6E"/>
<rect x="231" y="686" width="16" height="16" fill="#073C6E"/>
<rect x="231" y="701" width="16" height="16" fill="#073C6E"/>
<rect x="295" y="654" width="16" height="16" fill="#073C6E"/>
<rect x="295" y="638" width="16" height="16" fill="#073C6E"/>
<rect x="325" y="654" width="16" height="16" fill="#073C6E"/>
<rect x="372" y="654" width="16" height="16" fill="#073C6E"/>
<rect x="372" y="670" width="16" height="16" fill="#073C6E"/>
<rect x="388" y="670" width="16" height="16" fill="#073C6E"/>
<rect x="388" y="654" width="16" height="16" fill="#073C6E"/>
<rect x="404" y="654" width="16" height="16" fill="#073C6E"/>
<rect x="404" y="670" width="16" height="16" fill="#073C6E"/>
<rect x="420" y="670" width="16" height="16" fill="#073C6E"/>
<rect x="420" y="654" width="16" height="16" fill="#073C6E"/>
<rect x="436" y="654" width="16" height="16" fill="#073C6E"/>
<rect x="471" y="623" width="16" height="16" fill="#073C6E"/>
<rect x="484" y="623" width="16" height="16" fill="#073C6E"/>
<rect x="468" y="586" width="45" height="37" fill="#073C6E"/>
<rect x="436" y="670" width="16" height="16" fill="#073C6E"/>
<rect x="407" y="638" width="16" height="16" fill="#073C6E"/>
<rect x="423" y="638" width="16" height="16" fill="#073C6E"/>
<rect x="439" y="638" width="16" height="16" fill="#073C6E"/>
<rect x="451" y="638" width="16" height="17" fill="#073C6E"/>
<rect x="467" y="638" width="16" height="17" fill="#073C6E"/>
<rect x="483" y="638" width="16" height="17" fill="#073C6E"/>
<rect x="325" y="670" width="16" height="16" fill="#073C6E"/>
<rect x="216" y="748" width="16" height="16" fill="#073C6E"/>
<rect x="216" y="732" width="16" height="16" fill="#073C6E"/>
<rect x="186" y="763" width="16" height="16" fill="#073C6E"/>
<rect x="186" y="779" width="16" height="16" fill="#073C6E"/>
<rect x="186" y="795" width="16" height="16" fill="#073C6E"/>
<rect x="186" y="811" width="16" height="16" fill="#073C6E"/>
<rect x="186" y="827" width="16" height="16" fill="#073C6E"/>
<rect x="170" y="810" width="16" height="16" fill="#073C6E"/>
<rect x="170" y="825" width="16" height="16" fill="#073C6E"/>
<rect x="155" y="825" width="16" height="16" fill="#073C6E"/>
<rect x="155" y="809" width="16" height="16" fill="#073C6E"/>
<rect x="621" y="827" width="16" height="16" fill="#073C6E"/>
<rect x="668" y="717" width="16" height="16" fill="#073C6E"/>
<rect x="652" y="717" width="16" height="16" fill="#073C6E"/>
<rect x="636" y="717" width="16" height="16" fill="#073C6E"/>
<rect x="684" y="733" width="16" height="16" fill="#073C6E"/>
<rect x="700" y="733" width="16" height="16" fill="#073C6E"/>
<rect x="700" y="749" width="16" height="16" fill="#073C6E"/>
<rect x="700" y="764" width="16" height="16" fill="#073C6E"/>
<rect x="684" y="764" width="16" height="16" fill="#073C6E"/>
<rect x="684" y="749" width="16" height="16" fill="#073C6E"/>
<rect x="575" y="733" width="16" height="16" fill="#17314F"/>
<rect x="575" y="608" width="16" height="16" fill="#17314F"/>
<rect x="560" y="733" width="16" height="16" fill="#001226"/>
<rect x="591" y="764" width="16" height="16" fill="#17314F"/>
<rect x="591" y="748" width="16" height="16" fill="#001226"/>
<rect x="591" y="732" width="16" height="16" fill="#001226"/>
<rect x="559" y="265" width="16" height="171" fill="#001226"/>
<rect x="543" y="265" width="16" height="171" fill="#001226"/>
<rect x="591" y="716" width="16" height="16" fill="#001226"/>
<rect x="544" y="623" width="16" height="16" fill="#001226"/>
<rect x="559" y="623" width="16" height="16" fill="#001226"/>
<rect x="670" y="467" width="16" height="139" fill="#001226"/>
<rect x="684" y="561" width="16" height="94" fill="#001226"/>
<rect x="700" y="561" width="16" height="94" fill="#001226"/>
<rect x="575" y="592" width="16" height="16" fill="#001226"/>
<rect x="139" y="265" width="16" height="203" fill="#001226"/>
<rect x="124" y="265" width="16" height="203" fill="#001226"/>
<rect x="342" y="93" width="16" height="45" fill="#001226"/>
<rect x="575" y="296" width="16" height="16" fill="#001226"/>
<rect x="575" y="312" width="16" height="16" fill="#001226"/>
<rect x="155" y="529" width="16" height="126" fill="#001226"/>
<rect x="139" y="529" width="16" height="126" fill="#001226"/>
<rect x="123" y="529" width="16" height="126" fill="#001226"/>
<rect x="575" y="327" width="16" height="16" fill="#001226"/>
<rect x="171" y="561" width="16" height="16" fill="#001226"/>
<rect x="171" y="577" width="16" height="16" fill="#001226"/>
<rect x="139" y="654" width="63" height="16" fill="#001226"/>
<rect x="171" y="606" width="58" height="16" fill="#001226"/>
<rect x="185" y="561" width="16" height="16" fill="#001226"/>
<rect x="185" y="577" width="16" height="16" fill="#001226"/>
<rect x="186" y="670" width="16" height="16" fill="#001226"/>
<rect x="170" y="670" width="16" height="16" fill="#001226"/>
<rect x="155" y="670" width="16" height="16" fill="#001226"/>
<rect x="155" y="686" width="16" height="16" fill="#001226"/>
<rect x="155" y="702" width="16" height="16" fill="#001226"/>
<rect x="155" y="716" width="16" height="16" fill="#001226"/>
<rect x="107" y="561" width="16" height="16" fill="#001226"/>
<rect x="107" y="577" width="16" height="16" fill="#001226"/>
<rect x="107" y="593" width="16" height="16" fill="#001226"/>
<rect x="107" y="609" width="16" height="16" fill="#001226"/>
<rect x="107" y="625" width="16" height="16" fill="#001226"/>
<rect x="63" y="548" width="64" height="93" fill="#17314F"/>
<rect x="91" y="468" width="64" height="93" fill="#17314F"/>
<rect x="126" y="93" width="93" height="101" fill="#17314F"/>
<rect x="188" y="31" width="93" height="107" fill="#17314F"/>
<rect x="281" y="31" width="93" height="107" fill="#17314F"/>
<rect x="374" y="31" width="93" height="107" fill="#17314F"/>
<path d="M475 62H591V113.5L613.5 124L591 205H475V62Z" fill="#17314F"/>
<rect x="521" y="125" width="116" height="171" fill="#17314F"/>
<rect x="438" y="31" width="121" height="142" fill="#17314F"/>
<rect x="108" y="149" width="52" height="319" fill="#17314F"/>
<rect x="107" y="639" width="51" height="93" fill="#17314F"/>
<rect x="62" y="710" width="65" height="73" fill="#17314F"/>
<rect x="31" y="748" width="16" height="16" fill="#001226"/>
<rect x="46" y="748" width="16" height="16" fill="#001226"/>
<rect x="93" y="703" width="16" height="16" fill="#001226"/>
<rect x="140" y="700" width="18" height="48" fill="#001226"/>
<rect x="124" y="700" width="16" height="48" fill="#001226"/>
<rect x="171" y="622" width="77" height="32" fill="#001226"/>
<rect x="171" y="592" width="61" height="16" fill="#001226"/>
<rect x="221" y="606" width="58" height="16" fill="#001226"/>
<rect x="591" y="327" width="16" height="16" fill="#001226"/>
<rect x="607" y="327" width="16" height="16" fill="#001226"/>
<rect x="591" y="265" width="46" height="63" fill="#001226"/>
<rect x="575" y="576" width="16" height="16" fill="#001226"/>
<rect x="575" y="470" width="47" height="106" fill="#001226"/>
<rect x="559" y="563" width="16" height="61" fill="#001226"/>
<rect x="543" y="563" width="16" height="61" fill="#001226"/>
<rect x="622" y="312" width="16" height="374" fill="#001226"/>
<rect x="638" y="312" width="16" height="374" fill="#001226"/>
<rect x="654" y="312" width="16" height="374" fill="#001226"/>
<rect x="591" y="700" width="46" height="17" fill="#001226"/>
<rect x="591" y="686" width="46" height="17" fill="#001226"/>
<rect x="575" y="623" width="16" height="16" fill="#17314F"/>
<rect x="575" y="717" width="16" height="16" fill="#17314F"/>
<rect x="591" y="576" width="16" height="110" fill="#17314F"/>
<rect x="606" y="576" width="16" height="110" fill="#17314F"/>
<rect x="575" y="639" width="16" height="78" fill="#17314F"/>
<rect x="559" y="717" width="16" height="16" fill="#17314F"/>
<rect x="544" y="639" width="16" height="78" fill="#17314F"/>
<rect x="559" y="639" width="16" height="78" fill="#17314F"/>
<rect x="591" y="93" width="31" height="31" fill="black"/>
<rect x="560" y="62" width="31" height="31" fill="black"/>
<rect x="529" y="31" width="31" height="31" fill="black"/>
<rect x="498" y="31" width="31" height="31" fill="black"/>
<rect x="467" width="31" height="31" fill="black"/>
<rect x="436" width="31" height="31" fill="black"/>
<rect x="405" width="31" height="31" fill="black"/>
<rect x="374" width="31" height="31" fill="black"/>
<rect x="343" width="31" height="31" fill="black"/>
<rect x="312" width="31" height="31" fill="black"/>
<rect x="281" width="31" height="31" fill="black"/>
<rect x="250" width="31" height="31" fill="black"/>
<rect x="219" y="31" width="31" height="31" fill="black"/>
<rect x="188" y="31" width="31" height="31" fill="black"/>
<rect x="157" y="62" width="31" height="31" fill="black"/>
<rect x="126" y="93" width="31" height="31" fill="black"/>
<rect x="95" y="124" width="31" height="31" fill="black"/>
<rect x="79" y="155" width="31" height="31" fill="black"/>
<rect x="79" y="185" width="31" height="31" fill="black"/>
<rect x="79" y="215" width="31" height="31" fill="black"/>
<rect x="79" y="245" width="31" height="31" fill="black"/>
<rect x="79" y="275" width="31" height="31" fill="black"/>
<rect x="79" y="305" width="31" height="31" fill="black"/>
<rect x="79" y="335" width="31" height="31" fill="black"/>
<rect x="79" y="365" width="31" height="31" fill="black"/>
<rect x="79" y="395" width="31" height="31" fill="black"/>
<rect x="79" y="425" width="31" height="31" fill="black"/>
<rect x="79" y="455" width="31" height="31" fill="black"/>
<rect x="63" y="486" width="31" height="31" fill="black"/>
<rect x="63" y="517" width="31" height="31" fill="black"/>
<rect x="32" y="548" width="31" height="31" fill="black"/>
<rect x="32" y="579" width="31" height="31" fill="black"/>
<rect x="48" y="610" width="31" height="31" fill="black"/>
<rect x="78" y="641" width="31" height="31" fill="black"/>
<rect x="78" y="672" width="31" height="31" fill="black"/>
<rect x="62" y="703" width="31" height="31" fill="black"/>
<rect x="31" y="719" width="31" height="31" fill="black"/>
<rect y="701" width="31" height="31" fill="black"/>
<rect y="732" width="31" height="31" fill="black"/>
<rect x="31" y="763" width="31" height="31" fill="black"/>
<rect x="62" y="779" width="31" height="31" fill="black"/>
<rect x="93" y="779" width="31" height="31" fill="black"/>
<rect x="124" y="810" width="31" height="31" fill="black"/>
<rect x="124" y="779" width="31" height="31" fill="black"/>
<rect x="155" y="779" width="31" height="31" fill="black"/>
<rect x="155" y="748" width="31" height="31" fill="black"/>
<rect x="155" y="732" width="31" height="31" fill="black"/>
<rect x="171" y="732" width="31" height="31" fill="black"/>
<rect x="171" y="701" width="31" height="31" fill="black"/>
<rect x="171" y="685" width="31" height="31" fill="black"/>
<rect x="202" y="654" width="31" height="32" fill="black"/>
<rect x="217" y="654" width="31" height="32" fill="black"/>
<rect x="248" y="622" width="31" height="32" fill="black"/>
<rect x="202" y="763" width="31" height="31" fill="black"/>
<rect x="202" y="794" width="31" height="31" fill="black"/>
<rect x="202" y="825" width="31" height="31" fill="black"/>
<rect x="326" y="825" width="31" height="31" fill="black"/>
<rect x="326" y="794" width="31" height="31" fill="black"/>
<rect x="326" y="763" width="31" height="31" fill="black"/>
<rect x="341" y="732" width="31" height="31" fill="black"/>
<rect x="341" y="701" width="31" height="31" fill="black"/>
<rect x="372" y="686" width="31" height="31" fill="black"/>
<rect x="403" y="686" width="31" height="31" fill="black"/>
<rect x="419" y="686" width="31" height="31" fill="black"/>
<rect x="450" y="655" width="31" height="31" fill="black"/>
<rect x="466" y="655" width="31" height="31" fill="black"/>
<rect x="310" y="686" width="31" height="31" fill="black"/>
<rect x="279" y="686" width="31" height="31" fill="black"/>
<rect x="341" y="670" width="31" height="31" fill="black"/>
<rect x="341" y="654" width="31" height="31" fill="black"/>
<rect x="124" y="748" width="31" height="31" fill="black"/>
<rect x="124" y="841" width="31" height="31" fill="black"/>
<rect x="155" y="841" width="31" height="31" fill="black"/>
<rect x="186" y="841" width="31" height="31" fill="black"/>
<rect x="217" y="841" width="31" height="31" fill="black"/>
<rect x="248" y="841" width="31" height="31" fill="black"/>
<rect x="279" y="841" width="31" height="31" fill="black"/>
<rect x="310" y="841" width="31" height="31" fill="black"/>
<rect x="341" y="841" width="31" height="31" fill="black"/>
<rect x="372" y="841" width="31" height="31" fill="black"/>
<rect x="403" y="841" width="31" height="31" fill="black"/>
<rect x="434" y="841" width="31" height="31" fill="black"/>
<rect x="465" y="841" width="31" height="31" fill="black"/>
<rect x="496" y="841" width="31" height="31" fill="black"/>
<rect x="527" y="841" width="31" height="31" fill="black"/>
<rect x="558" y="841" width="31" height="31" fill="black"/>
<rect x="589" y="841" width="31" height="31" fill="black"/>
<rect x="620" y="841" width="31" height="31" fill="black"/>
<rect x="651" y="841" width="31" height="31" fill="black"/>
<rect x="682" y="841" width="31" height="31" fill="black"/>
<rect x="713" y="841" width="31" height="31" fill="black"/>
<rect x="715" y="541" width="31" height="31" fill="black"/>
<rect x="715" y="572" width="31" height="31" fill="black"/>
<rect x="715" y="603" width="31" height="31" fill="black"/>
<rect x="715" y="624" width="31" height="31" fill="black"/>
<rect x="684" y="655" width="31" height="31" fill="black"/>
<rect x="637" y="686" width="47" height="31" fill="black"/>
<rect x="591" y="780" width="31" height="31" fill="black"/>
<rect x="637" y="749" width="31" height="31" fill="black"/>
<rect x="560" y="811" width="31" height="31" fill="black"/>
<rect x="529" y="717" width="31" height="32" fill="black"/>
<rect x="513" y="687" width="31" height="31" fill="black"/>
<rect x="513" y="594" width="31" height="31" fill="black"/>
<rect x="513" y="563" width="31" height="31" fill="black"/>
<rect x="513" y="532" width="31" height="31" fill="black"/>
<rect x="544" y="532" width="31" height="31" fill="black"/>
<rect x="544" y="501" width="31" height="31" fill="black"/>
<rect x="544" y="470" width="31" height="31" fill="black"/>
<rect x="591" y="439" width="31" height="31" fill="black"/>
<rect x="621" y="343" width="19" height="96" fill="black"/>
<rect x="513" y="656" width="31" height="31" fill="black"/>
<rect x="513" y="625" width="31" height="31" fill="black"/>
<rect x="560" y="749" width="31" height="31" fill="black"/>
<rect x="684" y="702" width="31" height="31" fill="black"/>
<rect x="606" y="717" width="31" height="94" fill="black"/>
<rect x="715" y="733" width="31" height="109" fill="black"/>
<rect x="606" y="124" width="31" height="31" fill="black"/>
<rect x="606" y="140" width="31" height="31" fill="black"/>
<rect x="684" y="467" width="31" height="94" fill="black"/>
<rect x="668" y="312" width="31" height="155" fill="black"/>
<rect x="637" y="171" width="31" height="141" fill="black"/>
<rect x="607" y="343" width="16" height="16" fill="black"/>
<rect x="607" y="359" width="16" height="16" fill="black"/>
<rect x="591" y="359" width="16" height="16" fill="black"/>
<rect x="497" y="623" width="16" height="16" fill="black"/>
<rect x="497" y="639" width="16" height="16" fill="black"/>
<rect x="311" y="622" width="16" height="16" fill="black"/>
<rect x="279" y="606" width="16" height="16" fill="black"/>
<rect x="668" y="670" width="16" height="16" fill="black"/>
<rect x="668" y="654" width="16" height="16" fill="black"/>
<rect x="668" y="638" width="16" height="16" fill="black"/>
<rect x="668" y="622" width="16" height="16" fill="black"/>
<rect x="668" y="606" width="16" height="16" fill="black"/>
<rect x="417" y="748" width="16" height="16" fill="#14A5D8"/>
<rect x="433" y="748" width="16" height="16" fill="#14A5D8"/>
<rect x="449" y="748" width="16" height="16" fill="#14A5D8"/>
<rect x="465" y="748" width="16" height="16" fill="#14A5D8"/>
<rect x="481" y="748" width="16" height="16" fill="#14A5D8"/>
<rect x="497" y="748" width="16" height="16" fill="#14A5D8"/>
<rect x="465" y="780" width="16" height="16" fill="#14A5D8"/>
<rect x="449" y="780" width="16" height="16" fill="#14A5D8"/>
<rect x="513" y="748" width="16" height="16" fill="#14A5D8"/>
<rect x="481" y="780" width="16" height="16" fill="#14A5D8"/>
<rect x="417" y="764" width="16" height="16" fill="#14A5D8"/>
<rect x="433" y="764" width="16" height="16" fill="#14A5D8"/>
<rect x="449" y="764" width="16" height="16" fill="#14A5D8"/>
<rect x="465" y="764" width="16" height="16" fill="#14A5D8"/>
<rect x="481" y="764" width="16" height="16" fill="#14A5D8"/>
<rect x="497" y="764" width="16" height="16" fill="#14A5D8"/>
<rect x="465" y="796" width="16" height="16" fill="#14A5D8"/>
<rect x="449" y="796" width="16" height="16" fill="#14A5D8"/>
<rect x="513" y="764" width="16" height="16" fill="#14A5D8"/>
<rect x="481" y="796" width="16" height="16" fill="#14A5D8"/>
<rect x="575" y="780" width="16" height="16" fill="#073C6E"/>
<rect x="559" y="795" width="16" height="16" fill="#073C6E"/>
<rect x="559" y="780" width="16" height="16" fill="#073C6E"/>
<rect x="544" y="825" width="16" height="16" fill="#073C6E"/>
<rect x="544" y="809" width="16" height="16" fill="#073C6E"/>
<rect x="544" y="793" width="16" height="16" fill="#073C6E"/>
<rect x="544" y="777" width="16" height="16" fill="#073C6E"/>
<rect x="544" y="761" width="16" height="16" fill="#073C6E"/>
<rect x="202" y="686" width="16" height="16" fill="#011D3B"/>
<rect x="216" y="686" width="16" height="16" fill="#011D3B"/>
<rect x="295" y="622" width="16" height="16" fill="#011D3B"/>
<rect x="513" y="717" width="16" height="16" fill="#011D3B"/>
<rect x="279" y="622" width="16" height="33" fill="#011D3B"/>
<rect x="248" y="670" width="16" height="16" fill="#011D3B"/>
<rect x="264" y="670" width="15" height="16" fill="#011D3B"/>
<rect x="263" y="654" width="16" height="16" fill="#011D3B"/>
<rect x="248" y="654" width="15" height="16" fill="#011D3B"/>
<rect x="216" y="702" width="16" height="16" fill="#011D3B"/>
<rect x="216" y="716" width="16" height="16" fill="#011D3B"/>
<rect x="202" y="716" width="15" height="16" fill="#011D3B"/>
<rect x="202" y="701" width="15" height="16" fill="#011D3B"/>
<rect x="450" y="686" width="16" height="16" fill="#073C6E"/>
<rect x="450" y="701" width="16" height="16" fill="#073C6E"/>
<rect x="466" y="701" width="16" height="16" fill="#073C6E"/>
<rect x="466" y="686" width="16" height="16" fill="#073C6E"/>
<rect x="482" y="686" width="16" height="16" fill="#073C6E"/>
<rect x="482" y="701" width="16" height="16" fill="#073C6E"/>
<rect x="498" y="701" width="15" height="16" fill="#073C6E"/>
<rect x="498" y="685" width="15" height="16" fill="#073C6E"/>
<rect x="497" y="655" width="16" height="35" fill="#073C6E"/>
<rect x="544" y="749" width="16" height="16" fill="#073C6E"/>
<rect x="247" y="590" width="16" height="16" fill="black"/>
<rect x="231" y="574" width="16" height="16" fill="black"/>
<rect x="217" y="561" width="16" height="16" fill="black"/>
<rect x="201" y="561" width="16" height="16" fill="black"/>
<rect x="187" y="529" width="16" height="16" fill="black"/>
<rect x="171" y="497" width="16" height="16" fill="black"/>
<rect x="171" y="465" width="16" height="16" fill="black"/>
<rect x="171" y="433" width="16" height="16" fill="black"/>
<rect x="171" y="401" width="16" height="16" fill="black"/>
<rect x="171" y="369" width="16" height="16" fill="black"/>
<rect x="171" y="337" width="16" height="16" fill="black"/>
<rect x="171" y="305" width="16" height="16" fill="black"/>
<rect x="171" y="273" width="16" height="16" fill="black"/>
<rect x="171" y="241" width="16" height="16" fill="black"/>
<rect x="171" y="209" width="16" height="16" fill="black"/>
<rect x="171" y="529" width="16" height="16" fill="black"/>
<rect x="155" y="497" width="16" height="16" fill="black"/>
<rect x="155" y="465" width="16" height="16" fill="black"/>
<rect x="155" y="433" width="16" height="16" fill="black"/>
<rect x="155" y="401" width="16" height="16" fill="black"/>
<rect x="155" y="369" width="16" height="16" fill="black"/>
<rect x="155" y="337" width="16" height="16" fill="black"/>
<rect x="155" y="305" width="16" height="16" fill="black"/>
<rect x="155" y="273" width="16" height="16" fill="black"/>
<rect x="155" y="241" width="16" height="16" fill="black"/>
<rect x="155" y="209" width="16" height="16" fill="black"/>
<rect x="247" y="574" width="16" height="16" fill="black"/>
<rect x="231" y="590" width="16" height="16" fill="black"/>
<rect x="217" y="577" width="16" height="16" fill="black"/>
<rect x="201" y="577" width="16" height="16" fill="black"/>
<rect x="187" y="545" width="16" height="16" fill="black"/>
<rect x="171" y="513" width="16" height="16" fill="black"/>
<rect x="171" y="481" width="16" height="16" fill="black"/>
<rect x="171" y="449" width="16" height="16" fill="black"/>
<rect x="171" y="417" width="16" height="16" fill="black"/>
<rect x="171" y="385" width="16" height="16" fill="black"/>
<rect x="171" y="353" width="16" height="16" fill="black"/>
<rect x="171" y="321" width="16" height="16" fill="black"/>
<rect x="171" y="289" width="16" height="16" fill="black"/>
<rect x="171" y="257" width="16" height="16" fill="black"/>
<rect x="171" y="225" width="16" height="16" fill="black"/>
<rect x="171" y="193" width="16" height="16" fill="black"/>
<rect x="187" y="202" width="16" height="16" fill="black"/>
<rect x="203" y="186" width="16" height="16" fill="black"/>
<rect x="187" y="186" width="16" height="16" fill="black"/>
<rect x="203" y="170" width="16" height="16" fill="black"/>
<rect x="187" y="170" width="16" height="16" fill="black"/>
<rect x="203" y="154" width="16" height="16" fill="black"/>
<rect x="219" y="154" width="16" height="16" fill="black"/>
<rect x="235" y="122" width="16" height="16" fill="black"/>
<rect x="251" y="122" width="16" height="16" fill="black"/>
<rect x="267" y="122" width="16" height="16" fill="black"/>
<rect x="283" y="122" width="16" height="16" fill="black"/>
<rect x="299" y="122" width="16" height="16" fill="black"/>
<rect x="315" y="122" width="16" height="16" fill="black"/>
<rect x="358" y="122" width="16" height="16" fill="black"/>
<rect x="575" y="390" width="16" height="16" fill="#E89562"/>
<rect x="575" y="406" width="16" height="16" fill="#E89562"/>
<rect x="575" y="421" width="16" height="16" fill="#E89562"/>
<rect x="575" y="437" width="16" height="16" fill="#E89562"/>
<rect x="559" y="436" width="16" height="16" fill="#E89562"/>
<rect x="544" y="436" width="16" height="16" fill="#E89562"/>
<rect x="528" y="516" width="16" height="16" fill="#E89562"/>
<rect x="528" y="500" width="16" height="16" fill="#E89562"/>
<rect x="528" y="484" width="16" height="16" fill="#E89562"/>
<rect x="513" y="516" width="16" height="16" fill="#E89562"/>
<rect x="497" y="532" width="16" height="14" fill="#E89562"/>
<rect x="497" y="546" width="16" height="16" fill="#E89562"/>
<rect x="497" y="559" width="16" height="16" fill="#E89562"/>
<rect x="481" y="546" width="16" height="16" fill="#E89562"/>
<rect x="481" y="559" width="16" height="16" fill="#E89562"/>
<rect x="465" y="546" width="16" height="16" fill="#E89562"/>
<rect x="465" y="559" width="16" height="16" fill="#E89562"/>
<rect x="311" y="606" width="80" height="16" fill="#E89562"/>
<rect x="439" y="574" width="16" height="16" fill="#E89562"/>
<rect x="423" y="574" width="16" height="16" fill="#E89562"/>
<rect x="279" y="436" width="47" height="29" fill="#E89562"/>
<rect x="187" y="482" width="16" height="47" fill="#E89562"/>
<rect x="423" y="590" width="16" height="16" fill="#E89562"/>
<rect x="439" y="590" width="16" height="16" fill="#E89562"/>
<rect x="513" y="500" width="16" height="16" fill="#E89562"/>
<rect x="513" y="484" width="16" height="16" fill="#E89562"/>
<rect x="374" y="122" width="16" height="16" fill="black"/>
<rect x="390" y="122" width="16" height="16" fill="black"/>
<rect x="406" y="122" width="16" height="16" fill="black"/>
<rect x="422" y="122" width="16" height="16" fill="black"/>
<rect x="438" y="141" width="16" height="16" fill="black"/>
<rect x="438" y="157" width="16" height="16" fill="black"/>
<rect x="454" y="157" width="16" height="16" fill="black"/>
<rect x="470" y="173" width="16" height="16" fill="black"/>
<rect x="470" y="189" width="16" height="16" fill="black"/>
<rect x="486" y="189" width="16" height="16" fill="black"/>
<rect x="502" y="189" width="16" height="16" fill="black"/>
<rect x="518" y="189" width="16" height="16" fill="black"/>
<rect x="518" y="205" width="16" height="16" fill="black"/>
<rect x="518" y="221" width="16" height="16" fill="black"/>
<rect x="518" y="253" width="16" height="16" fill="black"/>
<rect x="534" y="221" width="16" height="16" fill="black"/>
<rect x="534" y="253" width="16" height="16" fill="black"/>
<rect x="518" y="237" width="16" height="16" fill="black"/>
<rect x="518" y="269" width="16" height="16" fill="black"/>
<rect x="481" y="259" width="16" height="16" fill="black"/>
<rect x="465" y="259" width="16" height="16" fill="black"/>
<rect x="449" y="259" width="16" height="16" fill="black"/>
<rect x="449" y="275" width="16" height="16" fill="black"/>
<rect x="465" y="275" width="16" height="16" fill="black"/>
<rect x="481" y="275" width="16" height="16" fill="black"/>
<rect x="449" y="291" width="16" height="16" fill="black"/>
<rect x="433" y="291" width="16" height="16" fill="black"/>
<rect x="417" y="291" width="16" height="16" fill="black"/>
<rect x="417" y="275" width="16" height="16" fill="black"/>
<rect x="433" y="275" width="16" height="16" fill="black"/>
<rect x="417" y="307" width="16" height="16" fill="black"/>
<rect x="417" y="323" width="16" height="16" fill="black"/>
<rect x="401" y="323" width="16" height="16" fill="black"/>
<rect x="401" y="307" width="16" height="16" fill="black"/>
<rect x="385" y="307" width="16" height="16" fill="black"/>
<rect x="385" y="323" width="16" height="16" fill="black"/>
<rect x="369" y="323" width="16" height="16" fill="black"/>
<rect x="369" y="307" width="16" height="16" fill="black"/>
<rect x="353" y="307" width="16" height="16" fill="black"/>
<rect x="353" y="323" width="16" height="16" fill="black"/>
<rect x="337" y="323" width="16" height="16" fill="black"/>
<rect x="337" y="307" width="16" height="16" fill="black"/>
<rect x="337" y="291" width="16" height="16" fill="black"/>
<rect x="187" y="259" width="16" height="16" fill="black"/>
<rect x="203" y="259" width="16" height="16" fill="black"/>
<rect x="262" y="307" width="16" height="16" fill="black"/>
<rect x="278" y="307" width="16" height="16" fill="black"/>
<rect x="294" y="307" width="16" height="16" fill="black"/>
<rect x="294" y="291" width="16" height="16" fill="black"/>
<rect x="294" y="323" width="16" height="16" fill="black"/>
<rect x="294" y="339" width="16" height="16" fill="black"/>
<rect x="278" y="339" width="16" height="16" fill="black"/>
<rect x="278" y="323" width="16" height="16" fill="black"/>
<rect x="262" y="323" width="16" height="16" fill="black"/>
<rect x="262" y="339" width="16" height="16" fill="black"/>
<rect x="246" y="339" width="16" height="16" fill="black"/>
<rect x="417" y="339" width="16" height="16" fill="black"/>
<rect x="401" y="339" width="16" height="16" fill="black"/>
<rect x="401" y="355" width="16" height="16" fill="black"/>
<rect x="417" y="355" width="16" height="16" fill="black"/>
<rect x="417" y="371" width="16" height="16" fill="black"/>
<rect x="401" y="371" width="16" height="16" fill="black"/>
<rect x="401" y="387" width="16" height="16" fill="black"/>
<rect x="417" y="387" width="16" height="16" fill="black"/>
<rect x="433" y="323" width="16" height="16" fill="black"/>
<rect x="449" y="323" width="16" height="16" fill="black"/>
<rect x="465" y="323" width="16" height="16" fill="black"/>
<rect x="481" y="323" width="16" height="16" fill="black"/>
<rect x="497" y="323" width="16" height="16" fill="black"/>
<rect x="433" y="339" width="16" height="16" fill="black"/>
<rect x="449" y="339" width="16" height="16" fill="black"/>
<rect x="465" y="339" width="16" height="16" fill="black"/>
<rect x="481" y="339" width="16" height="16" fill="black"/>
<rect x="497" y="339" width="16" height="16" fill="black"/>
<rect x="433" y="355" width="16" height="16" fill="#0F539B"/>
<rect x="433" y="387" width="16" height="16" fill="#0F539B"/>
<rect x="291" y="496" width="16" height="16" fill="#772D2B"/>
<rect x="307" y="480" width="16" height="16" fill="#772D2B"/>
<rect x="307" y="496" width="16" height="16" fill="#772D2B"/>
<rect x="323" y="496" width="16" height="16" fill="#772D2B"/>
<rect x="323" y="480" width="16" height="16" fill="#772D2B"/>
<rect x="339" y="480" width="16" height="16" fill="#772D2B"/>
<rect x="339" y="496" width="16" height="16" fill="#772D2B"/>
<rect x="355" y="496" width="16" height="16" fill="#772D2B"/>
<rect x="355" y="480" width="16" height="16" fill="#772D2B"/>
<rect x="371" y="480" width="16" height="16" fill="#772D2B"/>
<rect x="371" y="496" width="16" height="16" fill="#772D2B"/>
<rect x="387" y="512" width="16" height="16" fill="#772D2B"/>
<rect x="403" y="512" width="16" height="16" fill="#772D2B"/>
<rect x="403" y="528" width="16" height="16" fill="#772D2B"/>
<rect x="387" y="528" width="16" height="16" fill="#772D2B"/>
<rect x="387" y="544" width="16" height="16" fill="#772D2B"/>
<rect x="371" y="544" width="16" height="16" fill="#772D2B"/>
<rect x="371" y="528" width="16" height="16" fill="#772D2B"/>
<rect x="355" y="528" width="16" height="16" fill="#772D2B"/>
<rect x="355" y="544" width="16" height="16" fill="#772D2B"/>
<rect x="339" y="544" width="16" height="16" fill="#772D2B"/>
<rect x="339" y="528" width="16" height="16" fill="#772D2B"/>
<rect x="323" y="528" width="16" height="16" fill="#772D2B"/>
<rect x="323" y="544" width="16" height="16" fill="#772D2B"/>
<rect x="307" y="544" width="16" height="16" fill="#772D2B"/>
<rect x="307" y="528" width="16" height="16" fill="#772D2B"/>
<rect x="291" y="528" width="16" height="16" fill="#772D2B"/>
<rect x="291" y="544" width="16" height="16" fill="#772D2B"/>
<rect x="291" y="512" width="16" height="16" fill="#772D2B"/>
<rect x="307" y="512" width="16" height="16" fill="white"/>
<rect x="323" y="512" width="16" height="16" fill="white"/>
<rect x="339" y="512" width="16" height="16" fill="white"/>
<rect x="355" y="512" width="16" height="16" fill="white"/>
<rect x="371" y="512" width="16" height="16" fill="white"/>
<rect x="449" y="355" width="16" height="16" fill="white"/>
<rect x="465" y="355" width="16" height="16" fill="white"/>
<rect x="481" y="355" width="16" height="16" fill="white"/>
<rect x="449" y="371" width="16" height="16" fill="white"/>
<rect x="465" y="371" width="16" height="16" fill="white"/>
<rect x="481" y="371" width="16" height="16" fill="white"/>
<rect x="449" y="387" width="16" height="16" fill="white"/>
<rect x="465" y="387" width="16" height="16" fill="white"/>
<rect x="481" y="387" width="16" height="16" fill="white"/>
<rect x="198" y="355" width="32" height="16" fill="#E89562"/>
<rect x="246" y="307" width="16" height="16" fill="#E89562"/>
<rect x="230" y="307" width="16" height="16" fill="#E89562"/>
<rect x="214" y="307" width="16" height="16" fill="#E89562"/>
<rect x="198" y="307" width="16" height="16" fill="#E89562"/>
<rect x="198" y="291" width="16" height="16" fill="#E89562"/>
<rect x="203" y="291" width="16" height="16" fill="#E89562"/>
<rect x="198" y="371" width="32" height="16" fill="#E89562"/>
<rect x="198" y="387" width="32" height="16" fill="#E89562"/>
<rect x="385" y="339" width="16" height="16" fill="#E89562"/>
<rect x="433" y="307" width="16" height="16" fill="#E89562"/>
<rect x="449" y="307" width="16" height="16" fill="#E89562"/>
<rect x="369" y="339" width="16" height="16" fill="#E89562"/>
<rect x="353" y="339" width="16" height="16" fill="#E89562"/>
<rect x="337" y="339" width="16" height="16" fill="#E89562"/>
<rect x="321" y="339" width="16" height="16" fill="#E89562"/>
<rect x="321" y="323" width="16" height="16" fill="#E89562"/>
<rect x="321" y="307" width="16" height="16" fill="#E89562"/>
<rect x="321" y="291" width="16" height="16" fill="#E89562"/>
<rect x="433" y="371" width="16" height="16" fill="#0F539B"/>
<rect x="246" y="323" width="16" height="16" fill="black"/>
<rect x="230" y="323" width="16" height="16" fill="black"/>
<rect x="230" y="339" width="16" height="16" fill="black"/>
<rect x="214" y="339" width="16" height="16" fill="black"/>
<rect x="214" y="323" width="16" height="16" fill="black"/>
<rect x="198" y="323" width="16" height="16" fill="black"/>
<rect x="198" y="339" width="16" height="16" fill="black"/>
<rect x="182" y="339" width="16" height="16" fill="black"/>
<rect x="182" y="323" width="16" height="16" fill="black"/>
<rect x="251" y="291" width="16" height="16" fill="black"/>
<rect x="235" y="291" width="16" height="16" fill="black"/>
<rect x="219" y="291" width="16" height="16" fill="black"/>
<rect x="219" y="275" width="16" height="16" fill="black"/>
<rect x="235" y="275" width="16" height="16" fill="black"/>
<rect x="203" y="275" width="16" height="16" fill="black"/>
<rect x="187" y="275" width="16" height="16" fill="black"/>
<rect x="518" y="285" width="16" height="16" fill="black"/>
<rect x="534" y="237" width="16" height="16" fill="black"/>
<rect x="534" y="269" width="16" height="16" fill="black"/>
<rect x="534" y="285" width="16" height="16" fill="black"/>
<rect x="534" y="301" width="16" height="16" fill="black"/>
<rect x="534" y="349" width="16" height="16" fill="black"/>
<rect x="534" y="397" width="16" height="16" fill="black"/>
<rect x="534" y="317" width="16" height="16" fill="black"/>
<rect x="534" y="365" width="16" height="16" fill="black"/>
<rect x="534" y="413" width="16" height="16" fill="black"/>
<rect x="534" y="333" width="16" height="16" fill="black"/>
<rect x="534" y="381" width="16" height="16" fill="black"/>
<rect x="502" y="205" width="16" height="16" fill="black"/>
<rect x="502" y="221" width="16" height="16" fill="black"/>
<rect x="502" y="237" width="16" height="16" fill="black"/>
<rect x="454" y="141" width="16" height="16" fill="black"/>
<rect x="203" y="138" width="16" height="16" fill="black"/>
<rect x="219" y="138" width="16" height="16" fill="black"/>
<rect x="235" y="106" width="16" height="16" fill="black"/>
<rect x="251" y="106" width="16" height="16" fill="black"/>
<rect x="267" y="106" width="16" height="16" fill="black"/>
<rect x="283" y="106" width="16" height="16" fill="black"/>
<rect x="299" y="106" width="16" height="16" fill="black"/>
<rect x="315" y="106" width="16" height="16" fill="black"/>
<rect x="358" y="106" width="16" height="16" fill="black"/>
<rect x="374" y="106" width="16" height="16" fill="black"/>
<rect x="390" y="106" width="16" height="16" fill="black"/>
<rect x="406" y="106" width="16" height="16" fill="black"/>
<rect x="422" y="106" width="16" height="16" fill="black"/>
<rect x="438" y="125" width="16" height="16" fill="black"/>
<rect x="171" y="545" width="16" height="16" fill="black"/>
<rect x="155" y="513" width="16" height="16" fill="black"/>
<rect x="155" y="481" width="16" height="16" fill="black"/>
<rect x="155" y="449" width="16" height="16" fill="black"/>
<rect x="155" y="417" width="16" height="16" fill="black"/>
<rect x="155" y="385" width="16" height="16" fill="black"/>
<rect x="155" y="353" width="16" height="16" fill="black"/>
<rect x="155" y="321" width="16" height="16" fill="black"/>
<rect x="155" y="289" width="16" height="16" fill="black"/>
<rect x="155" y="257" width="16" height="16" fill="black"/>
<rect x="155" y="225" width="16" height="16" fill="black"/>
<rect x="155" y="193" width="16" height="16" fill="black"/>
<rect x="327" y="622" width="16" height="16" fill="black"/>
<rect x="295" y="606" width="16" height="16" fill="black"/>
<rect x="263" y="590" width="16" height="16" fill="black"/>
<rect x="263" y="574" width="16" height="16" fill="black"/>
<rect x="343" y="622" width="16" height="16" fill="black"/>
<rect x="359" y="622" width="16" height="16" fill="black"/>
<rect x="375" y="622" width="16" height="16" fill="black"/>
<rect x="391" y="622" width="16" height="16" fill="black"/>
<rect x="407" y="622" width="16" height="16" fill="black"/>
<rect x="423" y="622" width="16" height="16" fill="black"/>
<rect x="439" y="622" width="16" height="16" fill="black"/>
<rect x="455" y="622" width="16" height="16" fill="black"/>
<rect x="455" y="590" width="16" height="16" fill="black"/>
<rect x="471" y="590" width="16" height="16" fill="black"/>
<rect x="487" y="590" width="16" height="16" fill="black"/>
<rect x="503" y="574" width="16" height="16" fill="black"/>
<rect x="391" y="606" width="16" height="16" fill="black"/>
<rect x="407" y="606" width="16" height="16" fill="black"/>
<rect x="423" y="606" width="16" height="16" fill="black"/>
<rect x="439" y="606" width="16" height="16" fill="black"/>
<rect x="455" y="606" width="16" height="16" fill="black"/>
<rect x="455" y="574" width="16" height="16" fill="black"/>
<rect x="471" y="574" width="16" height="16" fill="black"/>
<rect x="487" y="574" width="16" height="16" fill="black"/>
<rect x="503" y="558" width="16" height="16" fill="black"/>
<rect x="311" y="638" width="16" height="16" fill="black"/>
<rect x="327" y="638" width="16" height="16" fill="black"/>
<rect x="343" y="638" width="16" height="16" fill="black"/>
<rect x="359" y="638" width="16" height="16" fill="black"/>
<rect x="375" y="638" width="16" height="16" fill="black"/>
<rect x="391" y="638" width="16" height="16" fill="black"/>
<rect x="591" y="343" width="16" height="16" fill="black"/>
<rect x="575" y="343" width="16" height="16" fill="black"/>
<rect x="575" y="470" width="16" height="16" fill="black"/>
<rect x="575" y="359" width="16" height="16" fill="black"/>
<rect x="247" y="307" width="16" height="16" fill="black"/>
<rect x="230" y="355" width="16" height="16" fill="black"/>
<rect x="246" y="355" width="16" height="16" fill="black"/>
<rect x="246" y="371" width="16" height="16" fill="black"/>
<rect x="230" y="371" width="16" height="16" fill="black"/>
<rect x="230" y="387" width="16" height="16" fill="black"/>
<rect x="246" y="387" width="16" height="16" fill="black"/>
<rect x="278" y="355" width="16" height="16" fill="white"/>
<rect x="294" y="355" width="16" height="16" fill="white"/>
<rect x="278" y="371" width="16" height="16" fill="white"/>
<rect x="294" y="371" width="16" height="16" fill="white"/>
<rect x="278" y="387" width="16" height="16" fill="white"/>
<rect x="294" y="387" width="16" height="16" fill="white"/>
<rect x="214" y="355" width="16" height="16" fill="white"/>
<rect x="198" y="355" width="16" height="16" fill="white"/>
<rect x="214" y="371" width="16" height="16" fill="white"/>
<rect x="198" y="371" width="16" height="16" fill="white"/>
<rect x="214" y="387" width="16" height="16" fill="white"/>
<rect x="198" y="387" width="16" height="16" fill="white"/>
<rect x="262" y="355" width="16" height="16" fill="#0F539B"/>
<rect x="262" y="371" width="16" height="16" fill="#0F539B"/>
<rect x="262" y="387" width="16" height="16" fill="#0F539B"/>
</svg>
