<svg width="541" height="323" viewBox="0 0 541 323" fill="none" xmlns="http://www.w3.org/2000/svg">
<rect width="233.898" height="16.6114" transform="matrix(-1 0 0 1 308.889 81.2114)" fill="white"/>
<rect width="233.898" height="16.6114" transform="matrix(-1 0 0 1 308.889 97.8228)" fill="white"/>
<rect width="341.026" height="16.6114" transform="matrix(-1 0 0 1 416.016 114.434)" fill="white"/>
<rect width="46.4224" height="16.6114" transform="matrix(-1 0 0 1 385.664 97.8228)" fill="white"/>
<rect width="357.096" height="16.6114" transform="matrix(-1 0 0 1 432.086 131.046)" fill="white"/>
<rect width="373" height="98" transform="matrix(-1 0 0 1 448 146)" fill="white"/>
<rect width="373.165" height="16.6114" transform="matrix(-1 0 0 1 448.156 162.423)" fill="white"/>
<rect width="403.518" height="16.6114" transform="matrix(-1 0 0 1 448.156 177.188)" fill="white"/>
<rect width="449" height="43" transform="matrix(-1 0 0 1 478.508 193.8)" fill="white"/>
<rect width="479" height="60" transform="matrix(-1 0 0 1 509 210)" fill="white"/>
<rect width="511" height="65" transform="matrix(-1 0 0 1 525 227)" fill="white"/>
<rect width="526.716" height="16.6114" transform="matrix(-1 0 0 1 541 243.634)" fill="white"/>
<rect width="526.716" height="16.6114" transform="matrix(-1 0 0 1 541 258.4)" fill="white"/>
<rect width="541" height="16.6114" transform="matrix(-1 0 0 1 541 275.011)" fill="white"/>
<rect width="541" height="62" transform="matrix(-1 0 0 1 541 244)" fill="white"/>
<rect width="223" height="48" transform="matrix(-1 0 0 1 525 275)" fill="white"/>
<rect width="201.759" height="16.6114" transform="matrix(-1 0 0 1 292.818 64.6001)" fill="white"/>
<rect width="171" height="252" transform="matrix(-1 0 0 1 262 50)" fill="white"/>
<rect width="123" height="27" transform="matrix(-1 0 0 1 230 33)" fill="white"/>
<rect width="95" height="33" transform="matrix(-1 0 0 1 216 17)" fill="white"/>
<rect width="48.2079" height="16.6114" transform="matrix(-1 0 0 1 199.973 0)" fill="white"/>
<g clip-path="url(#clip0_342_1968)">
<path d="M386 50H149V287H386V50Z" fill="white"/>
<mask id="mask0_342_1968" style="mask-type:luminance" maskUnits="userSpaceOnUse" x="158" y="59" width="219" height="219">
<path d="M164.642 118.73H158.006V125.366H164.642V118.73Z" fill="white"/>
<path d="M164.642 125.366H158.006V132.002H164.642V125.366Z" fill="white"/>
<path d="M164.642 138.638H158.006V145.274H164.642V138.638Z" fill="white"/>
<path d="M164.642 158.546H158.006V165.182H164.642V158.546Z" fill="white"/>
<path d="M164.642 171.818H158.006V178.454H164.642V171.818Z" fill="white"/>
<path d="M164.642 178.454H158.006V185.09H164.642V178.454Z" fill="white"/>
<path d="M164.642 198.362H158.006V204.998H164.642V198.362Z" fill="white"/>
<path d="M164.642 204.998H158.006V211.634H164.642V204.998Z" fill="white"/>
<path d="M164.642 211.634H158.006V218.27H164.642V211.634Z" fill="white"/>
<path d="M164.642 218.27H158.006V224.906H164.642V218.27Z" fill="white"/>
<path d="M171.279 118.73H164.643V125.366H171.279V118.73Z" fill="white"/>
<path d="M171.279 145.274H164.643V151.91H171.279V145.274Z" fill="white"/>
<path d="M171.279 158.546H164.643V165.182H171.279V158.546Z" fill="white"/>
<path d="M171.279 171.818H164.643V178.454H171.279V171.818Z" fill="white"/>
<path d="M171.279 185.09H164.643V191.726H171.279V185.09Z" fill="white"/>
<path d="M171.279 191.726H164.643V198.362H171.279V191.726Z" fill="white"/>
<path d="M171.279 198.362H164.643V204.998H171.279V198.362Z" fill="white"/>
<path d="M171.279 204.998H164.643V211.634H171.279V204.998Z" fill="white"/>
<path d="M171.279 218.27H164.643V224.906H171.279V218.27Z" fill="white"/>
<path d="M177.913 112.094H171.277V118.73H177.913V112.094Z" fill="white"/>
<path d="M177.913 118.73H171.277V125.366H177.913V118.73Z" fill="white"/>
<path d="M177.913 125.366H171.277V132.002H177.913V125.366Z" fill="white"/>
<path d="M177.913 132.002H171.277V138.638H177.913V132.002Z" fill="white"/>
<path d="M177.913 151.91H171.277V158.546H177.913V151.91Z" fill="white"/>
<path d="M177.913 191.726H171.277V198.362H177.913V191.726Z" fill="white"/>
<path d="M177.913 204.998H171.277V211.634H177.913V204.998Z" fill="white"/>
<path d="M177.913 218.27H171.277V224.906H177.913V218.27Z" fill="white"/>
<path d="M184.55 132.002H177.914V138.638H184.55V132.002Z" fill="white"/>
<path d="M184.55 138.638H177.914V145.274H184.55V138.638Z" fill="white"/>
<path d="M184.55 171.818H177.914V178.454H184.55V171.818Z" fill="white"/>
<path d="M184.55 178.454H177.914V185.09H184.55V178.454Z" fill="white"/>
<path d="M184.55 191.726H177.914V198.362H184.55V191.726Z" fill="white"/>
<path d="M184.55 198.362H177.914V204.998H184.55V198.362Z" fill="white"/>
<path d="M184.55 211.634H177.914V218.27H184.55V211.634Z" fill="white"/>
<path d="M184.55 218.27H177.914V224.906H184.55V218.27Z" fill="white"/>
<path d="M191.187 112.094H184.551V118.73H191.187V112.094Z" fill="white"/>
<path d="M191.187 118.73H184.551V125.366H191.187V118.73Z" fill="white"/>
<path d="M191.187 125.366H184.551V132.002H191.187V125.366Z" fill="white"/>
<path d="M191.187 132.002H184.551V138.638H191.187V132.002Z" fill="white"/>
<path d="M191.187 138.638H184.551V145.274H191.187V138.638Z" fill="white"/>
<path d="M191.187 151.91H184.551V158.546H191.187V151.91Z" fill="white"/>
<path d="M191.187 158.546H184.551V165.182H191.187V158.546Z" fill="white"/>
<path d="M191.187 165.182H184.551V171.818H191.187V165.182Z" fill="white"/>
<path d="M191.187 178.454H184.551V185.09H191.187V178.454Z" fill="white"/>
<path d="M191.187 185.09H184.551V191.726H191.187V185.09Z" fill="white"/>
<path d="M191.187 191.726H184.551V198.362H191.187V191.726Z" fill="white"/>
<path d="M191.187 198.362H184.551V204.998H191.187V198.362Z" fill="white"/>
<path d="M191.187 218.27H184.551V224.906H191.187V218.27Z" fill="white"/>
<path d="M197.822 112.094H191.186V118.73H197.822V112.094Z" fill="white"/>
<path d="M197.822 132.002H191.186V138.638H197.822V132.002Z" fill="white"/>
<path d="M197.822 138.638H191.186V145.274H197.822V138.638Z" fill="white"/>
<path d="M197.822 165.182H191.186V171.818H197.822V165.182Z" fill="white"/>
<path d="M197.822 185.09H191.186V191.726H197.822V185.09Z" fill="white"/>
<path d="M204.458 112.094H197.822V118.73H204.458V112.094Z" fill="white"/>
<path d="M204.458 125.366H197.822V132.002H204.458V125.366Z" fill="white"/>
<path d="M204.458 138.638H197.822V145.274H204.458V138.638Z" fill="white"/>
<path d="M204.458 151.91H197.822V158.546H204.458V151.91Z" fill="white"/>
<path d="M204.458 165.182H197.822V171.818H204.458V165.182Z" fill="white"/>
<path d="M204.458 178.454H197.822V185.09H204.458V178.454Z" fill="white"/>
<path d="M204.458 191.726H197.822V198.362H204.458V191.726Z" fill="white"/>
<path d="M204.458 204.998H197.822V211.634H204.458V204.998Z" fill="white"/>
<path d="M204.458 218.27H197.822V224.906H204.458V218.27Z" fill="white"/>
<path d="M211.093 118.73H204.457V125.366H211.093V118.73Z" fill="white"/>
<path d="M211.093 125.366H204.457V132.002H211.093V125.366Z" fill="white"/>
<path d="M211.093 138.638H204.457V145.274H211.093V138.638Z" fill="white"/>
<path d="M211.093 145.274H204.457V151.91H211.093V145.274Z" fill="white"/>
<path d="M211.093 151.91H204.457V158.546H211.093V151.91Z" fill="white"/>
<path d="M211.093 165.182H204.457V171.818H211.093V165.182Z" fill="white"/>
<path d="M211.093 171.818H204.457V178.454H211.093V171.818Z" fill="white"/>
<path d="M211.093 178.454H204.457V185.09H211.093V178.454Z" fill="white"/>
<path d="M211.093 198.362H204.457V204.998H211.093V198.362Z" fill="white"/>
<path d="M211.093 204.998H204.457V211.634H211.093V204.998Z" fill="white"/>
<path d="M211.093 211.634H204.457V218.27H211.093V211.634Z" fill="white"/>
<path d="M217.73 65.6421H211.094V72.2781H217.73V65.6421Z" fill="white"/>
<path d="M217.73 85.55H211.094V92.186H217.73V85.55Z" fill="white"/>
<path d="M217.73 98.822H211.094V105.458H217.73V98.822Z" fill="white"/>
<path d="M217.73 112.094H211.094V118.73H217.73V112.094Z" fill="white"/>
<path d="M217.73 118.73H211.094V125.366H217.73V118.73Z" fill="white"/>
<path d="M217.73 125.366H211.094V132.002H217.73V125.366Z" fill="white"/>
<path d="M217.73 132.002H211.094V138.638H217.73V132.002Z" fill="white"/>
<path d="M217.73 138.638H211.094V145.274H217.73V138.638Z" fill="white"/>
<path d="M217.73 145.274H211.094V151.91H217.73V145.274Z" fill="white"/>
<path d="M217.73 151.91H211.094V158.546H217.73V151.91Z" fill="white"/>
<path d="M217.73 165.182H211.094V171.818H217.73V165.182Z" fill="white"/>
<path d="M217.73 171.818H211.094V178.454H217.73V171.818Z" fill="white"/>
<path d="M217.73 185.09H211.094V191.726H217.73V185.09Z" fill="white"/>
<path d="M217.73 191.726H211.094V198.362H217.73V191.726Z" fill="white"/>
<path d="M217.73 198.362H211.094V204.998H217.73V198.362Z" fill="white"/>
<path d="M217.73 224.906H211.094V231.542H217.73V224.906Z" fill="white"/>
<path d="M217.73 238.178H211.094V244.814H217.73V238.178Z" fill="white"/>
<path d="M217.73 244.814H211.094V251.45H217.73V244.814Z" fill="white"/>
<path d="M217.73 258.086H211.094V264.722H217.73V258.086Z" fill="white"/>
<path d="M224.366 59.0061H217.73V65.6421H224.366V59.0061Z" fill="white"/>
<path d="M224.366 65.6421H217.73V72.2781H224.366V65.6421Z" fill="white"/>
<path d="M224.366 72.2781H217.73V78.9141H224.366V72.2781Z" fill="white"/>
<path d="M224.366 78.9141H217.73V85.5501H224.366V78.9141Z" fill="white"/>
<path d="M224.366 105.458H217.73V112.094H224.366V105.458Z" fill="white"/>
<path d="M224.366 112.094H217.73V118.73H224.366V112.094Z" fill="white"/>
<path d="M224.366 118.73H217.73V125.366H224.366V118.73Z" fill="white"/>
<path d="M224.366 125.366H217.73V132.002H224.366V125.366Z" fill="white"/>
<path d="M224.366 132.002H217.73V138.638H224.366V132.002Z" fill="white"/>
<path d="M224.366 145.274H217.73V151.91H224.366V145.274Z" fill="white"/>
<path d="M224.366 178.454H217.73V185.09H224.366V178.454Z" fill="white"/>
<path d="M224.366 211.634H217.73V218.27H224.366V211.634Z" fill="white"/>
<path d="M224.366 218.27H217.73V224.906H224.366V218.27Z" fill="white"/>
<path d="M224.366 251.45H217.73V258.086H224.366V251.45Z" fill="white"/>
<path d="M224.366 258.086H217.73V264.722H224.366V258.086Z" fill="white"/>
<path d="M224.366 264.722H217.73V271.358H224.366V264.722Z" fill="white"/>
<path d="M231.001 72.2781H224.365V78.9141H231.001V72.2781Z" fill="white"/>
<path d="M231.001 98.822H224.365V105.458H231.001V98.822Z" fill="white"/>
<path d="M231.001 105.458H224.365V112.094H231.001V105.458Z" fill="white"/>
<path d="M231.001 138.638H224.365V145.274H231.001V138.638Z" fill="white"/>
<path d="M231.001 145.274H224.365V151.91H231.001V145.274Z" fill="white"/>
<path d="M231.001 165.182H224.365V171.818H231.001V165.182Z" fill="white"/>
<path d="M231.001 171.818H224.365V178.454H231.001V171.818Z" fill="white"/>
<path d="M231.001 191.726H224.365V198.362H231.001V191.726Z" fill="white"/>
<path d="M231.001 198.362H224.365V204.998H231.001V198.362Z" fill="white"/>
<path d="M231.001 204.998H224.365V211.634H231.001V204.998Z" fill="white"/>
<path d="M231.001 211.634H224.365V218.27H231.001V211.634Z" fill="white"/>
<path d="M231.001 218.27H224.365V224.906H231.001V218.27Z" fill="white"/>
<path d="M231.001 231.542H224.365V238.178H231.001V231.542Z" fill="white"/>
<path d="M231.001 251.45H224.365V258.086H231.001V251.45Z" fill="white"/>
<path d="M231.001 264.722H224.365V271.358H231.001V264.722Z" fill="white"/>
<path d="M237.638 65.6421H231.002V72.2781H237.638V65.6421Z" fill="white"/>
<path d="M237.638 78.9141H231.002V85.5501H237.638V78.9141Z" fill="white"/>
<path d="M237.638 85.55H231.002V92.186H237.638V85.55Z" fill="white"/>
<path d="M237.638 105.458H231.002V112.094H237.638V105.458Z" fill="white"/>
<path d="M237.638 118.73H231.002V125.366H237.638V118.73Z" fill="white"/>
<path d="M237.638 138.638H231.002V145.274H237.638V138.638Z" fill="white"/>
<path d="M237.638 145.274H231.002V151.91H237.638V145.274Z" fill="white"/>
<path d="M237.638 151.91H231.002V158.546H237.638V151.91Z" fill="white"/>
<path d="M237.638 171.818H231.002V178.454H237.638V171.818Z" fill="white"/>
<path d="M237.638 178.454H231.002V185.09H237.638V178.454Z" fill="white"/>
<path d="M237.638 185.09H231.002V191.726H237.638V185.09Z" fill="white"/>
<path d="M237.638 191.726H231.002V198.362H237.638V191.726Z" fill="white"/>
<path d="M237.638 198.362H231.002V204.998H237.638V198.362Z" fill="white"/>
<path d="M237.638 211.634H231.002V218.27H237.638V211.634Z" fill="white"/>
<path d="M244.275 59.0061H237.639V65.6421H244.275V59.0061Z" fill="white"/>
<path d="M244.275 65.6421H237.639V72.2781H244.275V65.6421Z" fill="white"/>
<path d="M244.275 78.9141H237.639V85.5501H244.275V78.9141Z" fill="white"/>
<path d="M244.275 98.822H237.639V105.458H244.275V98.822Z" fill="white"/>
<path d="M244.275 105.458H237.639V112.094H244.275V105.458Z" fill="white"/>
<path d="M244.275 112.094H237.639V118.73H244.275V112.094Z" fill="white"/>
<path d="M244.275 125.366H237.639V132.002H244.275V125.366Z" fill="white"/>
<path d="M244.275 132.002H237.639V138.638H244.275V132.002Z" fill="white"/>
<path d="M244.275 145.274H237.639V151.91H244.275V145.274Z" fill="white"/>
<path d="M244.275 158.546H237.639V165.182H244.275V158.546Z" fill="white"/>
<path d="M244.275 178.454H237.639V185.09H244.275V178.454Z" fill="white"/>
<path d="M244.275 191.726H237.639V198.362H244.275V191.726Z" fill="white"/>
<path d="M244.275 218.27H237.639V224.906H244.275V218.27Z" fill="white"/>
<path d="M244.275 231.542H237.639V238.178H244.275V231.542Z" fill="white"/>
<path d="M244.275 244.814H237.639V251.45H244.275V244.814Z" fill="white"/>
<path d="M244.275 251.45H237.639V258.086H244.275V251.45Z" fill="white"/>
<path d="M250.909 65.6421H244.273V72.2781H250.909V65.6421Z" fill="white"/>
<path d="M250.909 72.2781H244.273V78.9141H250.909V72.2781Z" fill="white"/>
<path d="M250.909 78.9141H244.273V85.5501H250.909V78.9141Z" fill="white"/>
<path d="M250.909 92.186H244.273V98.822H250.909V92.186Z" fill="white"/>
<path d="M250.909 125.366H244.273V132.002H250.909V125.366Z" fill="white"/>
<path d="M250.909 138.638H244.273V145.274H250.909V138.638Z" fill="white"/>
<path d="M250.909 145.274H244.273V151.91H250.909V145.274Z" fill="white"/>
<path d="M250.909 151.91H244.273V158.546H250.909V151.91Z" fill="white"/>
<path d="M250.909 158.546H244.273V165.182H250.909V158.546Z" fill="white"/>
<path d="M250.909 171.818H244.273V178.454H250.909V171.818Z" fill="white"/>
<path d="M250.909 185.09H244.273V191.726H250.909V185.09Z" fill="white"/>
<path d="M250.909 198.362H244.273V204.998H250.909V198.362Z" fill="white"/>
<path d="M250.909 204.998H244.273V211.634H250.909V204.998Z" fill="white"/>
<path d="M250.909 238.178H244.273V244.814H250.909V238.178Z" fill="white"/>
<path d="M250.909 251.45H244.273V258.086H250.909V251.45Z" fill="white"/>
<path d="M257.546 78.9141H250.91V85.5501H257.546V78.9141Z" fill="white"/>
<path d="M257.546 98.822H250.91V105.458H257.546V98.822Z" fill="white"/>
<path d="M257.546 112.094H250.91V118.73H257.546V112.094Z" fill="white"/>
<path d="M257.546 118.73H250.91V125.366H257.546V118.73Z" fill="white"/>
<path d="M257.546 125.366H250.91V132.002H257.546V125.366Z" fill="white"/>
<path d="M257.546 132.002H250.91V138.638H257.546V132.002Z" fill="white"/>
<path d="M257.546 145.274H250.91V151.91H257.546V145.274Z" fill="white"/>
<path d="M257.546 158.546H250.91V165.182H257.546V158.546Z" fill="white"/>
<path d="M257.546 171.818H250.91V178.454H257.546V171.818Z" fill="white"/>
<path d="M257.546 178.454H250.91V185.09H257.546V178.454Z" fill="white"/>
<path d="M257.546 185.09H250.91V191.726H257.546V185.09Z" fill="white"/>
<path d="M257.546 238.178H250.91V244.814H257.546V238.178Z" fill="white"/>
<path d="M257.546 251.45H250.91V258.086H257.546V251.45Z" fill="white"/>
<path d="M257.546 264.722H250.91V271.358H257.546V264.722Z" fill="white"/>
<path d="M264.181 78.9141H257.545V85.5501H264.181V78.9141Z" fill="white"/>
<path d="M264.181 85.55H257.545V92.186H264.181V85.55Z" fill="white"/>
<path d="M264.181 105.458H257.545V112.094H264.181V105.458Z" fill="white"/>
<path d="M264.181 112.094H257.545V118.73H264.181V112.094Z" fill="white"/>
<path d="M264.181 125.366H257.545V132.002H264.181V125.366Z" fill="white"/>
<path d="M264.181 138.638H257.545V145.274H264.181V138.638Z" fill="white"/>
<path d="M264.181 151.91H257.545V158.546H264.181V151.91Z" fill="white"/>
<path d="M264.181 158.546H257.545V165.182H264.181V158.546Z" fill="white"/>
<path d="M264.181 178.454H257.545V185.09H264.181V178.454Z" fill="white"/>
<path d="M264.181 185.09H257.545V191.726H264.181V185.09Z" fill="white"/>
<path d="M264.181 191.726H257.545V198.362H264.181V191.726Z" fill="white"/>
<path d="M264.181 198.362H257.545V204.998H264.181V198.362Z" fill="white"/>
<path d="M264.181 204.998H257.545V211.634H264.181V204.998Z" fill="white"/>
<path d="M264.181 218.27H257.545V224.906H264.181V218.27Z" fill="white"/>
<path d="M264.181 224.906H257.545V231.542H264.181V224.906Z" fill="white"/>
<path d="M270.818 65.6421H264.182V72.2781H270.818V65.6421Z" fill="white"/>
<path d="M270.818 72.2781H264.182V78.9141H270.818V72.2781Z" fill="white"/>
<path d="M270.818 78.9141H264.182V85.5501H270.818V78.9141Z" fill="white"/>
<path d="M270.818 92.186H264.182V98.822H270.818V92.186Z" fill="white"/>
<path d="M270.818 98.822H264.182V105.458H270.818V98.822Z" fill="white"/>
<path d="M270.818 151.91H264.182V158.546H270.818V151.91Z" fill="white"/>
<path d="M270.818 158.546H264.182V165.182H270.818V158.546Z" fill="white"/>
<path d="M270.818 165.182H264.182V171.818H270.818V165.182Z" fill="white"/>
<path d="M270.818 171.818H264.182V178.454H270.818V171.818Z" fill="white"/>
<path d="M270.818 178.454H264.182V185.09H270.818V178.454Z" fill="white"/>
<path d="M270.818 191.726H264.182V198.362H270.818V191.726Z" fill="white"/>
<path d="M270.818 198.362H264.182V204.998H270.818V198.362Z" fill="white"/>
<path d="M270.818 211.634H264.182V218.27H270.818V211.634Z" fill="white"/>
<path d="M270.818 224.906H264.182V231.542H270.818V224.906Z" fill="white"/>
<path d="M270.818 231.542H264.182V238.178H270.818V231.542Z" fill="white"/>
<path d="M270.818 244.814H264.182V251.45H270.818V244.814Z" fill="white"/>
<path d="M270.818 264.722H264.182V271.358H270.818V264.722Z" fill="white"/>
<path d="M277.454 59.0061H270.818V65.6421H277.454V59.0061Z" fill="white"/>
<path d="M277.454 72.2781H270.818V78.9141H277.454V72.2781Z" fill="white"/>
<path d="M277.454 85.55H270.818V92.186H277.454V85.55Z" fill="white"/>
<path d="M277.454 92.186H270.818V98.822H277.454V92.186Z" fill="white"/>
<path d="M277.454 105.458H270.818V112.094H277.454V105.458Z" fill="white"/>
<path d="M277.454 112.094H270.818V118.73H277.454V112.094Z" fill="white"/>
<path d="M277.454 118.73H270.818V125.366H277.454V118.73Z" fill="white"/>
<path d="M277.454 125.366H270.818V132.002H277.454V125.366Z" fill="white"/>
<path d="M277.454 138.638H270.818V145.274H277.454V138.638Z" fill="white"/>
<path d="M277.454 165.182H270.818V171.818H277.454V165.182Z" fill="white"/>
<path d="M277.454 171.818H270.818V178.454H277.454V171.818Z" fill="white"/>
<path d="M277.454 178.454H270.818V185.09H277.454V178.454Z" fill="white"/>
<path d="M277.454 191.726H270.818V198.362H277.454V191.726Z" fill="white"/>
<path d="M277.454 198.362H270.818V204.998H277.454V198.362Z" fill="white"/>
<path d="M277.454 204.998H270.818V211.634H277.454V204.998Z" fill="white"/>
<path d="M277.454 211.634H270.818V218.27H277.454V211.634Z" fill="white"/>
<path d="M277.454 218.27H270.818V224.906H277.454V218.27Z" fill="white"/>
<path d="M277.454 251.45H270.818V258.086H277.454V251.45Z" fill="white"/>
<path d="M277.454 258.086H270.818V264.722H277.454V258.086Z" fill="white"/>
<path d="M277.454 264.722H270.818V271.358H277.454V264.722Z" fill="white"/>
<path d="M284.089 65.6421H277.453V72.2781H284.089V65.6421Z" fill="white"/>
<path d="M284.089 78.9141H277.453V85.5501H284.089V78.9141Z" fill="white"/>
<path d="M284.089 92.186H277.453V98.822H284.089V92.186Z" fill="white"/>
<path d="M284.089 98.822H277.453V105.458H284.089V98.822Z" fill="white"/>
<path d="M284.089 105.458H277.453V112.094H284.089V105.458Z" fill="white"/>
<path d="M284.089 125.366H277.453V132.002H284.089V125.366Z" fill="white"/>
<path d="M284.089 132.002H277.453V138.638H284.089V132.002Z" fill="white"/>
<path d="M284.089 151.91H277.453V158.546H284.089V151.91Z" fill="white"/>
<path d="M284.089 165.182H277.453V171.818H284.089V165.182Z" fill="white"/>
<path d="M284.089 171.818H277.453V178.454H284.089V171.818Z" fill="white"/>
<path d="M284.089 191.726H277.453V198.362H284.089V191.726Z" fill="white"/>
<path d="M284.089 211.634H277.453V218.27H284.089V211.634Z" fill="white"/>
<path d="M284.089 224.906H277.453V231.542H284.089V224.906Z" fill="white"/>
<path d="M284.089 251.45H277.453V258.086H284.089V251.45Z" fill="white"/>
<path d="M284.089 264.722H277.453V271.358H284.089V264.722Z" fill="white"/>
<path d="M290.726 65.6421H284.09V72.2781H290.726V65.6421Z" fill="white"/>
<path d="M290.726 72.2781H284.09V78.9141H290.726V72.2781Z" fill="white"/>
<path d="M290.726 78.9141H284.09V85.5501H290.726V78.9141Z" fill="white"/>
<path d="M290.726 105.458H284.09V112.094H290.726V105.458Z" fill="white"/>
<path d="M290.726 118.73H284.09V125.366H290.726V118.73Z" fill="white"/>
<path d="M290.726 138.638H284.09V145.274H290.726V138.638Z" fill="white"/>
<path d="M290.726 151.91H284.09V158.546H290.726V151.91Z" fill="white"/>
<path d="M290.726 158.546H284.09V165.182H290.726V158.546Z" fill="white"/>
<path d="M290.726 165.182H284.09V171.818H290.726V165.182Z" fill="white"/>
<path d="M290.726 171.818H284.09V178.454H290.726V171.818Z" fill="white"/>
<path d="M290.726 178.454H284.09V185.09H290.726V178.454Z" fill="white"/>
<path d="M290.726 185.09H284.09V191.726H290.726V185.09Z" fill="white"/>
<path d="M290.726 191.726H284.09V198.362H290.726V191.726Z" fill="white"/>
<path d="M290.726 204.998H284.09V211.634H290.726V204.998Z" fill="white"/>
<path d="M290.726 218.27H284.09V224.906H290.726V218.27Z" fill="white"/>
<path d="M290.726 264.722H284.09V271.358H290.726V264.722Z" fill="white"/>
<path d="M290.726 271.358H284.09V277.994H290.726V271.358Z" fill="white"/>
<path d="M297.363 59.0061H290.727V65.6421H297.363V59.0061Z" fill="white"/>
<path d="M297.363 72.2781H290.727V78.9141H297.363V72.2781Z" fill="white"/>
<path d="M297.363 78.9141H290.727V85.5501H297.363V78.9141Z" fill="white"/>
<path d="M297.363 85.55H290.727V92.186H297.363V85.55Z" fill="white"/>
<path d="M297.363 98.822H290.727V105.458H297.363V98.822Z" fill="white"/>
<path d="M297.363 118.73H290.727V125.366H297.363V118.73Z" fill="white"/>
<path d="M297.363 125.366H290.727V132.002H297.363V125.366Z" fill="white"/>
<path d="M297.363 145.274H290.727V151.91H297.363V145.274Z" fill="white"/>
<path d="M297.363 165.182H290.727V171.818H297.363V165.182Z" fill="white"/>
<path d="M297.363 185.09H290.727V191.726H297.363V185.09Z" fill="white"/>
<path d="M297.363 204.998H290.727V211.634H297.363V204.998Z" fill="white"/>
<path d="M297.363 211.634H290.727V218.27H297.363V211.634Z" fill="white"/>
<path d="M297.363 218.27H290.727V224.906H297.363V218.27Z" fill="white"/>
<path d="M297.363 231.542H290.727V238.178H297.363V231.542Z" fill="white"/>
<path d="M297.363 244.814H290.727V251.45H297.363V244.814Z" fill="white"/>
<path d="M297.363 251.45H290.727V258.086H297.363V251.45Z" fill="white"/>
<path d="M303.997 59.0061H297.361V65.6421H303.997V59.0061Z" fill="white"/>
<path d="M303.997 65.6421H297.361V72.2781H303.997V65.6421Z" fill="white"/>
<path d="M303.997 72.2781H297.361V78.9141H303.997V72.2781Z" fill="white"/>
<path d="M303.997 92.186H297.361V98.822H303.997V92.186Z" fill="white"/>
<path d="M303.997 105.458H297.361V112.094H303.997V105.458Z" fill="white"/>
<path d="M303.997 112.094H297.361V118.73H303.997V112.094Z" fill="white"/>
<path d="M303.997 125.366H297.361V132.002H303.997V125.366Z" fill="white"/>
<path d="M303.997 132.002H297.361V138.638H303.997V132.002Z" fill="white"/>
<path d="M303.997 138.638H297.361V145.274H303.997V138.638Z" fill="white"/>
<path d="M303.997 185.09H297.361V191.726H303.997V185.09Z" fill="white"/>
<path d="M303.997 191.726H297.361V198.362H303.997V191.726Z" fill="white"/>
<path d="M303.997 218.27H297.361V224.906H303.997V218.27Z" fill="white"/>
<path d="M303.997 224.906H297.361V231.542H303.997V224.906Z" fill="white"/>
<path d="M303.997 258.086H297.361V264.722H303.997V258.086Z" fill="white"/>
<path d="M303.997 264.722H297.361V271.358H303.997V264.722Z" fill="white"/>
<path d="M310.634 98.822H303.998V105.458H310.634V98.822Z" fill="white"/>
<path d="M310.634 105.458H303.998V112.094H310.634V105.458Z" fill="white"/>
<path d="M310.634 118.73H303.998V125.366H310.634V118.73Z" fill="white"/>
<path d="M310.634 125.366H303.998V132.002H310.634V125.366Z" fill="white"/>
<path d="M310.634 132.002H303.998V138.638H310.634V132.002Z" fill="white"/>
<path d="M310.634 138.638H303.998V145.274H310.634V138.638Z" fill="white"/>
<path d="M310.634 151.91H303.998V158.546H310.634V151.91Z" fill="white"/>
<path d="M310.634 165.182H303.998V171.818H310.634V165.182Z" fill="white"/>
<path d="M310.634 178.454H303.998V185.09H310.634V178.454Z" fill="white"/>
<path d="M310.634 191.726H303.998V198.362H310.634V191.726Z" fill="white"/>
<path d="M310.634 198.362H303.998V204.998H310.634V198.362Z" fill="white"/>
<path d="M310.634 204.998H303.998V211.634H310.634V204.998Z" fill="white"/>
<path d="M310.634 211.634H303.998V218.27H310.634V211.634Z" fill="white"/>
<path d="M310.634 231.542H303.998V238.178H310.634V231.542Z" fill="white"/>
<path d="M310.634 244.814H303.998V251.45H310.634V244.814Z" fill="white"/>
<path d="M310.634 264.722H303.998V271.358H310.634V264.722Z" fill="white"/>
<path d="M317.271 92.186H310.635V98.822H317.271V92.186Z" fill="white"/>
<path d="M317.271 105.458H310.635V112.094H317.271V105.458Z" fill="white"/>
<path d="M317.271 118.73H310.635V125.366H317.271V118.73Z" fill="white"/>
<path d="M317.271 132.002H310.635V138.638H317.271V132.002Z" fill="white"/>
<path d="M317.271 138.638H310.635V145.274H317.271V138.638Z" fill="white"/>
<path d="M317.271 145.274H310.635V151.91H317.271V145.274Z" fill="white"/>
<path d="M317.271 151.91H310.635V158.546H317.271V151.91Z" fill="white"/>
<path d="M317.271 158.546H310.635V165.182H317.271V158.546Z" fill="white"/>
<path d="M317.271 171.818H310.635V178.454H317.271V171.818Z" fill="white"/>
<path d="M317.271 178.454H310.635V185.09H317.271V178.454Z" fill="white"/>
<path d="M317.271 198.362H310.635V204.998H317.271V198.362Z" fill="white"/>
<path d="M317.271 211.634H310.635V218.27H317.271V211.634Z" fill="white"/>
<path d="M317.271 218.27H310.635V224.906H317.271V218.27Z" fill="white"/>
<path d="M317.271 224.906H310.635V231.542H317.271V224.906Z" fill="white"/>
<path d="M317.271 244.814H310.635V251.45H317.271V244.814Z" fill="white"/>
<path d="M317.271 271.358H310.635V277.994H317.271V271.358Z" fill="white"/>
<path d="M323.906 59.0061H317.27V65.6421H323.906V59.0061Z" fill="white"/>
<path d="M323.906 65.6421H317.27V72.2781H323.906V65.6421Z" fill="white"/>
<path d="M323.906 78.9141H317.27V85.5501H323.906V78.9141Z" fill="white"/>
<path d="M323.906 92.186H317.27V98.822H323.906V92.186Z" fill="white"/>
<path d="M323.906 98.822H317.27V105.458H323.906V98.822Z" fill="white"/>
<path d="M323.906 105.458H317.27V112.094H323.906V105.458Z" fill="white"/>
<path d="M323.906 125.366H317.27V132.002H323.906V125.366Z" fill="white"/>
<path d="M323.906 132.002H317.27V138.638H323.906V132.002Z" fill="white"/>
<path d="M323.906 145.274H317.27V151.91H323.906V145.274Z" fill="white"/>
<path d="M323.906 171.818H317.27V178.454H323.906V171.818Z" fill="white"/>
<path d="M323.906 185.09H317.27V191.726H323.906V185.09Z" fill="white"/>
<path d="M323.906 198.362H317.27V204.998H323.906V198.362Z" fill="white"/>
<path d="M323.906 211.634H317.27V218.27H323.906V211.634Z" fill="white"/>
<path d="M323.906 218.27H317.27V224.906H323.906V218.27Z" fill="white"/>
<path d="M323.906 224.906H317.27V231.542H323.906V224.906Z" fill="white"/>
<path d="M323.906 231.542H317.27V238.178H323.906V231.542Z" fill="white"/>
<path d="M323.906 238.178H317.27V244.814H323.906V238.178Z" fill="white"/>
<path d="M323.906 244.814H317.27V251.45H323.906V244.814Z" fill="white"/>
<path d="M323.906 264.722H317.27V271.358H323.906V264.722Z" fill="white"/>
<path d="M323.906 271.358H317.27V277.994H323.906V271.358Z" fill="white"/>
<path d="M330.542 112.094H323.906V118.73H330.542V112.094Z" fill="white"/>
<path d="M330.542 125.366H323.906V132.002H330.542V125.366Z" fill="white"/>
<path d="M330.542 138.638H323.906V145.274H330.542V138.638Z" fill="white"/>
<path d="M330.542 171.818H323.906V178.454H330.542V171.818Z" fill="white"/>
<path d="M330.542 191.726H323.906V198.362H330.542V191.726Z" fill="white"/>
<path d="M330.542 204.998H323.906V211.634H330.542V204.998Z" fill="white"/>
<path d="M330.542 218.27H323.906V224.906H330.542V218.27Z" fill="white"/>
<path d="M330.542 244.814H323.906V251.45H330.542V244.814Z" fill="white"/>
<path d="M330.542 258.086H323.906V264.722H330.542V258.086Z" fill="white"/>
<path d="M330.542 264.722H323.906V271.358H330.542V264.722Z" fill="white"/>
<path d="M337.177 125.366H330.541V132.002H337.177V125.366Z" fill="white"/>
<path d="M337.177 145.274H330.541V151.91H337.177V145.274Z" fill="white"/>
<path d="M337.177 158.546H330.541V165.182H337.177V158.546Z" fill="white"/>
<path d="M337.177 165.182H330.541V171.818H337.177V165.182Z" fill="white"/>
<path d="M337.177 171.818H330.541V178.454H337.177V171.818Z" fill="white"/>
<path d="M337.177 178.454H330.541V185.09H337.177V178.454Z" fill="white"/>
<path d="M337.177 198.362H330.541V204.998H337.177V198.362Z" fill="white"/>
<path d="M337.177 204.998H330.541V211.634H337.177V204.998Z" fill="white"/>
<path d="M337.177 218.27H330.541V224.906H337.177V218.27Z" fill="white"/>
<path d="M337.177 231.542H330.541V238.178H337.177V231.542Z" fill="white"/>
<path d="M337.177 244.814H330.541V251.45H337.177V244.814Z" fill="white"/>
<path d="M337.177 251.45H330.541V258.086H337.177V251.45Z" fill="white"/>
<path d="M337.177 264.722H330.541V271.358H337.177V264.722Z" fill="white"/>
<path d="M343.814 118.73H337.178V125.366H343.814V118.73Z" fill="white"/>
<path d="M343.814 125.366H337.178V132.002H343.814V125.366Z" fill="white"/>
<path d="M343.814 132.002H337.178V138.638H343.814V132.002Z" fill="white"/>
<path d="M343.814 151.91H337.178V158.546H343.814V151.91Z" fill="white"/>
<path d="M343.814 158.546H337.178V165.182H343.814V158.546Z" fill="white"/>
<path d="M343.814 165.182H337.178V171.818H343.814V165.182Z" fill="white"/>
<path d="M343.814 178.454H337.178V185.09H343.814V178.454Z" fill="white"/>
<path d="M343.814 185.09H337.178V191.726H343.814V185.09Z" fill="white"/>
<path d="M343.814 191.726H337.178V198.362H343.814V191.726Z" fill="white"/>
<path d="M343.814 198.362H337.178V204.998H343.814V198.362Z" fill="white"/>
<path d="M343.814 211.634H337.178V218.27H343.814V211.634Z" fill="white"/>
<path d="M343.814 218.27H337.178V224.906H343.814V218.27Z" fill="white"/>
<path d="M343.814 244.814H337.178V251.45H343.814V244.814Z" fill="white"/>
<path d="M343.814 251.45H337.178V258.086H343.814V251.45Z" fill="white"/>
<path d="M343.814 264.722H337.178V271.358H343.814V264.722Z" fill="white"/>
<path d="M343.814 271.358H337.178V277.994H343.814V271.358Z" fill="white"/>
<path d="M350.45 112.094H343.814V118.73H350.45V112.094Z" fill="white"/>
<path d="M350.45 132.002H343.814V138.638H350.45V132.002Z" fill="white"/>
<path d="M350.45 145.274H343.814V151.91H350.45V145.274Z" fill="white"/>
<path d="M350.45 151.91H343.814V158.546H350.45V151.91Z" fill="white"/>
<path d="M350.45 171.818H343.814V178.454H350.45V171.818Z" fill="white"/>
<path d="M350.45 191.726H343.814V198.362H350.45V191.726Z" fill="white"/>
<path d="M350.45 218.27H343.814V224.906H350.45V218.27Z" fill="white"/>
<path d="M350.45 224.906H343.814V231.542H350.45V224.906Z" fill="white"/>
<path d="M350.45 231.542H343.814V238.178H350.45V231.542Z" fill="white"/>
<path d="M350.45 238.178H343.814V244.814H350.45V238.178Z" fill="white"/>
<path d="M350.45 244.814H343.814V251.45H350.45V244.814Z" fill="white"/>
<path d="M350.45 251.45H343.814V258.086H350.45V251.45Z" fill="white"/>
<path d="M350.45 264.722H343.814V271.358H350.45V264.722Z" fill="white"/>
<path d="M350.45 271.358H343.814V277.994H350.45V271.358Z" fill="white"/>
<path d="M357.085 151.91H350.449V158.546H357.085V151.91Z" fill="white"/>
<path d="M357.085 185.09H350.449V191.726H357.085V185.09Z" fill="white"/>
<path d="M357.085 204.998H350.449V211.634H357.085V204.998Z" fill="white"/>
<path d="M357.085 224.906H350.449V231.542H357.085V224.906Z" fill="white"/>
<path d="M357.085 231.542H350.449V238.178H357.085V231.542Z" fill="white"/>
<path d="M357.085 244.814H350.449V251.45H357.085V244.814Z" fill="white"/>
<path d="M357.085 251.45H350.449V258.086H357.085V251.45Z" fill="white"/>
<path d="M357.085 258.086H350.449V264.722H357.085V258.086Z" fill="white"/>
<path d="M357.085 264.722H350.449V271.358H357.085V264.722Z" fill="white"/>
<path d="M363.722 138.638H357.086V145.274H363.722V138.638Z" fill="white"/>
<path d="M363.722 145.274H357.086V151.91H363.722V145.274Z" fill="white"/>
<path d="M363.722 151.91H357.086V158.546H363.722V151.91Z" fill="white"/>
<path d="M363.722 165.182H357.086V171.818H363.722V165.182Z" fill="white"/>
<path d="M363.722 185.09H357.086V191.726H363.722V185.09Z" fill="white"/>
<path d="M363.722 198.362H357.086V204.998H363.722V198.362Z" fill="white"/>
<path d="M363.722 211.634H357.086V218.27H363.722V211.634Z" fill="white"/>
<path d="M363.722 224.906H357.086V231.542H363.722V224.906Z" fill="white"/>
<path d="M363.722 231.542H357.086V238.178H363.722V231.542Z" fill="white"/>
<path d="M363.722 238.178H357.086V244.814H363.722V238.178Z" fill="white"/>
<path d="M363.722 244.814H357.086V251.45H363.722V244.814Z" fill="white"/>
<path d="M363.722 258.086H357.086V264.722H363.722V258.086Z" fill="white"/>
<path d="M370.359 112.094H363.723V118.73H370.359V112.094Z" fill="white"/>
<path d="M370.359 118.73H363.723V125.366H370.359V118.73Z" fill="white"/>
<path d="M370.359 125.366H363.723V132.002H370.359V125.366Z" fill="white"/>
<path d="M370.359 132.002H363.723V138.638H370.359V132.002Z" fill="white"/>
<path d="M370.359 138.638H363.723V145.274H370.359V138.638Z" fill="white"/>
<path d="M370.359 145.274H363.723V151.91H370.359V145.274Z" fill="white"/>
<path d="M370.359 171.818H363.723V178.454H370.359V171.818Z" fill="white"/>
<path d="M370.359 178.454H363.723V185.09H370.359V178.454Z" fill="white"/>
<path d="M370.359 185.09H363.723V191.726H370.359V185.09Z" fill="white"/>
<path d="M370.359 191.726H363.723V198.362H370.359V191.726Z" fill="white"/>
<path d="M370.359 198.362H363.723V204.998H370.359V198.362Z" fill="white"/>
<path d="M370.359 204.998H363.723V211.634H370.359V204.998Z" fill="white"/>
<path d="M370.359 211.634H363.723V218.27H370.359V211.634Z" fill="white"/>
<path d="M370.359 218.27H363.723V224.906H370.359V218.27Z" fill="white"/>
<path d="M370.359 224.906H363.723V231.542H370.359V224.906Z" fill="white"/>
<path d="M370.359 231.542H363.723V238.178H370.359V231.542Z" fill="white"/>
<path d="M370.359 238.178H363.723V244.814H370.359V238.178Z" fill="white"/>
<path d="M376.993 125.366H370.357V132.002H376.993V125.366Z" fill="white"/>
<path d="M376.993 151.91H370.357V158.546H376.993V151.91Z" fill="white"/>
<path d="M376.993 158.546H370.357V165.182H376.993V158.546Z" fill="white"/>
<path d="M376.993 165.182H370.357V171.818H376.993V165.182Z" fill="white"/>
<path d="M376.993 191.726H370.357V198.362H376.993V191.726Z" fill="white"/>
<path d="M376.993 198.362H370.357V204.998H376.993V198.362Z" fill="white"/>
<path d="M376.993 211.634H370.357V218.27H376.993V211.634Z" fill="white"/>
<path d="M376.993 218.27H370.357V224.906H376.993V218.27Z" fill="white"/>
<path d="M376.993 231.542H370.357V238.178H376.993V231.542Z" fill="white"/>
<path d="M376.993 244.814H370.357V251.45H376.993V244.814Z" fill="white"/>
<path d="M376.993 271.358H370.357V277.994H376.993V271.358Z" fill="white"/>
</mask>
<g mask="url(#mask0_342_1968)">
<path d="M386 50H149V287H386V50Z" fill="#73CA45"/>
</g>
<mask id="mask1_342_1968" style="mask-type:luminance" maskUnits="userSpaceOnUse" x="158" y="59" width="47" height="47">
<path fill-rule="evenodd" clip-rule="evenodd" d="M158.006 59.0061V105.458H204.458V59.0061H158.006ZM164.642 65.6421H197.822V98.8221H164.642V65.6421Z" fill="white"/>
</mask>
<g mask="url(#mask1_342_1968)">
<path d="M204.458 59.0061H158.006V105.458H204.458V59.0061Z" fill="#73CA45"/>
</g>
<mask id="mask2_342_1968" style="mask-type:luminance" maskUnits="userSpaceOnUse" x="171" y="72" width="21" height="21">
<path d="M191.185 72.2781H171.277V92.1861H191.185V72.2781Z" fill="white"/>
</mask>
<g mask="url(#mask2_342_1968)">
<path d="M191.185 72.2781H171.277V92.1861H191.185V72.2781Z" fill="#73CA45"/>
</g>
<mask id="mask3_342_1968" style="mask-type:luminance" maskUnits="userSpaceOnUse" x="330" y="59" width="47" height="47">
<path fill-rule="evenodd" clip-rule="evenodd" d="M376.994 59.0061H330.542V105.458H376.994V59.0061ZM370.358 65.6421V98.8221H337.178V65.6421H370.358Z" fill="white"/>
</mask>
<g mask="url(#mask3_342_1968)">
<path d="M376.995 59.0061H330.543V105.458H376.995V59.0061Z" fill="#73CA45"/>
</g>
<mask id="mask4_342_1968" style="mask-type:luminance" maskUnits="userSpaceOnUse" x="343" y="72" width="21" height="21">
<path d="M363.723 92.1861V72.2781H343.815V92.1861H363.723Z" fill="white"/>
</mask>
<g mask="url(#mask4_342_1968)">
<path d="M363.722 72.2781H343.814V92.1861H363.722V72.2781Z" fill="#73CA45"/>
</g>
<mask id="mask5_342_1968" style="mask-type:luminance" maskUnits="userSpaceOnUse" x="158" y="231" width="47" height="47">
<path fill-rule="evenodd" clip-rule="evenodd" d="M158.006 277.994H204.458V231.542H158.006V277.994ZM164.642 271.358V238.178H197.822V271.358H164.642Z" fill="white"/>
</mask>
<g mask="url(#mask5_342_1968)">
<path d="M204.458 231.542H158.006V277.994H204.458V231.542Z" fill="#73CA45"/>
</g>
<mask id="mask6_342_1968" style="mask-type:luminance" maskUnits="userSpaceOnUse" x="171" y="244" width="21" height="21">
<path d="M171.277 244.814V264.722H191.185V244.814H171.277Z" fill="white"/>
</mask>
<g mask="url(#mask6_342_1968)">
<path d="M191.185 244.814H171.277V264.722H191.185V244.814Z" fill="#73CA45"/>
</g>
</g>
<defs>
<clipPath id="clip0_342_1968">
<rect width="237" height="237" fill="white" transform="translate(149 50)"/>
</clipPath>
</defs>
</svg>
