<svg width="541" height="323" viewBox="0 0 541 323" fill="none" xmlns="http://www.w3.org/2000/svg">
<rect x="232.111" y="81.2114" width="233.898" height="16.6114" fill="white"/>
<rect x="232.111" y="97.8228" width="233.898" height="16.6114" fill="white"/>
<rect x="124.984" y="114.434" width="341.026" height="16.6114" fill="white"/>
<rect x="155.336" y="97.8228" width="46.4224" height="16.6114" fill="white"/>
<rect x="108.914" y="131.046" width="357.096" height="16.6114" fill="white"/>
<rect x="92.8438" y="145.812" width="373.165" height="16.6114" fill="white"/>
<rect x="92.8438" y="162.423" width="373.165" height="16.6114" fill="white"/>
<rect x="93" y="177" width="403" height="58" fill="white"/>
<rect x="62.4922" y="193.8" width="448.155" height="16.6114" fill="white"/>
<rect x="32.1387" y="210.412" width="478.508" height="16.6114" fill="white"/>
<rect x="16" y="227" width="511" height="21" fill="white"/>
<rect y="243.634" width="526.716" height="16.6114" fill="white"/>
<rect y="258.4" width="526.716" height="16.6114" fill="white"/>
<rect y="275.011" width="541" height="16.6114" fill="white"/>
<rect x="32" y="227" width="509" height="79" fill="white"/>
<rect x="364" y="171" width="45" height="152" fill="white"/>
<rect x="248.182" y="64.6001" width="201.759" height="16.6114" fill="white"/>
<rect x="278.535" y="49.8345" width="171.406" height="16.6114" fill="white"/>
<rect x="311" y="33" width="123" height="32" fill="white"/>
<rect x="325" y="17" width="95" height="24" fill="white"/>
<rect x="341.027" width="48.2079" height="16.6114" fill="white"/>
<g clip-path="url(#clip0_342_1971)">
<path d="M409 45H178V276H409V45Z" fill="white"/>
<mask id="mask0_342_1971" style="mask-type:luminance" maskUnits="userSpaceOnUse" x="186" y="53" width="215" height="215">
<path d="M193.245 111.99H186.777V118.458H193.245V111.99Z" fill="white"/>
<path d="M193.245 124.926H186.777V131.394H193.245V124.926Z" fill="white"/>
<path d="M193.245 163.734H186.777V170.202H193.245V163.734Z" fill="white"/>
<path d="M193.245 170.202H186.777V176.67H193.245V170.202Z" fill="white"/>
<path d="M193.245 189.606H186.777V196.074H193.245V189.606Z" fill="white"/>
<path d="M193.245 209.01H186.777V215.478H193.245V209.01Z" fill="white"/>
<path d="M199.714 105.522H193.246V111.99H199.714V105.522Z" fill="white"/>
<path d="M199.714 118.458H193.246V124.926H199.714V118.458Z" fill="white"/>
<path d="M199.714 124.926H193.246V131.394H199.714V124.926Z" fill="white"/>
<path d="M199.714 144.33H193.246V150.798H199.714V144.33Z" fill="white"/>
<path d="M199.714 150.798H193.246V157.266H199.714V150.798Z" fill="white"/>
<path d="M199.714 170.202H193.246V176.67H199.714V170.202Z" fill="white"/>
<path d="M199.714 176.67H193.246V183.138H199.714V176.67Z" fill="white"/>
<path d="M199.714 209.01H193.246V215.478H199.714V209.01Z" fill="white"/>
<path d="M206.181 111.99H199.713V118.458H206.181V111.99Z" fill="white"/>
<path d="M206.181 131.394H199.713V137.862H206.181V131.394Z" fill="white"/>
<path d="M206.181 137.862H199.713V144.33H206.181V137.862Z" fill="white"/>
<path d="M206.181 144.33H199.713V150.798H206.181V144.33Z" fill="white"/>
<path d="M206.181 189.606H199.713V196.074H206.181V189.606Z" fill="white"/>
<path d="M206.181 202.542H199.713V209.01H206.181V202.542Z" fill="white"/>
<path d="M212.65 105.522H206.182V111.99H212.65V105.522Z" fill="white"/>
<path d="M212.65 118.458H206.182V124.926H212.65V118.458Z" fill="white"/>
<path d="M212.65 124.926H206.182V131.394H212.65V124.926Z" fill="white"/>
<path d="M212.65 137.862H206.182V144.33H212.65V137.862Z" fill="white"/>
<path d="M212.65 150.798H206.182V157.266H212.65V150.798Z" fill="white"/>
<path d="M212.65 170.202H206.182V176.67H212.65V170.202Z" fill="white"/>
<path d="M212.65 183.138H206.182V189.606H212.65V183.138Z" fill="white"/>
<path d="M212.65 196.074H206.182V202.542H212.65V196.074Z" fill="white"/>
<path d="M212.65 209.01H206.182V215.478H212.65V209.01Z" fill="white"/>
<path d="M219.116 105.522H212.648V111.99H219.116V105.522Z" fill="white"/>
<path d="M219.116 118.458H212.648V124.926H219.116V118.458Z" fill="white"/>
<path d="M219.116 124.926H212.648V131.394H219.116V124.926Z" fill="white"/>
<path d="M219.116 144.33H212.648V150.798H219.116V144.33Z" fill="white"/>
<path d="M219.116 150.798H212.648V157.266H219.116V150.798Z" fill="white"/>
<path d="M219.116 157.266H212.648V163.734H219.116V157.266Z" fill="white"/>
<path d="M219.116 163.734H212.648V170.202H219.116V163.734Z" fill="white"/>
<path d="M219.116 196.074H212.648V202.542H219.116V196.074Z" fill="white"/>
<path d="M219.116 202.542H212.648V209.01H219.116V202.542Z" fill="white"/>
<path d="M225.585 124.926H219.117V131.394H225.585V124.926Z" fill="white"/>
<path d="M225.585 131.394H219.117V137.862H225.585V131.394Z" fill="white"/>
<path d="M225.585 137.862H219.117V144.33H225.585V137.862Z" fill="white"/>
<path d="M225.585 150.798H219.117V157.266H225.585V150.798Z" fill="white"/>
<path d="M225.585 157.266H219.117V163.734H225.585V157.266Z" fill="white"/>
<path d="M225.585 163.734H219.117V170.202H225.585V163.734Z" fill="white"/>
<path d="M225.585 170.202H219.117V176.67H225.585V170.202Z" fill="white"/>
<path d="M225.585 176.67H219.117V183.138H225.585V176.67Z" fill="white"/>
<path d="M225.585 196.074H219.117V202.542H225.585V196.074Z" fill="white"/>
<path d="M225.585 209.01H219.117V215.478H225.585V209.01Z" fill="white"/>
<path d="M232.054 105.522H225.586V111.99H232.054V105.522Z" fill="white"/>
<path d="M232.054 118.458H225.586V124.926H232.054V118.458Z" fill="white"/>
<path d="M232.054 131.394H225.586V137.862H232.054V131.394Z" fill="white"/>
<path d="M232.054 144.33H225.586V150.798H232.054V144.33Z" fill="white"/>
<path d="M232.054 157.266H225.586V163.734H232.054V157.266Z" fill="white"/>
<path d="M232.054 170.202H225.586V176.67H232.054V170.202Z" fill="white"/>
<path d="M232.054 183.138H225.586V189.606H232.054V183.138Z" fill="white"/>
<path d="M232.054 196.074H225.586V202.542H232.054V196.074Z" fill="white"/>
<path d="M232.054 209.01H225.586V215.478H232.054V209.01Z" fill="white"/>
<path d="M238.521 105.522H232.053V111.99H238.521V105.522Z" fill="white"/>
<path d="M238.521 118.458H232.053V124.926H238.521V118.458Z" fill="white"/>
<path d="M238.521 144.33H232.053V150.798H238.521V144.33Z" fill="white"/>
<path d="M238.521 150.798H232.053V157.266H238.521V150.798Z" fill="white"/>
<path d="M238.521 157.266H232.053V163.734H238.521V157.266Z" fill="white"/>
<path d="M238.521 202.542H232.053V209.01H238.521V202.542Z" fill="white"/>
<path d="M244.989 60.2461H238.521V66.7141H244.989V60.2461Z" fill="white"/>
<path d="M244.989 73.1821H238.521V79.6501H244.989V73.1821Z" fill="white"/>
<path d="M244.989 79.6501H238.521V86.1181H244.989V79.6501Z" fill="white"/>
<path d="M244.989 86.1182H238.521V92.5862H244.989V86.1182Z" fill="white"/>
<path d="M244.989 92.5862H238.521V99.0542H244.989V92.5862Z" fill="white"/>
<path d="M244.989 105.522H238.521V111.99H244.989V105.522Z" fill="white"/>
<path d="M244.989 111.99H238.521V118.458H244.989V111.99Z" fill="white"/>
<path d="M244.989 124.926H238.521V131.394H244.989V124.926Z" fill="white"/>
<path d="M244.989 144.33H238.521V150.798H244.989V144.33Z" fill="white"/>
<path d="M244.989 157.266H238.521V163.734H244.989V157.266Z" fill="white"/>
<path d="M244.989 163.734H238.521V170.202H244.989V163.734Z" fill="white"/>
<path d="M244.989 183.138H238.521V189.606H244.989V183.138Z" fill="white"/>
<path d="M244.989 196.074H238.521V202.542H244.989V196.074Z" fill="white"/>
<path d="M244.989 202.542H238.521V209.01H244.989V202.542Z" fill="white"/>
<path d="M244.989 215.478H238.521V221.946H244.989V215.478Z" fill="white"/>
<path d="M244.989 221.946H238.521V228.414H244.989V221.946Z" fill="white"/>
<path d="M244.989 234.882H238.521V241.35H244.989V234.882Z" fill="white"/>
<path d="M244.989 241.35H238.521V247.818H244.989V241.35Z" fill="white"/>
<path d="M244.989 254.286H238.521V260.754H244.989V254.286Z" fill="white"/>
<path d="M251.458 111.99H244.99V118.458H251.458V111.99Z" fill="white"/>
<path d="M251.458 118.458H244.99V124.926H251.458V118.458Z" fill="white"/>
<path d="M251.458 124.926H244.99V131.394H251.458V124.926Z" fill="white"/>
<path d="M251.458 163.734H244.99V170.202H251.458V163.734Z" fill="white"/>
<path d="M251.458 170.202H244.99V176.67H251.458V170.202Z" fill="white"/>
<path d="M251.458 176.67H244.99V183.138H251.458V176.67Z" fill="white"/>
<path d="M251.458 189.606H244.99V196.074H251.458V189.606Z" fill="white"/>
<path d="M251.458 196.074H244.99V202.542H251.458V196.074Z" fill="white"/>
<path d="M251.458 202.542H244.99V209.01H251.458V202.542Z" fill="white"/>
<path d="M251.458 209.01H244.99V215.478H251.458V209.01Z" fill="white"/>
<path d="M251.458 215.478H244.99V221.946H251.458V215.478Z" fill="white"/>
<path d="M251.458 234.882H244.99V241.35H251.458V234.882Z" fill="white"/>
<path d="M251.458 241.35H244.99V247.818H251.458V241.35Z" fill="white"/>
<path d="M251.458 247.818H244.99V254.286H251.458V247.818Z" fill="white"/>
<path d="M257.925 53.7781H251.457V60.2461H257.925V53.7781Z" fill="white"/>
<path d="M257.925 66.7141H251.457V73.1821H257.925V66.7141Z" fill="white"/>
<path d="M257.925 79.6501H251.457V86.1181H257.925V79.6501Z" fill="white"/>
<path d="M257.925 92.5862H251.457V99.0542H257.925V92.5862Z" fill="white"/>
<path d="M257.925 99.0542H251.457V105.522H257.925V99.0542Z" fill="white"/>
<path d="M257.925 111.99H251.457V118.458H257.925V111.99Z" fill="white"/>
<path d="M257.925 131.394H251.457V137.862H257.925V131.394Z" fill="white"/>
<path d="M257.925 150.798H251.457V157.266H257.925V150.798Z" fill="white"/>
<path d="M257.925 157.266H251.457V163.734H257.925V157.266Z" fill="white"/>
<path d="M257.925 196.074H251.457V202.542H257.925V196.074Z" fill="white"/>
<path d="M257.925 202.542H251.457V209.01H257.925V202.542Z" fill="white"/>
<path d="M257.925 215.478H251.457V221.946H257.925V215.478Z" fill="white"/>
<path d="M257.925 221.946H251.457V228.414H257.925V221.946Z" fill="white"/>
<path d="M257.925 234.882H251.457V241.35H257.925V234.882Z" fill="white"/>
<path d="M257.925 241.35H251.457V247.818H257.925V241.35Z" fill="white"/>
<path d="M257.925 247.818H251.457V254.286H257.925V247.818Z" fill="white"/>
<path d="M257.925 254.286H251.457V260.754H257.925V254.286Z" fill="white"/>
<path d="M257.925 260.754H251.457V267.222H257.925V260.754Z" fill="white"/>
<path d="M264.394 60.2461H257.926V66.7141H264.394V60.2461Z" fill="white"/>
<path d="M264.394 66.7141H257.926V73.1821H264.394V66.7141Z" fill="white"/>
<path d="M264.394 73.1821H257.926V79.6501H264.394V73.1821Z" fill="white"/>
<path d="M264.394 99.0542H257.926V105.522H264.394V99.0542Z" fill="white"/>
<path d="M264.394 111.99H257.926V118.458H264.394V111.99Z" fill="white"/>
<path d="M264.394 124.926H257.926V131.394H264.394V124.926Z" fill="white"/>
<path d="M264.394 137.862H257.926V144.33H264.394V137.862Z" fill="white"/>
<path d="M264.394 144.33H257.926V150.798H264.394V144.33Z" fill="white"/>
<path d="M264.394 150.798H257.926V157.266H264.394V150.798Z" fill="white"/>
<path d="M264.394 157.266H257.926V163.734H264.394V157.266Z" fill="white"/>
<path d="M264.394 170.202H257.926V176.67H264.394V170.202Z" fill="white"/>
<path d="M264.394 176.67H257.926V183.138H264.394V176.67Z" fill="white"/>
<path d="M264.394 183.138H257.926V189.606H264.394V183.138Z" fill="white"/>
<path d="M264.394 189.606H257.926V196.074H264.394V189.606Z" fill="white"/>
<path d="M264.394 196.074H257.926V202.542H264.394V196.074Z" fill="white"/>
<path d="M264.394 202.542H257.926V209.01H264.394V202.542Z" fill="white"/>
<path d="M264.394 209.01H257.926V215.478H264.394V209.01Z" fill="white"/>
<path d="M264.394 228.414H257.926V234.882H264.394V228.414Z" fill="white"/>
<path d="M264.394 247.818H257.926V254.286H264.394V247.818Z" fill="white"/>
<path d="M270.861 53.7781H264.393V60.2461H270.861V53.7781Z" fill="white"/>
<path d="M270.861 60.2461H264.393V66.7141H270.861V60.2461Z" fill="white"/>
<path d="M270.861 66.7141H264.393V73.1821H270.861V66.7141Z" fill="white"/>
<path d="M270.861 73.1821H264.393V79.6501H270.861V73.1821Z" fill="white"/>
<path d="M270.861 86.1182H264.393V92.5862H270.861V86.1182Z" fill="white"/>
<path d="M270.861 92.5862H264.393V99.0542H270.861V92.5862Z" fill="white"/>
<path d="M270.861 99.0542H264.393V105.522H270.861V99.0542Z" fill="white"/>
<path d="M270.861 124.926H264.393V131.394H270.861V124.926Z" fill="white"/>
<path d="M270.861 137.862H264.393V144.33H270.861V137.862Z" fill="white"/>
<path d="M270.861 144.33H264.393V150.798H270.861V144.33Z" fill="white"/>
<path d="M270.861 157.266H264.393V163.734H270.861V157.266Z" fill="white"/>
<path d="M270.861 163.734H264.393V170.202H270.861V163.734Z" fill="white"/>
<path d="M270.861 189.606H264.393V196.074H270.861V189.606Z" fill="white"/>
<path d="M270.861 202.542H264.393V209.01H270.861V202.542Z" fill="white"/>
<path d="M270.861 221.946H264.393V228.414H270.861V221.946Z" fill="white"/>
<path d="M270.861 260.754H264.393V267.222H270.861V260.754Z" fill="white"/>
<path d="M277.329 60.2461H270.861V66.7141H277.329V60.2461Z" fill="white"/>
<path d="M277.329 66.7141H270.861V73.1821H277.329V66.7141Z" fill="white"/>
<path d="M277.329 73.1821H270.861V79.6501H277.329V73.1821Z" fill="white"/>
<path d="M277.329 79.6501H270.861V86.1181H277.329V79.6501Z" fill="white"/>
<path d="M277.329 99.0542H270.861V105.522H277.329V99.0542Z" fill="white"/>
<path d="M277.329 105.522H270.861V111.99H277.329V105.522Z" fill="white"/>
<path d="M277.329 137.862H270.861V144.33H277.329V137.862Z" fill="white"/>
<path d="M277.329 144.33H270.861V150.798H277.329V144.33Z" fill="white"/>
<path d="M277.329 157.266H270.861V163.734H277.329V157.266Z" fill="white"/>
<path d="M277.329 163.734H270.861V170.202H277.329V163.734Z" fill="white"/>
<path d="M277.329 170.202H270.861V176.67H277.329V170.202Z" fill="white"/>
<path d="M277.329 176.67H270.861V183.138H277.329V176.67Z" fill="white"/>
<path d="M277.329 183.138H270.861V189.606H277.329V183.138Z" fill="white"/>
<path d="M277.329 189.606H270.861V196.074H277.329V189.606Z" fill="white"/>
<path d="M277.329 209.01H270.861V215.478H277.329V209.01Z" fill="white"/>
<path d="M277.329 215.478H270.861V221.946H277.329V215.478Z" fill="white"/>
<path d="M277.329 228.414H270.861V234.882H277.329V228.414Z" fill="white"/>
<path d="M277.329 247.818H270.861V254.286H277.329V247.818Z" fill="white"/>
<path d="M283.798 53.7781H277.33V60.2461H283.798V53.7781Z" fill="white"/>
<path d="M283.798 79.6501H277.33V86.1181H283.798V79.6501Z" fill="white"/>
<path d="M283.798 86.1182H277.33V92.5862H283.798V86.1182Z" fill="white"/>
<path d="M283.798 92.5862H277.33V99.0542H283.798V92.5862Z" fill="white"/>
<path d="M283.798 111.99H277.33V118.458H283.798V111.99Z" fill="white"/>
<path d="M283.798 118.458H277.33V124.926H283.798V118.458Z" fill="white"/>
<path d="M283.798 124.926H277.33V131.394H283.798V124.926Z" fill="white"/>
<path d="M283.798 131.394H277.33V137.862H283.798V131.394Z" fill="white"/>
<path d="M283.798 137.862H277.33V144.33H283.798V137.862Z" fill="white"/>
<path d="M283.798 150.798H277.33V157.266H283.798V150.798Z" fill="white"/>
<path d="M283.798 157.266H277.33V163.734H283.798V157.266Z" fill="white"/>
<path d="M283.798 176.67H277.33V183.138H283.798V176.67Z" fill="white"/>
<path d="M283.798 183.138H277.33V189.606H283.798V183.138Z" fill="white"/>
<path d="M283.798 215.478H277.33V221.946H283.798V215.478Z" fill="white"/>
<path d="M283.798 228.414H277.33V234.882H283.798V228.414Z" fill="white"/>
<path d="M283.798 234.882H277.33V241.35H283.798V234.882Z" fill="white"/>
<path d="M283.798 241.35H277.33V247.818H283.798V241.35Z" fill="white"/>
<path d="M283.798 247.818H277.33V254.286H283.798V247.818Z" fill="white"/>
<path d="M290.265 66.7141H283.797V73.1821H290.265V66.7141Z" fill="white"/>
<path d="M290.265 73.1821H283.797V79.6501H290.265V73.1821Z" fill="white"/>
<path d="M290.265 79.6501H283.797V86.1181H290.265V79.6501Z" fill="white"/>
<path d="M290.265 86.1182H283.797V92.5862H290.265V86.1182Z" fill="white"/>
<path d="M290.265 111.99H283.797V118.458H290.265V111.99Z" fill="white"/>
<path d="M290.265 118.458H283.797V124.926H290.265V118.458Z" fill="white"/>
<path d="M290.265 131.394H283.797V137.862H290.265V131.394Z" fill="white"/>
<path d="M290.265 137.862H283.797V144.33H290.265V137.862Z" fill="white"/>
<path d="M290.265 150.798H283.797V157.266H290.265V150.798Z" fill="white"/>
<path d="M290.265 157.266H283.797V163.734H290.265V157.266Z" fill="white"/>
<path d="M290.265 183.138H283.797V189.606H290.265V183.138Z" fill="white"/>
<path d="M290.265 196.074H283.797V202.542H290.265V196.074Z" fill="white"/>
<path d="M290.265 209.01H283.797V215.478H290.265V209.01Z" fill="white"/>
<path d="M290.265 215.478H283.797V221.946H290.265V215.478Z" fill="white"/>
<path d="M290.265 221.946H283.797V228.414H290.265V221.946Z" fill="white"/>
<path d="M290.265 241.35H283.797V247.818H290.265V241.35Z" fill="white"/>
<path d="M290.265 247.818H283.797V254.286H290.265V247.818Z" fill="white"/>
<path d="M290.265 260.754H283.797V267.222H290.265V260.754Z" fill="white"/>
<path d="M296.734 53.7781H290.266V60.2461H296.734V53.7781Z" fill="white"/>
<path d="M296.734 60.2461H290.266V66.7141H296.734V60.2461Z" fill="white"/>
<path d="M296.734 66.7141H290.266V73.1821H296.734V66.7141Z" fill="white"/>
<path d="M296.734 79.6501H290.266V86.1181H296.734V79.6501Z" fill="white"/>
<path d="M296.734 92.5862H290.266V99.0542H296.734V92.5862Z" fill="white"/>
<path d="M296.734 105.522H290.266V111.99H296.734V105.522Z" fill="white"/>
<path d="M296.734 124.926H290.266V131.394H296.734V124.926Z" fill="white"/>
<path d="M296.734 144.33H290.266V150.798H296.734V144.33Z" fill="white"/>
<path d="M296.734 170.202H290.266V176.67H296.734V170.202Z" fill="white"/>
<path d="M296.734 183.138H290.266V189.606H296.734V183.138Z" fill="white"/>
<path d="M296.734 202.542H290.266V209.01H296.734V202.542Z" fill="white"/>
<path d="M296.734 221.946H290.266V228.414H296.734V221.946Z" fill="white"/>
<path d="M296.734 228.414H290.266V234.882H296.734V228.414Z" fill="white"/>
<path d="M296.734 234.882H290.266V241.35H296.734V234.882Z" fill="white"/>
<path d="M296.734 241.35H290.266V247.818H296.734V241.35Z" fill="white"/>
<path d="M303.2 53.7781H296.732V60.2461H303.2V53.7781Z" fill="white"/>
<path d="M303.2 60.2461H296.732V66.7141H303.2V60.2461Z" fill="white"/>
<path d="M303.2 79.6501H296.732V86.1181H303.2V79.6501Z" fill="white"/>
<path d="M303.2 105.522H296.732V111.99H303.2V105.522Z" fill="white"/>
<path d="M303.2 111.99H296.732V118.458H303.2V111.99Z" fill="white"/>
<path d="M303.2 118.458H296.732V124.926H303.2V118.458Z" fill="white"/>
<path d="M303.2 124.926H296.732V131.394H303.2V124.926Z" fill="white"/>
<path d="M303.2 131.394H296.732V137.862H303.2V131.394Z" fill="white"/>
<path d="M303.2 137.862H296.732V144.33H303.2V137.862Z" fill="white"/>
<path d="M303.2 157.266H296.732V163.734H303.2V157.266Z" fill="white"/>
<path d="M303.2 170.202H296.732V176.67H303.2V170.202Z" fill="white"/>
<path d="M303.2 176.67H296.732V183.138H303.2V176.67Z" fill="white"/>
<path d="M303.2 209.01H296.732V215.478H303.2V209.01Z" fill="white"/>
<path d="M303.2 215.478H296.732V221.946H303.2V215.478Z" fill="white"/>
<path d="M303.2 221.946H296.732V228.414H303.2V221.946Z" fill="white"/>
<path d="M303.2 234.882H296.732V241.35H303.2V234.882Z" fill="white"/>
<path d="M303.2 247.818H296.732V254.286H303.2V247.818Z" fill="white"/>
<path d="M303.2 254.286H296.732V260.754H303.2V254.286Z" fill="white"/>
<path d="M303.2 260.754H296.732V267.222H303.2V260.754Z" fill="white"/>
<path d="M309.669 60.2461H303.201V66.7141H309.669V60.2461Z" fill="white"/>
<path d="M309.669 66.7141H303.201V73.1821H309.669V66.7141Z" fill="white"/>
<path d="M309.669 73.1821H303.201V79.6501H309.669V73.1821Z" fill="white"/>
<path d="M309.669 79.6501H303.201V86.1181H309.669V79.6501Z" fill="white"/>
<path d="M309.669 92.5862H303.201V99.0542H309.669V92.5862Z" fill="white"/>
<path d="M309.669 99.0542H303.201V105.522H309.669V99.0542Z" fill="white"/>
<path d="M309.669 105.522H303.201V111.99H309.669V105.522Z" fill="white"/>
<path d="M309.669 124.926H303.201V131.394H309.669V124.926Z" fill="white"/>
<path d="M309.669 131.394H303.201V137.862H309.669V131.394Z" fill="white"/>
<path d="M309.669 144.33H303.201V150.798H309.669V144.33Z" fill="white"/>
<path d="M309.669 157.266H303.201V163.734H309.669V157.266Z" fill="white"/>
<path d="M309.669 163.734H303.201V170.202H309.669V163.734Z" fill="white"/>
<path d="M309.669 170.202H303.201V176.67H309.669V170.202Z" fill="white"/>
<path d="M309.669 176.67H303.201V183.138H309.669V176.67Z" fill="white"/>
<path d="M309.669 189.606H303.201V196.074H309.669V189.606Z" fill="white"/>
<path d="M309.669 196.074H303.201V202.542H309.669V196.074Z" fill="white"/>
<path d="M309.669 202.542H303.201V209.01H309.669V202.542Z" fill="white"/>
<path d="M309.669 209.01H303.201V215.478H309.669V209.01Z" fill="white"/>
<path d="M309.669 241.35H303.201V247.818H309.669V241.35Z" fill="white"/>
<path d="M309.669 247.818H303.201V254.286H309.669V247.818Z" fill="white"/>
<path d="M309.669 260.754H303.201V267.222H309.669V260.754Z" fill="white"/>
<path d="M316.138 53.7781H309.67V60.2461H316.138V53.7781Z" fill="white"/>
<path d="M316.138 60.2461H309.67V66.7141H316.138V60.2461Z" fill="white"/>
<path d="M316.138 118.458H309.67V124.926H316.138V118.458Z" fill="white"/>
<path d="M316.138 124.926H309.67V131.394H316.138V124.926Z" fill="white"/>
<path d="M316.138 131.394H309.67V137.862H316.138V131.394Z" fill="white"/>
<path d="M316.138 150.798H309.67V157.266H316.138V150.798Z" fill="white"/>
<path d="M316.138 157.266H309.67V163.734H316.138V157.266Z" fill="white"/>
<path d="M316.138 170.202H309.67V176.67H316.138V170.202Z" fill="white"/>
<path d="M316.138 196.074H309.67V202.542H316.138V196.074Z" fill="white"/>
<path d="M316.138 202.542H309.67V209.01H316.138V202.542Z" fill="white"/>
<path d="M316.138 221.946H309.67V228.414H316.138V221.946Z" fill="white"/>
<path d="M316.138 228.414H309.67V234.882H316.138V228.414Z" fill="white"/>
<path d="M316.138 234.882H309.67V241.35H316.138V234.882Z" fill="white"/>
<path d="M316.138 241.35H309.67V247.818H316.138V241.35Z" fill="white"/>
<path d="M316.138 247.818H309.67V254.286H316.138V247.818Z" fill="white"/>
<path d="M322.605 79.6501H316.137V86.1181H322.605V79.6501Z" fill="white"/>
<path d="M322.605 86.1182H316.137V92.5862H322.605V86.1182Z" fill="white"/>
<path d="M322.605 92.5862H316.137V99.0542H322.605V92.5862Z" fill="white"/>
<path d="M322.605 105.522H316.137V111.99H322.605V105.522Z" fill="white"/>
<path d="M322.605 111.99H316.137V118.458H322.605V111.99Z" fill="white"/>
<path d="M322.605 124.926H316.137V131.394H322.605V124.926Z" fill="white"/>
<path d="M322.605 131.394H316.137V137.862H322.605V131.394Z" fill="white"/>
<path d="M322.605 137.862H316.137V144.33H322.605V137.862Z" fill="white"/>
<path d="M322.605 157.266H316.137V163.734H322.605V157.266Z" fill="white"/>
<path d="M322.605 176.67H316.137V183.138H322.605V176.67Z" fill="white"/>
<path d="M322.605 189.606H316.137V196.074H322.605V189.606Z" fill="white"/>
<path d="M322.605 196.074H316.137V202.542H322.605V196.074Z" fill="white"/>
<path d="M322.605 202.542H316.137V209.01H322.605V202.542Z" fill="white"/>
<path d="M322.605 209.01H316.137V215.478H322.605V209.01Z" fill="white"/>
<path d="M322.605 228.414H316.137V234.882H322.605V228.414Z" fill="white"/>
<path d="M322.605 241.35H316.137V247.818H322.605V241.35Z" fill="white"/>
<path d="M322.605 260.754H316.137V267.222H322.605V260.754Z" fill="white"/>
<path d="M329.073 53.7781H322.605V60.2461H329.073V53.7781Z" fill="white"/>
<path d="M329.073 79.6501H322.605V86.1181H329.073V79.6501Z" fill="white"/>
<path d="M329.073 105.522H322.605V111.99H329.073V105.522Z" fill="white"/>
<path d="M329.073 111.99H322.605V118.458H329.073V111.99Z" fill="white"/>
<path d="M329.073 124.926H322.605V131.394H329.073V124.926Z" fill="white"/>
<path d="M329.073 131.394H322.605V137.862H329.073V131.394Z" fill="white"/>
<path d="M329.073 144.33H322.605V150.798H329.073V144.33Z" fill="white"/>
<path d="M329.073 150.798H322.605V157.266H329.073V150.798Z" fill="white"/>
<path d="M329.073 163.734H322.605V170.202H329.073V163.734Z" fill="white"/>
<path d="M329.073 228.414H322.605V234.882H329.073V228.414Z" fill="white"/>
<path d="M329.073 234.882H322.605V241.35H329.073V234.882Z" fill="white"/>
<path d="M329.073 241.35H322.605V247.818H329.073V241.35Z" fill="white"/>
<path d="M329.073 247.818H322.605V254.286H329.073V247.818Z" fill="white"/>
<path d="M335.542 53.7781H329.074V60.2461H335.542V53.7781Z" fill="white"/>
<path d="M335.542 66.7141H329.074V73.1821H335.542V66.7141Z" fill="white"/>
<path d="M335.542 73.1821H329.074V79.6501H335.542V73.1821Z" fill="white"/>
<path d="M335.542 92.5862H329.074V99.0542H335.542V92.5862Z" fill="white"/>
<path d="M335.542 105.522H329.074V111.99H335.542V105.522Z" fill="white"/>
<path d="M335.542 111.99H329.074V118.458H335.542V111.99Z" fill="white"/>
<path d="M335.542 131.394H329.074V137.862H335.542V131.394Z" fill="white"/>
<path d="M335.542 137.862H329.074V144.33H335.542V137.862Z" fill="white"/>
<path d="M335.542 150.798H329.074V157.266H335.542V150.798Z" fill="white"/>
<path d="M335.542 170.202H329.074V176.67H335.542V170.202Z" fill="white"/>
<path d="M335.542 176.67H329.074V183.138H335.542V176.67Z" fill="white"/>
<path d="M335.542 183.138H329.074V189.606H335.542V183.138Z" fill="white"/>
<path d="M335.542 189.606H329.074V196.074H335.542V189.606Z" fill="white"/>
<path d="M335.542 209.01H329.074V215.478H335.542V209.01Z" fill="white"/>
<path d="M335.542 228.414H329.074V234.882H335.542V228.414Z" fill="white"/>
<path d="M335.542 234.882H329.074V241.35H335.542V234.882Z" fill="white"/>
<path d="M335.542 254.286H329.074V260.754H335.542V254.286Z" fill="white"/>
<path d="M335.542 260.754H329.074V267.222H335.542V260.754Z" fill="white"/>
<path d="M342.009 53.7781H335.541V60.2461H342.009V53.7781Z" fill="white"/>
<path d="M342.009 66.7141H335.541V73.1821H342.009V66.7141Z" fill="white"/>
<path d="M342.009 79.6501H335.541V86.1181H342.009V79.6501Z" fill="white"/>
<path d="M342.009 86.1182H335.541V92.5862H342.009V86.1182Z" fill="white"/>
<path d="M342.009 105.522H335.541V111.99H342.009V105.522Z" fill="white"/>
<path d="M342.009 111.99H335.541V118.458H342.009V111.99Z" fill="white"/>
<path d="M342.009 131.394H335.541V137.862H342.009V131.394Z" fill="white"/>
<path d="M342.009 144.33H335.541V150.798H342.009V144.33Z" fill="white"/>
<path d="M342.009 150.798H335.541V157.266H342.009V150.798Z" fill="white"/>
<path d="M342.009 157.266H335.541V163.734H342.009V157.266Z" fill="white"/>
<path d="M342.009 176.67H335.541V183.138H342.009V176.67Z" fill="white"/>
<path d="M342.009 183.138H335.541V189.606H342.009V183.138Z" fill="white"/>
<path d="M342.009 215.478H335.541V221.946H342.009V215.478Z" fill="white"/>
<path d="M342.009 228.414H335.541V234.882H342.009V228.414Z" fill="white"/>
<path d="M342.009 247.818H335.541V254.286H342.009V247.818Z" fill="white"/>
<path d="M342.009 254.286H335.541V260.754H342.009V254.286Z" fill="white"/>
<path d="M348.478 53.7781H342.01V60.2461H348.478V53.7781Z" fill="white"/>
<path d="M348.478 60.2461H342.01V66.7141H348.478V60.2461Z" fill="white"/>
<path d="M348.478 79.6501H342.01V86.1181H348.478V79.6501Z" fill="white"/>
<path d="M348.478 86.1182H342.01V92.5862H348.478V86.1182Z" fill="white"/>
<path d="M348.478 92.5862H342.01V99.0542H348.478V92.5862Z" fill="white"/>
<path d="M348.478 118.458H342.01V124.926H348.478V118.458Z" fill="white"/>
<path d="M348.478 131.394H342.01V137.862H348.478V131.394Z" fill="white"/>
<path d="M348.478 137.862H342.01V144.33H348.478V137.862Z" fill="white"/>
<path d="M348.478 157.266H342.01V163.734H348.478V157.266Z" fill="white"/>
<path d="M348.478 170.202H342.01V176.67H348.478V170.202Z" fill="white"/>
<path d="M348.478 196.074H342.01V202.542H348.478V196.074Z" fill="white"/>
<path d="M348.478 209.01H342.01V215.478H348.478V209.01Z" fill="white"/>
<path d="M348.478 215.478H342.01V221.946H348.478V215.478Z" fill="white"/>
<path d="M348.478 221.946H342.01V228.414H348.478V221.946Z" fill="white"/>
<path d="M348.478 228.414H342.01V234.882H348.478V228.414Z" fill="white"/>
<path d="M348.478 234.882H342.01V241.35H348.478V234.882Z" fill="white"/>
<path d="M348.478 241.35H342.01V247.818H348.478V241.35Z" fill="white"/>
<path d="M348.478 254.286H342.01V260.754H348.478V254.286Z" fill="white"/>
<path d="M348.478 260.754H342.01V267.222H348.478V260.754Z" fill="white"/>
<path d="M354.945 105.522H348.477V111.99H354.945V105.522Z" fill="white"/>
<path d="M354.945 124.926H348.477V131.394H354.945V124.926Z" fill="white"/>
<path d="M354.945 131.394H348.477V137.862H354.945V131.394Z" fill="white"/>
<path d="M354.945 144.33H348.477V150.798H354.945V144.33Z" fill="white"/>
<path d="M354.945 183.138H348.477V189.606H354.945V183.138Z" fill="white"/>
<path d="M354.945 189.606H348.477V196.074H354.945V189.606Z" fill="white"/>
<path d="M354.945 196.074H348.477V202.542H354.945V196.074Z" fill="white"/>
<path d="M354.945 209.01H348.477V215.478H354.945V209.01Z" fill="white"/>
<path d="M354.945 234.882H348.477V241.35H354.945V234.882Z" fill="white"/>
<path d="M354.945 247.818H348.477V254.286H354.945V247.818Z" fill="white"/>
<path d="M354.945 254.286H348.477V260.754H354.945V254.286Z" fill="white"/>
<path d="M361.413 118.458H354.945V124.926H361.413V118.458Z" fill="white"/>
<path d="M361.413 131.394H354.945V137.862H361.413V131.394Z" fill="white"/>
<path d="M361.413 144.33H354.945V150.798H361.413V144.33Z" fill="white"/>
<path d="M361.413 150.798H354.945V157.266H361.413V150.798Z" fill="white"/>
<path d="M361.413 157.266H354.945V163.734H361.413V157.266Z" fill="white"/>
<path d="M361.413 163.734H354.945V170.202H361.413V163.734Z" fill="white"/>
<path d="M361.413 170.202H354.945V176.67H361.413V170.202Z" fill="white"/>
<path d="M361.413 176.67H354.945V183.138H361.413V176.67Z" fill="white"/>
<path d="M361.413 202.542H354.945V209.01H361.413V202.542Z" fill="white"/>
<path d="M361.413 209.01H354.945V215.478H361.413V209.01Z" fill="white"/>
<path d="M361.413 221.946H354.945V228.414H361.413V221.946Z" fill="white"/>
<path d="M361.413 234.882H354.945V241.35H361.413V234.882Z" fill="white"/>
<path d="M361.413 247.818H354.945V254.286H361.413V247.818Z" fill="white"/>
<path d="M367.882 105.522H361.414V111.99H367.882V105.522Z" fill="white"/>
<path d="M367.882 111.99H361.414V118.458H367.882V111.99Z" fill="white"/>
<path d="M367.882 157.266H361.414V163.734H367.882V157.266Z" fill="white"/>
<path d="M367.882 163.734H361.414V170.202H367.882V163.734Z" fill="white"/>
<path d="M367.882 176.67H361.414V183.138H367.882V176.67Z" fill="white"/>
<path d="M367.882 189.606H361.414V196.074H367.882V189.606Z" fill="white"/>
<path d="M367.882 196.074H361.414V202.542H367.882V196.074Z" fill="white"/>
<path d="M367.882 209.01H361.414V215.478H367.882V209.01Z" fill="white"/>
<path d="M367.882 234.882H361.414V241.35H367.882V234.882Z" fill="white"/>
<path d="M367.882 247.818H361.414V254.286H367.882V247.818Z" fill="white"/>
<path d="M374.349 105.522H367.881V111.99H374.349V105.522Z" fill="white"/>
<path d="M374.349 124.926H367.881V131.394H374.349V124.926Z" fill="white"/>
<path d="M374.349 144.33H367.881V150.798H374.349V144.33Z" fill="white"/>
<path d="M374.349 150.798H367.881V157.266H374.349V150.798Z" fill="white"/>
<path d="M374.349 163.734H367.881V170.202H374.349V163.734Z" fill="white"/>
<path d="M374.349 176.67H367.881V183.138H374.349V176.67Z" fill="white"/>
<path d="M374.349 189.606H367.881V196.074H374.349V189.606Z" fill="white"/>
<path d="M374.349 196.074H367.881V202.542H374.349V196.074Z" fill="white"/>
<path d="M374.349 202.542H367.881V209.01H374.349V202.542Z" fill="white"/>
<path d="M374.349 209.01H367.881V215.478H374.349V209.01Z" fill="white"/>
<path d="M374.349 215.478H367.881V221.946H374.349V215.478Z" fill="white"/>
<path d="M374.349 221.946H367.881V228.414H374.349V221.946Z" fill="white"/>
<path d="M374.349 228.414H367.881V234.882H374.349V228.414Z" fill="white"/>
<path d="M374.349 234.882H367.881V241.35H374.349V234.882Z" fill="white"/>
<path d="M374.349 260.754H367.881V267.222H374.349V260.754Z" fill="white"/>
<path d="M380.818 105.522H374.35V111.99H380.818V105.522Z" fill="white"/>
<path d="M380.818 111.99H374.35V118.458H380.818V111.99Z" fill="white"/>
<path d="M380.818 118.458H374.35V124.926H380.818V118.458Z" fill="white"/>
<path d="M380.818 150.798H374.35V157.266H380.818V150.798Z" fill="white"/>
<path d="M380.818 157.266H374.35V163.734H380.818V157.266Z" fill="white"/>
<path d="M380.818 170.202H374.35V176.67H380.818V170.202Z" fill="white"/>
<path d="M380.818 196.074H374.35V202.542H380.818V196.074Z" fill="white"/>
<path d="M380.818 202.542H374.35V209.01H380.818V202.542Z" fill="white"/>
<path d="M380.818 247.818H374.35V254.286H380.818V247.818Z" fill="white"/>
<path d="M380.818 260.754H374.35V267.222H380.818V260.754Z" fill="white"/>
<path d="M387.284 111.99H380.816V118.458H387.284V111.99Z" fill="white"/>
<path d="M387.284 118.458H380.816V124.926H387.284V118.458Z" fill="white"/>
<path d="M387.284 157.266H380.816V163.734H387.284V157.266Z" fill="white"/>
<path d="M387.284 176.67H380.816V183.138H387.284V176.67Z" fill="white"/>
<path d="M387.284 189.606H380.816V196.074H387.284V189.606Z" fill="white"/>
<path d="M387.284 202.542H380.816V209.01H387.284V202.542Z" fill="white"/>
<path d="M387.284 209.01H380.816V215.478H387.284V209.01Z" fill="white"/>
<path d="M387.284 228.414H380.816V234.882H387.284V228.414Z" fill="white"/>
<path d="M387.284 234.882H380.816V241.35H387.284V234.882Z" fill="white"/>
<path d="M387.284 247.818H380.816V254.286H387.284V247.818Z" fill="white"/>
<path d="M387.284 254.286H380.816V260.754H387.284V254.286Z" fill="white"/>
<path d="M387.284 260.754H380.816V267.222H387.284V260.754Z" fill="white"/>
<path d="M393.753 105.522H387.285V111.99H393.753V105.522Z" fill="white"/>
<path d="M393.753 131.394H387.285V137.862H393.753V131.394Z" fill="white"/>
<path d="M393.753 176.67H387.285V183.138H393.753V176.67Z" fill="white"/>
<path d="M393.753 183.138H387.285V189.606H393.753V183.138Z" fill="white"/>
<path d="M393.753 209.01H387.285V215.478H393.753V209.01Z" fill="white"/>
<path d="M393.753 234.882H387.285V241.35H393.753V234.882Z" fill="white"/>
<path d="M393.753 247.818H387.285V254.286H393.753V247.818Z" fill="white"/>
<path d="M393.753 254.286H387.285V260.754H393.753V254.286Z" fill="white"/>
<path d="M393.753 260.754H387.285V267.222H393.753V260.754Z" fill="white"/>
<path d="M400.222 111.99H393.754V118.458H400.222V111.99Z" fill="white"/>
<path d="M400.222 118.458H393.754V124.926H400.222V118.458Z" fill="white"/>
<path d="M400.222 137.862H393.754V144.33H400.222V137.862Z" fill="white"/>
<path d="M400.222 157.266H393.754V163.734H400.222V157.266Z" fill="white"/>
<path d="M400.222 170.202H393.754V176.67H400.222V170.202Z" fill="white"/>
<path d="M400.222 176.67H393.754V183.138H400.222V176.67Z" fill="white"/>
<path d="M400.222 196.074H393.754V202.542H400.222V196.074Z" fill="white"/>
<path d="M400.222 209.01H393.754V215.478H400.222V209.01Z" fill="white"/>
<path d="M400.222 215.478H393.754V221.946H400.222V215.478Z" fill="white"/>
<path d="M400.222 228.414H393.754V234.882H400.222V228.414Z" fill="white"/>
</mask>
<g mask="url(#mask0_342_1971)">
<path d="M409 45H178V276H409V45Z" fill="#EA5801"/>
</g>
<mask id="mask1_342_1971" style="mask-type:luminance" maskUnits="userSpaceOnUse" x="186" y="53" width="47" height="47">
<path fill-rule="evenodd" clip-rule="evenodd" d="M186.777 53.7781V99.0541H232.053V53.7781H186.777ZM193.245 60.2461H225.585V92.5861H193.245V60.2461Z" fill="white"/>
</mask>
<g mask="url(#mask1_342_1971)">
<path d="M232.053 53.7781H186.777V99.0541H232.053V53.7781Z" fill="#EA5801"/>
</g>
<mask id="mask2_342_1971" style="mask-type:luminance" maskUnits="userSpaceOnUse" x="199" y="66" width="21" height="21">
<path d="M219.119 66.7141H199.715V86.1181H219.119V66.7141Z" fill="white"/>
</mask>
<g mask="url(#mask2_342_1971)">
<path d="M219.119 66.7141H199.715V86.1181H219.119V66.7141Z" fill="#EA5801"/>
</g>
<mask id="mask3_342_1971" style="mask-type:luminance" maskUnits="userSpaceOnUse" x="354" y="53" width="47" height="47">
<path fill-rule="evenodd" clip-rule="evenodd" d="M400.223 53.7781H354.947V99.0541H400.223V53.7781ZM393.755 60.2461V92.5861H361.415V60.2461H393.755Z" fill="white"/>
</mask>
<g mask="url(#mask3_342_1971)">
<path d="M400.221 53.7781H354.945V99.0541H400.221V53.7781Z" fill="#EA5801"/>
</g>
<mask id="mask4_342_1971" style="mask-type:luminance" maskUnits="userSpaceOnUse" x="367" y="66" width="21" height="21">
<path d="M387.287 86.1181V66.7141H367.883V86.1181H387.287Z" fill="white"/>
</mask>
<g mask="url(#mask4_342_1971)">
<path d="M387.287 66.7141H367.883V86.1181H387.287V66.7141Z" fill="#EA5801"/>
</g>
<mask id="mask5_342_1971" style="mask-type:luminance" maskUnits="userSpaceOnUse" x="186" y="221" width="47" height="47">
<path fill-rule="evenodd" clip-rule="evenodd" d="M186.777 267.222H232.053V221.946H186.777V267.222ZM193.245 260.754V228.414H225.585V260.754H193.245Z" fill="white"/>
</mask>
<g mask="url(#mask5_342_1971)">
<path d="M232.053 221.946H186.777V267.222H232.053V221.946Z" fill="#EA5801"/>
</g>
<mask id="mask6_342_1971" style="mask-type:luminance" maskUnits="userSpaceOnUse" x="199" y="234" width="21" height="21">
<path d="M199.715 234.882V254.286H219.119V234.882H199.715Z" fill="white"/>
</mask>
<g mask="url(#mask6_342_1971)">
<path d="M219.119 234.882H199.715V254.286H219.119V234.882Z" fill="#EA5801"/>
</g>
</g>
<defs>
<clipPath id="clip0_342_1971">
<rect width="231" height="231" fill="white" transform="translate(178 45)"/>
</clipPath>
</defs>
</svg>
